group Temple_Tile_Edge_3
g Temple_Tile_Edge_3
v -0.1 0.5 -1
v -0.1 0.5 1
v 0.1 0.5 1
v 0.1 0.5 -1
v -0.1 -0.5 -1
v 0.1 -0.5 -1
v 0.1 -0.5 1
v -0.1 -0.5 1
v -0.1 -0.5 -1
v -0.1 -0.5 1
v -0.1 0.5 1
v -0.1 0.5 -1
v 0.1 -0.5 -1
v 0.1 0.5 -1
v 0.1 0.5 1
v 0.1 -0.5 1
v -0.1 -0.5 1
v 0.1 -0.5 1
v 0.1 0.5 1
v -0.1 0.5 1
v -0.1 -0.5 -1
v -0.1 0.5 -1
v 0.1 0.5 -1
v 0.1 -0.5 -1

vn 0 1 0
vn 0 1 0
vn 0 1 0
vn 0 1 0
vn 0 -1 0
vn 0 -1 0
vn 0 -1 0
vn 0 -1 0
vn -1 0 0
vn -1 0 0
vn -1 0 0
vn -1 0 0
vn 1 0 0
vn 1 0 0
vn 1 0 0
vn 1 0 0
vn 0 0 1
vn 0 0 1
vn 0 0 1
vn 0 0 1
vn 0 0 -1
vn 0 0 -1
vn 0 0 -1
vn 0 0 -1

vt 0.0625 0.5
vt 0.6875 0.5
vt 0.6875 0.5625
vt 0.0625 0.5625
vt 0.0625 0.5
vt 0.0625 0.5625
vt 0.6875 0.5625
vt 0.6875 0.5
vt 0.0625 0.0625
vt 0.6875 0.0625
vt 0.6875 0.375
vt 0.0625 0.375
vt 0.0625 0.0625
vt 0.0625 0.375
vt 0.6875 0.375
vt 0.6875 0.0625
vt 0.0625 0.6875
vt 0.0625 0.75
vt 0.375 0.75
vt 0.375 0.6875
vt 0.0625 0.6875
vt 0.375 0.6875
vt 0.375 0.75
vt 0.0625 0.75

usemtl Mesh
usemap Mesh
f 1/1/1 2/2/2 3/3/3
f 1/1/1 3/3/3 4/4/4
f 5/5/5 6/6/6 7/7/7
f 5/5/5 7/7/7 8/8/8
f 9/9/9 10/10/10 11/11/11
f 9/9/9 11/11/11 12/12/12
f 13/13/13 14/14/14 15/15/15
f 13/13/13 15/15/15 16/16/16
f 17/17/17 18/18/18 19/19/19
f 17/17/17 19/19/19 20/20/20
f 21/21/21 22/22/22 23/23/23
f 21/21/21 23/23/23 24/24/24
