Object_temple_BG45
group Object_temple_BG45
g Object_temple_BG45
v -1.3 4.1 -1.1
v -1.3 4.1 -0.7
v 1.1 4.1 -0.7
v 1.1 4.1 -1.1
v -1.3 4.1 0.7
v -1.3 4.1 1.1
v 1.1 4.1 1.1
v 1.1 4.1 0.7
v -1.1 4.1 -0.7
v -1.1 4.1 0.7
v 1.1 4.1 0.7
v 1.1 4.1 -0.7
v -1.3 -4.3 -1.1
v 1.1 -4.3 -1.1
v 1.1 -4.3 -0.7
v -1.3 -4.3 -0.7
v -1.3 -4.3 0.7
v 1.1 -4.3 0.7
v 1.1 -4.3 1.1
v -1.3 -4.3 1.1
v -1.1 -4.3 -0.7
v 1.1 -4.3 -0.7
v 1.1 -4.3 0.7
v -1.1 -4.3 0.7
v -1.3 -4.3 -1.1
v -1.3 -4.3 -0.7
v -1.3 4.1 -0.7
v -1.3 4.1 -1.1
v -1.3 -4.3 0.7
v -1.3 -4.3 1.1
v -1.3 4.1 1.1
v -1.3 4.1 0.7
v -1.1 -4.3 -0.7
v -1.1 -4.3 0.7
v -1.1 4.1 0.7
v -1.1 4.1 -0.7
v 1.1 -4.3 -1.1
v 1.1 4.1 -1.1
v 1.1 4.1 1.1
v 1.1 -4.3 1.1
v -1.3 -4.3 -0.7
v -1.1 -4.3 -0.7
v -1.1 4.1 -0.7
v -1.3 4.1 -0.7
v -1.3 -4.3 1.1
v 1.1 -4.3 1.1
v 1.1 4.1 1.1
v -1.3 4.1 1.1
v -1.3 -4.3 -1.1
v -1.3 4.1 -1.1
v 1.1 4.1 -1.1
v 1.1 -4.3 -1.1
v -1.3 -4.3 0.7
v -1.3 4.1 0.7
v -1.1 4.1 0.7
v -1.1 -4.3 0.7

vn 0 0.9999999 0
vn 0 0.9999999 0
vn 0 0.9999999 0
vn 0 0.9999999 0
vn 0 0.9999999 0
vn 0 0.9999999 0
vn 0 0.9999999 0
vn 0 0.9999999 0
vn 0 0.9999999 0
vn 0 0.9999999 0
vn 0 0.9999999 0
vn 0 0.9999999 0
vn 0 -0.9999999 0
vn 0 -0.9999999 0
vn 0 -0.9999999 0
vn 0 -0.9999999 0
vn 0 -0.9999999 0
vn 0 -0.9999999 0
vn 0 -0.9999999 0
vn 0 -0.9999999 0
vn 0 -0.9999999 0
vn 0 -0.9999999 0
vn 0 -0.9999999 0
vn 0 -0.9999999 0
vn -1 0 0
vn -1 0 0
vn -1 0 0
vn -1 0 0
vn -1 0 0
vn -1 0 0
vn -1 0 0
vn -1 0 0
vn -1 0 0
vn -1 0 0
vn -1 0 0
vn -1 0 0
vn 0.9999999 0 0
vn 0.9999999 0 0
vn 0.9999999 0 0
vn 0.9999999 0 0
vn 0 0 1
vn 0 0 1
vn 0 0 1
vn 0 0 1
vn 0 0 1
vn 0 0 1
vn 0 0 1
vn 0 0 1
vn 0 0 -1
vn 0 0 -1
vn 0 0 -1
vn 0 0 -1
vn 0 0 -1
vn 0 0 -1
vn 0 0 -1
vn 0 0 -1

vt 0.484375 0.01282051
vt 0.515625 0.01282051
vt 0.515625 0.1666667
vt 0.484375 0.1666667
vt 0.484375 0.1923077
vt 0.515625 0.1923077
vt 0.515625 0.3461539
vt 0.484375 0.3461539
vt 0.546875 0.1923077
vt 0.65625 0.1923077
vt 0.65625 0.3333333
vt 0.546875 0.3333333
vt 0.484375 0.3717949
vt 0.484375 0.525641
vt 0.515625 0.525641
vt 0.515625 0.3717949
vt 0.546875 0.01282051
vt 0.546875 0.1666667
vt 0.578125 0.1666667
vt 0.578125 0.01282051
vt 0.546875 0.3589744
vt 0.546875 0.5
vt 0.65625 0.5
vt 0.65625 0.3589744
vt 0.015625 0.01282051
vt 0.046875 0.01282051
vt 0.046875 0.5512821
vt 0.015625 0.5512821
vt 0.078125 0.01282051
vt 0.109375 0.01282051
vt 0.109375 0.5512821
vt 0.078125 0.5512821
vt 0.140625 0.01282051
vt 0.25 0.01282051
vt 0.25 0.5512821
vt 0.140625 0.5512821
vt 0.28125 0.01282051
vt 0.28125 0.5512821
vt 0.453125 0.5512821
vt 0.453125 0.01282051
vt 0.015625 0.9358974
vt 0.015625 0.948718
vt 0.671875 0.948718
vt 0.671875 0.9358974
vt 0.015625 0.5769231
vt 0.015625 0.7307692
vt 0.671875 0.7307692
vt 0.671875 0.5769231
vt 0.015625 0.7564102
vt 0.671875 0.7564102
vt 0.671875 0.9102564
vt 0.015625 0.9102564
vt 0.015625 0.974359
vt 0.671875 0.974359
vt 0.671875 0.9871795
vt 0.015625 0.9871795

usemtl Mesh
usemap Mesh
f 1/1/1 2/2/2 3/3/3
f 1/1/1 3/3/3 4/4/4
f 5/5/5 6/6/6 7/7/7
f 5/5/5 7/7/7 8/8/8
f 9/9/9 10/10/10 11/11/11
f 9/9/9 11/11/11 12/12/12
f 13/13/13 14/14/14 15/15/15
f 13/13/13 15/15/15 16/16/16
f 17/17/17 18/18/18 19/19/19
f 17/17/17 19/19/19 20/20/20
f 21/21/21 22/22/22 23/23/23
f 21/21/21 23/23/23 24/24/24
f 25/25/25 26/26/26 27/27/27
f 25/25/25 27/27/27 28/28/28
f 29/29/29 30/30/30 31/31/31
f 29/29/29 31/31/31 32/32/32
f 33/33/33 34/34/34 35/35/35
f 33/33/33 35/35/35 36/36/36
f 37/37/37 38/38/38 39/39/39
f 37/37/37 39/39/39 40/40/40
f 41/41/41 42/42/42 43/43/43
f 41/41/41 43/43/43 44/44/44
f 45/45/45 46/46/46 47/47/47
f 45/45/45 47/47/47 48/48/48
f 49/49/49 50/50/50 51/51/51
f 49/49/49 51/51/51 52/52/52
f 53/53/53 54/54/54 55/55/55
f 53/53/53 55/55/55 56/56/56
