Object_temple_BG44
group Object_temple_BG44
g Object_temple_BG44
v -1.7 -0.9 -1.1
v -1.7 -0.9 -0.7
v -1.5 -0.9 -0.7
v -1.5 -0.9 -1.1
v -1.7 -0.9 0.7
v -1.7 -0.9 1.1
v -1.5 -0.9 1.1
v -1.5 -0.9 0.7
v -1.5 1.1 -1.1
v -1.5 1.1 -0.7
v 1.5 1.1 -0.7
v 1.5 1.1 -1.1
v -1.5 1.1 0.7
v -1.5 1.1 1.1
v 1.5 1.1 1.1
v 1.5 1.1 0.7
v -1.3 1.1 -0.7
v -1.3 1.1 0.7
v 1.5 1.1 0.7
v 1.5 1.1 -0.7
v -1.7 -1.1 -1.1
v 1.5 -1.1 -1.1
v 1.5 -1.1 -0.7
v -1.7 -1.1 -0.7
v -1.7 -1.1 0.7
v 1.5 -1.1 0.7
v 1.5 -1.1 1.1
v -1.7 -1.1 1.1
v -1.3 -1.1 -0.7
v 1.5 -1.1 -0.7
v 1.5 -1.1 0.7
v -1.3 -1.1 0.7
v -1.7 -1.1 -1.1
v -1.7 -1.1 -0.7
v -1.7 -0.9 -0.7
v -1.7 -0.9 -1.1
v -1.7 -1.1 0.7
v -1.7 -1.1 1.1
v -1.7 -0.9 1.1
v -1.7 -0.9 0.7
v -1.5 -0.9 -1.1
v -1.5 -0.9 -0.7
v -1.5 1.1 -0.7
v -1.5 1.1 -1.1
v -1.5 -0.9 0.7
v -1.5 -0.9 1.1
v -1.5 1.1 1.1
v -1.5 1.1 0.7
v -1.3 -1.1 -0.7
v -1.3 -1.1 0.7
v -1.3 1.1 0.7
v -1.3 1.1 -0.7
v 1.5 -1.1 -1.1
v 1.5 1.1 -1.1
v 1.5 1.1 1.1
v 1.5 -1.1 1.1
v -1.7 -1.1 -0.7
v -1.3 -1.1 -0.7
v -1.3 -0.9 -0.7
v -1.7 -0.9 -0.7
v -1.7 -1.1 1.1
v 1.5 -1.1 1.1
v 1.5 -0.9 1.1
v -1.7 -0.9 1.1
v -1.5 -0.9 -0.7
v -1.3 -0.9 -0.7
v -1.3 1.1 -0.7
v -1.5 1.1 -0.7
v -1.5 -0.9 1.1
v 1.5 -0.9 1.1
v 1.5 1.1 1.1
v -1.5 1.1 1.1
v -1.7 -1.1 -1.1
v -1.7 -0.9 -1.1
v 1.5 -0.9 -1.1
v 1.5 -1.1 -1.1
v -1.7 -1.1 0.7
v -1.7 -0.9 0.7
v -1.3 -0.9 0.7
v -1.3 -1.1 0.7
v -1.5 -0.9 -1.1
v -1.5 1.1 -1.1
v 1.5 1.1 -1.1
v 1.5 -0.9 -1.1
v -1.5 -0.9 0.7
v -1.5 1.1 0.7
v -1.3 1.1 0.7
v -1.3 -0.9 0.7

vn 0 0.9999999 0
vn 0 0.9999999 0
vn 0 0.9999999 0
vn 0 0.9999999 0
vn 0 0.9999999 0
vn 0 0.9999999 0
vn 0 0.9999999 0
vn 0 0.9999999 0
vn 0 1 0
vn 0 1 0
vn 0 1 0
vn 0 1 0
vn 0 1 0
vn 0 1 0
vn 0 1 0
vn 0 1 0
vn 0 0.9999999 0
vn 0 0.9999999 0
vn 0 0.9999999 0
vn 0 0.9999999 0
vn 0 -1 0
vn 0 -1 0
vn 0 -1 0
vn 0 -1 0
vn 0 -1 0
vn 0 -1 0
vn 0 -1 0
vn 0 -1 0
vn 0 -0.9999999 0
vn 0 -0.9999999 0
vn 0 -0.9999999 0
vn 0 -0.9999999 0
vn -1 0 0
vn -1 0 0
vn -1 0 0
vn -1 0 0
vn -1 0 0
vn -1 0 0
vn -1 0 0
vn -1 0 0
vn -1 0 0
vn -1 0 0
vn -1 0 0
vn -1 0 0
vn -1 0 0
vn -1 0 0
vn -1 0 0
vn -1 0 0
vn -0.9999999 0 0
vn -0.9999999 0 0
vn -0.9999999 0 0
vn -0.9999999 0 0
vn 1 0 0
vn 1 0 0
vn 1 0 0
vn 1 0 0
vn 0 0 1
vn 0 0 1
vn 0 0 1
vn 0 0 1
vn 0 0 1
vn 0 0 1
vn 0 0 1
vn 0 0 1
vn 0 0 1
vn 0 0 1
vn 0 0 1
vn 0 0 1
vn 0 0 1
vn 0 0 1
vn 0 0 1
vn 0 0 1
vn 0 0 -1
vn 0 0 -1
vn 0 0 -1
vn 0 0 -1
vn 0 0 -1
vn 0 0 -1
vn 0 0 -1
vn 0 0 -1
vn 0 0 -1
vn 0 0 -1
vn 0 0 -1
vn 0 0 -1
vn 0 0 -1
vn 0 0 -1
vn 0 0 -1
vn 0 0 -1

vt 0.484375 0.421875
vt 0.515625 0.421875
vt 0.515625 0.4375
vt 0.484375 0.4375
vt 0.546875 0.390625
vt 0.578125 0.390625
vt 0.578125 0.40625
vt 0.546875 0.40625
vt 0.234375 0.015625
vt 0.265625 0.015625
vt 0.265625 0.25
vt 0.234375 0.25
vt 0.296875 0.015625
vt 0.328125 0.015625
vt 0.328125 0.25
vt 0.296875 0.25
vt 0.734375 0.015625
vt 0.84375 0.015625
vt 0.84375 0.234375
vt 0.734375 0.234375
vt 0.015625 0.015625
vt 0.015625 0.265625
vt 0.046875 0.265625
vt 0.046875 0.015625
vt 0.078125 0.015625
vt 0.078125 0.265625
vt 0.109375 0.265625
vt 0.109375 0.015625
vt 0.875 0.015625
vt 0.875 0.234375
vt 0.984375 0.234375
vt 0.984375 0.015625
vt 0.546875 0.34375
vt 0.578125 0.34375
vt 0.578125 0.359375
vt 0.546875 0.359375
vt 0.546875 0.296875
vt 0.578125 0.296875
vt 0.578125 0.3125
vt 0.546875 0.3125
vt 0.359375 0.296875
vt 0.390625 0.296875
vt 0.390625 0.453125
vt 0.359375 0.453125
vt 0.421875 0.296875
vt 0.453125 0.296875
vt 0.453125 0.453125
vt 0.421875 0.453125
vt 0.015625 0.296875
vt 0.125 0.296875
vt 0.125 0.46875
vt 0.015625 0.46875
vt 0.15625 0.296875
vt 0.15625 0.46875
vt 0.328125 0.46875
vt 0.328125 0.296875
vt 0.484375 0.359375
vt 0.484375 0.390625
vt 0.5 0.390625
vt 0.5 0.359375
vt 0.1875 0.015625
vt 0.1875 0.265625
vt 0.203125 0.265625
vt 0.203125 0.015625
vt 0.546875 0.4375
vt 0.546875 0.453125
vt 0.703125 0.453125
vt 0.703125 0.4375
vt 0.359375 0.015625
vt 0.359375 0.25
vt 0.515625 0.25
vt 0.515625 0.015625
vt 0.140625 0.015625
vt 0.15625 0.015625
vt 0.15625 0.265625
vt 0.140625 0.265625
vt 0.484375 0.296875
vt 0.5 0.296875
vt 0.5 0.328125
vt 0.484375 0.328125
vt 0.546875 0.015625
vt 0.703125 0.015625
vt 0.703125 0.25
vt 0.546875 0.25
vt 0.734375 0.296875
vt 0.890625 0.296875
vt 0.890625 0.3125
vt 0.734375 0.3125

usemtl Mesh
usemap Mesh
f 1/1/1 2/2/2 3/3/3
f 1/1/1 3/3/3 4/4/4
f 5/5/5 6/6/6 7/7/7
f 5/5/5 7/7/7 8/8/8
f 9/9/9 10/10/10 11/11/11
f 9/9/9 11/11/11 12/12/12
f 13/13/13 14/14/14 15/15/15
f 13/13/13 15/15/15 16/16/16
f 17/17/17 18/18/18 19/19/19
f 17/17/17 19/19/19 20/20/20
f 21/21/21 22/22/22 23/23/23
f 21/21/21 23/23/23 24/24/24
f 25/25/25 26/26/26 27/27/27
f 25/25/25 27/27/27 28/28/28
f 29/29/29 30/30/30 31/31/31
f 29/29/29 31/31/31 32/32/32
f 33/33/33 34/34/34 35/35/35
f 33/33/33 35/35/35 36/36/36
f 37/37/37 38/38/38 39/39/39
f 37/37/37 39/39/39 40/40/40
f 41/41/41 42/42/42 43/43/43
f 41/41/41 43/43/43 44/44/44
f 45/45/45 46/46/46 47/47/47
f 45/45/45 47/47/47 48/48/48
f 49/49/49 50/50/50 51/51/51
f 49/49/49 51/51/51 52/52/52
f 53/53/53 54/54/54 55/55/55
f 53/53/53 55/55/55 56/56/56
f 57/57/57 58/58/58 59/59/59
f 57/57/57 59/59/59 60/60/60
f 61/61/61 62/62/62 63/63/63
f 61/61/61 63/63/63 64/64/64
f 65/65/65 66/66/66 67/67/67
f 65/65/65 67/67/67 68/68/68
f 69/69/69 70/70/70 71/71/71
f 69/69/69 71/71/71 72/72/72
f 73/73/73 74/74/74 75/75/75
f 73/73/73 75/75/75 76/76/76
f 77/77/77 78/78/78 79/79/79
f 77/77/77 79/79/79 80/80/80
f 81/81/81 82/82/82 83/83/83
f 81/81/81 83/83/83 84/84/84
f 85/85/85 86/86/86 87/87/87
f 85/85/85 87/87/87 88/88/88
