Object_temple_BG29
group Object_temple_BG29
g Object_temple_BG29
v -0.3 2.5 -0.3
v -0.3 2.5 0.1
v 0.1 2.5 0.1
v 0.1 2.5 -0.3
v -0.3 -2.7 -0.3
v 0.1 -2.7 -0.3
v 0.1 -2.7 0.1
v -0.3 -2.7 0.1
v -0.3 -2.7 -0.3
v -0.3 -2.7 0.1
v -0.3 2.5 0.1
v -0.3 2.5 -0.3
v 0.1 -2.7 -0.3
v 0.1 2.5 -0.3
v 0.1 2.5 0.1
v 0.1 -2.7 0.1
v -0.3 -2.7 0.1
v 0.1 -2.7 0.1
v 0.1 2.5 0.1
v -0.3 2.5 0.1
v -0.3 -2.7 -0.3
v -0.3 2.5 -0.3
v 0.1 2.5 -0.3
v 0.1 -2.7 -0.3

vn 0 1 0
vn 0 1 0
vn 0 1 0
vn 0 1 0
vn 0 -1 0
vn 0 -1 0
vn 0 -1 0
vn 0 -1 0
vn -1 0 0
vn -1 0 0
vn -1 0 0
vn -1 0 0
vn 1 0 0
vn 1 0 0
vn 1 0 0
vn 1 0 0
vn 0 0 1
vn 0 0 1
vn 0 0 1
vn 0 0 1
vn 0 0 -1
vn 0 0 -1
vn 0 0 -1
vn 0 0 -1

vt 0.28125 0.02777778
vt 0.34375 0.02777778
vt 0.34375 0.08333334
vt 0.28125 0.08333334
vt 0.28125 0.1388889
vt 0.28125 0.1944444
vt 0.34375 0.1944444
vt 0.34375 0.1388889
vt 0.03125 0.02777778
vt 0.09375 0.02777778
vt 0.09375 0.75
vt 0.03125 0.75
vt 0.15625 0.02777778
vt 0.15625 0.75
vt 0.21875 0.75
vt 0.21875 0.02777778
vt 0.03125 0.8055556
vt 0.03125 0.8611112
vt 0.84375 0.8611112
vt 0.84375 0.8055556
vt 0.03125 0.9166667
vt 0.84375 0.9166667
vt 0.84375 0.9722223
vt 0.03125 0.9722223

usemtl Mesh
usemap Mesh
f 1/1/1 2/2/2 3/3/3
f 1/1/1 3/3/3 4/4/4
f 5/5/5 6/6/6 7/7/7
f 5/5/5 7/7/7 8/8/8
f 9/9/9 10/10/10 11/11/11
f 9/9/9 11/11/11 12/12/12
f 13/13/13 14/14/14 15/15/15
f 13/13/13 15/15/15 16/16/16
f 17/17/17 18/18/18 19/19/19
f 17/17/17 19/19/19 20/20/20
f 21/21/21 22/22/22 23/23/23
f 21/21/21 23/23/23 24/24/24
