g Mesh
v -3.3 3.1 -1.7
v -3.3 3.1 2.3
v 0.7 3.1 2.3
v 0.7 3.1 -1.7
v -3.3 -3.9 -1.7
v 0.7 -3.9 -1.7
v 0.7 -3.9 -0.5
v -3.3 -3.9 -0.5
v -3.3 -3.9 -0.5
v -2.1 -3.9 -0.5
v -2.1 -3.9 2.3
v -3.3 -3.9 2.3
v -2.1 -7.1 -0.5
v -0.5 -7.1 -0.5
v -0.5 -7.1 1.1
v -2.1 -7.1 1.1
v -2.1 -3.9 1.1
v 0.7 -3.9 1.1
v 0.7 -3.9 2.3
v -2.1 -3.9 2.3
v -0.5 -3.9 -0.5
v 0.7 -3.9 -0.5
v 0.7 -3.9 1.1
v -0.5 -3.9 1.1
v -3.3 -3.9 -1.7
v -3.3 -3.9 2.3
v -3.3 3.1 2.3
v -3.3 3.1 -1.7
v -2.1 -7.1 -0.5
v -2.1 -7.1 1.1
v -2.1 -3.9 1.1
v -2.1 -3.9 -0.5
v -0.5 -7.1 -0.5
v -0.5 -3.9 -0.5
v -0.5 -3.9 1.1
v -0.5 -7.1 1.1
v 0.7 -3.9 -1.7
v 0.7 3.1 -1.7
v 0.7 3.1 2.3
v 0.7 -3.9 2.3
v -3.3 -3.9 2.3
v 0.7 -3.9 2.3
v 0.7 3.1 2.3
v -3.3 3.1 2.3
v -2.1 -7.1 1.1
v -0.5 -7.1 1.1
v -0.5 -3.9 1.1
v -2.1 -3.9 1.1
v -3.3 -3.9 -1.7
v -3.3 3.1 -1.7
v 0.7 3.1 -1.7
v 0.7 -3.9 -1.7
v -2.1 -7.1 -0.5
v -2.1 -3.9 -0.5
v -0.5 -3.9 -0.5
v -0.5 -7.1 -0.5

vn 0 1 0
vn 0 1 0
vn 0 1 0
vn 0 1 0
vn 0 -1 0
vn 0 -1 0
vn 0 -1 0
vn 0 -1 0
vn 0 -1 0
vn 0 -1 0
vn 0 -1 0
vn 0 -1 0
vn 0 -1 0
vn 0 -1 0
vn 0 -1 0
vn 0 -1 0
vn 0 -1 0
vn 0 -1 0
vn 0 -1 0
vn 0 -1 0
vn 0 -1 0
vn 0 -1 0
vn 0 -1 0
vn 0 -1 0
vn -1 0 0
vn -1 0 0
vn -1 0 0
vn -1 0 0
vn -1 0 0
vn -1 0 0
vn -1 0 0
vn -1 0 0
vn 1 0 0
vn 1 0 0
vn 1 0 0
vn 1 0 0
vn 1 0 0
vn 1 0 0
vn 1 0 0
vn 1 0 0
vn 0 0 1
vn 0 0 1
vn 0 0 1
vn 0 0 1
vn 0 0 1
vn 0 0 1
vn 0 0 1
vn 0 0 1
vn 0 0 -1
vn 0 0 -1
vn 0 0 -1
vn 0 0 -1
vn 0 0 -1
vn 0 0 -1
vn 0 0 -1
vn 0 0 -1

vt 0.3515625 0.0078125
vt 0.5078125 0.0078125
vt 0.5078125 0.1640625
vt 0.3515625 0.1640625
vt 0.5234375 0.0078125
vt 0.5234375 0.1640625
vt 0.5703125 0.1640625
vt 0.5703125 0.0078125
vt 0.359375 0.296875
vt 0.359375 0.34375
vt 0.46875 0.34375
vt 0.46875 0.296875
vt 0.6328125 0.1796875
vt 0.6328125 0.2421875
vt 0.6953125 0.2421875
vt 0.6953125 0.1796875
vt 0.296875 0.296875
vt 0.296875 0.40625
vt 0.34375 0.40625
vt 0.34375 0.296875
vt 0.7109375 0.1796875
vt 0.7109375 0.2265625
vt 0.7734375 0.2265625
vt 0.7734375 0.1796875
vt 0.0078125 0.0078125
vt 0.1640625 0.0078125
vt 0.1640625 0.28125
vt 0.0078125 0.28125
vt 0.875 0.1484375
vt 0.9375 0.1484375
vt 0.9375 0.2734375
vt 0.875 0.2734375
vt 0.875 0.0078125
vt 0.875 0.1328125
vt 0.9375 0.1328125
vt 0.9375 0.0078125
vt 0.1796875 0.0078125
vt 0.1796875 0.28125
vt 0.3359375 0.28125
vt 0.3359375 0.0078125
vt 0.0078125 0.296875
vt 0.0078125 0.453125
vt 0.28125 0.453125
vt 0.28125 0.296875
vt 0.3515625 0.1796875
vt 0.3515625 0.2421875
vt 0.4765625 0.2421875
vt 0.4765625 0.1796875
vt 0.5859375 0.0078125
vt 0.859375 0.0078125
vt 0.859375 0.1640625
vt 0.5859375 0.1640625
vt 0.4921875 0.1796875
vt 0.6171875 0.1796875
vt 0.6171875 0.2421875
vt 0.4921875 0.2421875

usemtl Mesh
usemap Mesh
f 1/1/1 2/2/2 3/3/3
f 1/1/1 3/3/3 4/4/4
f 5/5/5 6/6/6 7/7/7
f 5/5/5 7/7/7 8/8/8
f 9/9/9 10/10/10 11/11/11
f 9/9/9 11/11/11 12/12/12
f 13/13/13 14/14/14 15/15/15
f 13/13/13 15/15/15 16/16/16
f 17/17/17 18/18/18 19/19/19
f 17/17/17 19/19/19 20/20/20
f 21/21/21 22/22/22 23/23/23
f 21/21/21 23/23/23 24/24/24
f 25/25/25 26/26/26 27/27/27
f 25/25/25 27/27/27 28/28/28
f 29/29/29 30/30/30 31/31/31
f 29/29/29 31/31/31 32/32/32
f 33/33/33 34/34/34 35/35/35
f 33/33/33 35/35/35 36/36/36
f 37/37/37 38/38/38 39/39/39
f 37/37/37 39/39/39 40/40/40
f 41/41/41 42/42/42 43/43/43
f 41/41/41 43/43/43 44/44/44
f 45/45/45 46/46/46 47/47/47
f 45/45/45 47/47/47 48/48/48
f 49/49/49 50/50/50 51/51/51
f 49/49/49 51/51/51 52/52/52
f 53/53/53 54/54/54 55/55/55
f 53/53/53 55/55/55 56/56/56
