group Push_Box_4
g Push_Box_4
v -1.1 -3.9 -0.9
v -1.1 -3.9 0.7
v -0.9 -3.9 0.7
v -0.9 -3.9 -0.9
v -1.1 3.9 -1.1
v -1.1 3.9 -0.9
v 0.9 3.9 -0.9
v 0.9 3.9 -1.1
v -1.1 3.9 -0.9
v -1.1 3.9 0.9
v -0.9 3.9 0.9
v -0.9 3.9 -0.9
v -0.9 -3.9 -1.1
v -0.9 -3.9 -0.9
v 0.7 -3.9 -0.9
v 0.7 -3.9 -1.1
v -0.9 -3.9 0.7
v -0.9 -3.9 0.9
v 0.7 -3.9 0.9
v 0.7 -3.9 0.7
v -0.9 3.7 -0.9
v -0.9 3.7 0.7
v 0.7 3.7 0.7
v 0.7 3.7 -0.9
v -0.9 3.9 0.7
v -0.9 3.9 0.9
v 0.9 3.9 0.9
v 0.9 3.9 0.7
v 0.7 -3.9 -0.9
v 0.7 -3.9 0.7
v 0.9 -3.9 0.7
v 0.9 -3.9 -0.9
v 0.7 3.9 -0.9
v 0.7 3.9 0.7
v 0.9 3.9 0.7
v 0.9 3.9 -0.9
v -1.1 -4.1 -1.1
v 0.9 -4.1 -1.1
v 0.9 -4.1 0.9
v -1.1 -4.1 0.9
v -1.1 3.7 -0.9
v -0.9 3.7 -0.9
v -0.9 3.7 0.7
v -1.1 3.7 0.7
v -0.9 3.7 -1.1
v 0.7 3.7 -1.1
v 0.7 3.7 -0.9
v -0.9 3.7 -0.9
v -0.9 3.7 0.7
v 0.7 3.7 0.7
v 0.7 3.7 0.9
v -0.9 3.7 0.9
v 0.7 3.7 -0.9
v 0.9 3.7 -0.9
v 0.9 3.7 0.7
v 0.7 3.7 0.7
v -1.1 -4.1 -1.1
v -1.1 -4.1 -0.9
v -1.1 3.9 -0.9
v -1.1 3.9 -1.1
v -1.1 -4.1 -0.9
v -1.1 -4.1 0.9
v -1.1 -3.9 0.9
v -1.1 -3.9 -0.9
v -1.1 -3.9 0.7
v -1.1 -3.9 0.9
v -1.1 3.9 0.9
v -1.1 3.9 0.7
v -1.1 3.7 -0.9
v -1.1 3.7 0.7
v -1.1 3.9 0.7
v -1.1 3.9 -0.9
v -0.9 -3.9 -0.9
v -0.9 -3.9 0.7
v -0.9 3.7 0.7
v -0.9 3.7 -0.9
v 0.7 -3.9 -1.1
v 0.7 -3.9 -0.9
v 0.7 3.7 -0.9
v 0.7 3.7 -1.1
v 0.7 -3.9 0.7
v 0.7 -3.9 0.9
v 0.7 3.7 0.9
v 0.7 3.7 0.7
v 0.7 3.7 -0.9
v 0.7 3.7 0.7
v 0.7 3.9 0.7
v 0.7 3.9 -0.9
v -0.9 -3.9 -1.1
v -0.9 3.7 -1.1
v -0.9 3.7 -0.9
v -0.9 -3.9 -0.9
v -0.9 -3.9 0.7
v -0.9 3.7 0.7
v -0.9 3.7 0.9
v -0.9 -3.9 0.9
v -0.9 3.7 -0.9
v -0.9 3.9 -0.9
v -0.9 3.9 0.7
v -0.9 3.7 0.7
v 0.7 -3.9 -0.9
v 0.7 3.7 -0.9
v 0.7 3.7 0.7
v 0.7 -3.9 0.7
v 0.9 -4.1 -1.1
v 0.9 3.9 -1.1
v 0.9 3.9 -0.9
v 0.9 -4.1 -0.9
v 0.9 -4.1 -0.9
v 0.9 -3.9 -0.9
v 0.9 -3.9 0.9
v 0.9 -4.1 0.9
v 0.9 -3.9 0.7
v 0.9 3.9 0.7
v 0.9 3.9 0.9
v 0.9 -3.9 0.9
v 0.9 3.7 -0.9
v 0.9 3.9 -0.9
v 0.9 3.9 0.7
v 0.9 3.7 0.7
v -1.1 -4.1 0.9
v 0.9 -4.1 0.9
v 0.9 -3.9 0.9
v -1.1 -3.9 0.9
v -1.1 -3.9 -0.9
v -0.9 -3.9 -0.9
v -0.9 3.7 -0.9
v -1.1 3.7 -0.9
v -1.1 -3.9 0.9
v -0.9 -3.9 0.9
v -0.9 3.9 0.9
v -1.1 3.9 0.9
v -0.9 -3.9 0.7
v 0.7 -3.9 0.7
v 0.7 3.7 0.7
v -0.9 3.7 0.7
v -0.9 3.7 -0.9
v 0.7 3.7 -0.9
v 0.7 3.9 -0.9
v -0.9 3.9 -0.9
v -0.9 3.7 0.9
v 0.9 3.7 0.9
v 0.9 3.9 0.9
v -0.9 3.9 0.9
v 0.7 -3.9 -0.9
v 0.9 -3.9 -0.9
v 0.9 3.7 -0.9
v 0.7 3.7 -0.9
v 0.7 -3.9 0.9
v 0.9 -3.9 0.9
v 0.9 3.7 0.9
v 0.7 3.7 0.9
v -1.1 -4.1 -1.1
v -1.1 -3.9 -1.1
v 0.9 -3.9 -1.1
v 0.9 -4.1 -1.1
v -1.1 -3.9 -1.1
v -1.1 3.9 -1.1
v -0.9 3.9 -1.1
v -0.9 -3.9 -1.1
v -1.1 -3.9 0.7
v -1.1 3.7 0.7
v -0.9 3.7 0.7
v -0.9 -3.9 0.7
v -0.9 -3.9 -0.9
v -0.9 3.7 -0.9
v 0.7 3.7 -0.9
v 0.7 -3.9 -0.9
v -0.9 3.7 -1.1
v -0.9 3.9 -1.1
v 0.9 3.9 -1.1
v 0.9 3.7 -1.1
v -0.9 3.7 0.7
v -0.9 3.9 0.7
v 0.7 3.9 0.7
v 0.7 3.7 0.7
v 0.7 -3.9 -1.1
v 0.7 3.7 -1.1
v 0.9 3.7 -1.1
v 0.9 -3.9 -1.1
v 0.7 -3.9 0.7
v 0.7 3.7 0.7
v 0.9 3.7 0.7
v 0.9 -3.9 0.7

vn 0 1 0
vn 0 1 0
vn 0 1 0
vn 0 1 0
vn 0 1 0
vn 0 1 0
vn 0 1 0
vn 0 1 0
vn 0 1 0
vn 0 1 0
vn 0 1 0
vn 0 1 0
vn 0 1 0
vn 0 1 0
vn 0 1 0
vn 0 1 0
vn 0 1 0
vn 0 1 0
vn 0 1 0
vn 0 1 0
vn 0 1 0
vn 0 1 0
vn 0 1 0
vn 0 1 0
vn 0 1 0
vn 0 1 0
vn 0 1 0
vn 0 1 0
vn 0 1 0
vn 0 1 0
vn 0 1 0
vn 0 1 0
vn 0 1 0
vn 0 1 0
vn 0 1 0
vn 0 1 0
vn 0 -1 0
vn 0 -1 0
vn 0 -1 0
vn 0 -1 0
vn 0 -1 0
vn 0 -1 0
vn 0 -1 0
vn 0 -1 0
vn 0 -1 0
vn 0 -1 0
vn 0 -1 0
vn 0 -1 0
vn 0 -1 0
vn 0 -1 0
vn 0 -1 0
vn 0 -1 0
vn 0 -1 0
vn 0 -1 0
vn 0 -1 0
vn 0 -1 0
vn -1 0 0
vn -1 0 0
vn -1 0 0
vn -1 0 0
vn -1 0 0
vn -1 0 0
vn -1 0 0
vn -1 0 0
vn -1 0 0
vn -1 0 0
vn -1 0 0
vn -1 0 0
vn -1 0 0
vn -1 0 0
vn -1 0 0
vn -1 0 0
vn -0.9999999 0 0
vn -0.9999999 0 0
vn -0.9999999 0 0
vn -0.9999999 0 0
vn -1 0 0
vn -1 0 0
vn -1 0 0
vn -1 0 0
vn -1 0 0
vn -1 0 0
vn -1 0 0
vn -1 0 0
vn -1 0 0
vn -1 0 0
vn -1 0 0
vn -1 0 0
vn 1 0 0
vn 1 0 0
vn 1 0 0
vn 1 0 0
vn 1 0 0
vn 1 0 0
vn 1 0 0
vn 1 0 0
vn 1 0 0
vn 1 0 0
vn 1 0 0
vn 1 0 0
vn 0.9999999 0 0
vn 0.9999999 0 0
vn 0.9999999 0 0
vn 0.9999999 0 0
vn 1 0 0
vn 1 0 0
vn 1 0 0
vn 1 0 0
vn 1 0 0
vn 1 0 0
vn 1 0 0
vn 1 0 0
vn 1 0 0
vn 1 0 0
vn 1 0 0
vn 1 0 0
vn 1 0 0
vn 1 0 0
vn 1 0 0
vn 1 0 0
vn 0 0 1
vn 0 0 1
vn 0 0 1
vn 0 0 1
vn 0 0 1
vn 0 0 1
vn 0 0 1
vn 0 0 1
vn 0 0 1
vn 0 0 1
vn 0 0 1
vn 0 0 1
vn 0 0 0.9999999
vn 0 0 0.9999999
vn 0 0 0.9999999
vn 0 0 0.9999999
vn 0 0 1
vn 0 0 1
vn 0 0 1
vn 0 0 1
vn 0 0 1
vn 0 0 1
vn 0 0 1
vn 0 0 1
vn 0 0 1
vn 0 0 1
vn 0 0 1
vn 0 0 1
vn 0 0 1
vn 0 0 1
vn 0 0 1
vn 0 0 1
vn 0 0 -1
vn 0 0 -1
vn 0 0 -1
vn 0 0 -1
vn 0 0 -1
vn 0 0 -1
vn 0 0 -1
vn 0 0 -1
vn 0 0 -1
vn 0 0 -1
vn 0 0 -1
vn 0 0 -1
vn 0 0 -0.9999999
vn 0 0 -0.9999999
vn 0 0 -0.9999999
vn 0 0 -0.9999999
vn 0 0 -1
vn 0 0 -1
vn 0 0 -1
vn 0 0 -1
vn 0 0 -1
vn 0 0 -1
vn 0 0 -1
vn 0 0 -1
vn 0 0 -1
vn 0 0 -1
vn 0 0 -1
vn 0 0 -1
vn 0 0 -1
vn 0 0 -1
vn 0 0 -1
vn 0 0 -1

vt 0.734375 0.2421875
vt 0.796875 0.2421875
vt 0.796875 0.25
vt 0.734375 0.25
vt 0.3515625 0.1953125
vt 0.359375 0.1953125
vt 0.359375 0.2734375
vt 0.3515625 0.2734375
vt 0.890625 0.1484375
vt 0.9609375 0.1484375
vt 0.9609375 0.15625
vt 0.890625 0.15625
vt 0.7109375 0.0859375
vt 0.71875 0.0859375
vt 0.71875 0.1484375
vt 0.7109375 0.1484375
vt 0.7109375 0.2421875
vt 0.71875 0.2421875
vt 0.71875 0.3046875
vt 0.7109375 0.3046875
vt 0.734375 0.0078125
vt 0.796875 0.0078125
vt 0.796875 0.0703125
vt 0.734375 0.0703125
vt 0.375 0.1875
vt 0.3828125 0.1875
vt 0.3828125 0.2578125
vt 0.375 0.2578125
vt 0.890625 0.125
vt 0.953125 0.125
vt 0.953125 0.1328125
vt 0.890625 0.1328125
vt 0.890625 0.1015625
vt 0.953125 0.1015625
vt 0.953125 0.109375
vt 0.890625 0.109375
vt 0.375 0.0078125
vt 0.375 0.0859375
vt 0.453125 0.0859375
vt 0.453125 0.0078125
vt 0.890625 0.078125
vt 0.890625 0.0859375
vt 0.953125 0.0859375
vt 0.953125 0.078125
vt 0.734375 0.1640625
vt 0.734375 0.2265625
vt 0.7421875 0.2265625
vt 0.7421875 0.1640625
vt 0.734375 0.0859375
vt 0.734375 0.1484375
vt 0.7421875 0.1484375
vt 0.7421875 0.0859375
vt 0.890625 0.0546875
vt 0.890625 0.0625
vt 0.953125 0.0625
vt 0.953125 0.0546875
vt 0.03125 0.0078125
vt 0.0390625 0.0078125
vt 0.0390625 0.3203125
vt 0.03125 0.3203125
vt 0.890625 0.03125
vt 0.9609375 0.03125
vt 0.9609375 0.0390625
vt 0.890625 0.0390625
vt 0.078125 0.0078125
vt 0.0859375 0.0078125
vt 0.0859375 0.3125
vt 0.078125 0.3125
vt 0.890625 0.0078125
vt 0.953125 0.0078125
vt 0.953125 0.015625
vt 0.890625 0.015625
vt 0.2734375 0.0078125
vt 0.3359375 0.0078125
vt 0.3359375 0.3046875
vt 0.2734375 0.3046875
vt 0.25 0.0078125
vt 0.2578125 0.0078125
vt 0.2578125 0.3046875
vt 0.25 0.3046875
vt 0.2265625 0.0078125
vt 0.234375 0.0078125
vt 0.234375 0.3046875
vt 0.2265625 0.3046875
vt 0.8125 0.3125
vt 0.875 0.3125
vt 0.875 0.3203125
vt 0.8125 0.3203125
vt 0.1015625 0.0078125
vt 0.1015625 0.3046875
vt 0.109375 0.3046875
vt 0.109375 0.0078125
vt 0.203125 0.0078125
vt 0.203125 0.3046875
vt 0.2109375 0.3046875
vt 0.2109375 0.0078125
vt 0.734375 0.3125
vt 0.734375 0.3203125
vt 0.796875 0.3203125
vt 0.796875 0.3125
vt 0.125 0.0078125
vt 0.125 0.3046875
vt 0.1875 0.3046875
vt 0.1875 0.0078125
vt 0.0078125 0.0078125
vt 0.0078125 0.3203125
vt 0.015625 0.3203125
vt 0.015625 0.0078125
vt 0.734375 0.2890625
vt 0.734375 0.296875
vt 0.8046875 0.296875
vt 0.8046875 0.2890625
vt 0.0546875 0.0078125
vt 0.0546875 0.3125
vt 0.0625 0.3125
vt 0.0625 0.0078125
vt 0.734375 0.265625
vt 0.734375 0.2734375
vt 0.796875 0.2734375
vt 0.796875 0.265625
vt 0.3515625 0.1015625
vt 0.3515625 0.1796875
vt 0.359375 0.1796875
vt 0.359375 0.1015625
vt 0.0078125 0.4140625
vt 0.0078125 0.421875
vt 0.3046875 0.421875
vt 0.3046875 0.4140625
vt 0.3203125 0.3359375
vt 0.3203125 0.34375
vt 0.625 0.34375
vt 0.625 0.3359375
vt 0.3984375 0.1875
vt 0.3984375 0.25
vt 0.6953125 0.25
vt 0.6953125 0.1875
vt 0.7109375 0.1640625
vt 0.7109375 0.2265625
vt 0.71875 0.2265625
vt 0.71875 0.1640625
vt 0.3984375 0.1015625
vt 0.3984375 0.171875
vt 0.40625 0.171875
vt 0.40625 0.1015625
vt 0.3203125 0.3828125
vt 0.3203125 0.390625
vt 0.6171875 0.390625
vt 0.6171875 0.3828125
vt 0.3515625 0.3125
vt 0.3515625 0.3203125
vt 0.6484375 0.3203125
vt 0.6484375 0.3125
vt 0.3515625 0.0078125
vt 0.359375 0.0078125
vt 0.359375 0.0859375
vt 0.3515625 0.0859375
vt 0.3203125 0.359375
vt 0.625 0.359375
vt 0.625 0.3671875
vt 0.3203125 0.3671875
vt 0.3515625 0.2890625
vt 0.6484375 0.2890625
vt 0.6484375 0.296875
vt 0.3515625 0.296875
vt 0.0078125 0.3359375
vt 0.3046875 0.3359375
vt 0.3046875 0.3984375
vt 0.0078125 0.3984375
vt 0.375 0.1015625
vt 0.3828125 0.1015625
vt 0.3828125 0.171875
vt 0.375 0.171875
vt 0.7109375 0.0078125
vt 0.71875 0.0078125
vt 0.71875 0.0703125
vt 0.7109375 0.0703125
vt 0.6328125 0.3828125
vt 0.9296875 0.3828125
vt 0.9296875 0.390625
vt 0.6328125 0.390625
vt 0.3203125 0.4140625
vt 0.6171875 0.4140625
vt 0.6171875 0.421875
vt 0.3203125 0.421875

usemtl Mesh
usemap Mesh
f 1/1/1 2/2/2 3/3/3
f 1/1/1 3/3/3 4/4/4
f 5/5/5 6/6/6 7/7/7
f 5/5/5 7/7/7 8/8/8
f 9/9/9 10/10/10 11/11/11
f 9/9/9 11/11/11 12/12/12
f 13/13/13 14/14/14 15/15/15
f 13/13/13 15/15/15 16/16/16
f 17/17/17 18/18/18 19/19/19
f 17/17/17 19/19/19 20/20/20
f 21/21/21 22/22/22 23/23/23
f 21/21/21 23/23/23 24/24/24
f 25/25/25 26/26/26 27/27/27
f 25/25/25 27/27/27 28/28/28
f 29/29/29 30/30/30 31/31/31
f 29/29/29 31/31/31 32/32/32
f 33/33/33 34/34/34 35/35/35
f 33/33/33 35/35/35 36/36/36
f 37/37/37 38/38/38 39/39/39
f 37/37/37 39/39/39 40/40/40
f 41/41/41 42/42/42 43/43/43
f 41/41/41 43/43/43 44/44/44
f 45/45/45 46/46/46 47/47/47
f 45/45/45 47/47/47 48/48/48
f 49/49/49 50/50/50 51/51/51
f 49/49/49 51/51/51 52/52/52
f 53/53/53 54/54/54 55/55/55
f 53/53/53 55/55/55 56/56/56
f 57/57/57 58/58/58 59/59/59
f 57/57/57 59/59/59 60/60/60
f 61/61/61 62/62/62 63/63/63
f 61/61/61 63/63/63 64/64/64
f 65/65/65 66/66/66 67/67/67
f 65/65/65 67/67/67 68/68/68
f 69/69/69 70/70/70 71/71/71
f 69/69/69 71/71/71 72/72/72
f 73/73/73 74/74/74 75/75/75
f 73/73/73 75/75/75 76/76/76
f 77/77/77 78/78/78 79/79/79
f 77/77/77 79/79/79 80/80/80
f 81/81/81 82/82/82 83/83/83
f 81/81/81 83/83/83 84/84/84
f 85/85/85 86/86/86 87/87/87
f 85/85/85 87/87/87 88/88/88
f 89/89/89 90/90/90 91/91/91
f 89/89/89 91/91/91 92/92/92
f 93/93/93 94/94/94 95/95/95
f 93/93/93 95/95/95 96/96/96
f 97/97/97 98/98/98 99/99/99
f 97/97/97 99/99/99 100/100/100
f 101/101/101 102/102/102 103/103/103
f 101/101/101 103/103/103 104/104/104
f 105/105/105 106/106/106 107/107/107
f 105/105/105 107/107/107 108/108/108
f 109/109/109 110/110/110 111/111/111
f 109/109/109 111/111/111 112/112/112
f 113/113/113 114/114/114 115/115/115
f 113/113/113 115/115/115 116/116/116
f 117/117/117 118/118/118 119/119/119
f 117/117/117 119/119/119 120/120/120
f 121/121/121 122/122/122 123/123/123
f 121/121/121 123/123/123 124/124/124
f 125/125/125 126/126/126 127/127/127
f 125/125/125 127/127/127 128/128/128
f 129/129/129 130/130/130 131/131/131
f 129/129/129 131/131/131 132/132/132
f 133/133/133 134/134/134 135/135/135
f 133/133/133 135/135/135 136/136/136
f 137/137/137 138/138/138 139/139/139
f 137/137/137 139/139/139 140/140/140
f 141/141/141 142/142/142 143/143/143
f 141/141/141 143/143/143 144/144/144
f 145/145/145 146/146/146 147/147/147
f 145/145/145 147/147/147 148/148/148
f 149/149/149 150/150/150 151/151/151
f 149/149/149 151/151/151 152/152/152
f 153/153/153 154/154/154 155/155/155
f 153/153/153 155/155/155 156/156/156
f 157/157/157 158/158/158 159/159/159
f 157/157/157 159/159/159 160/160/160
f 161/161/161 162/162/162 163/163/163
f 161/161/161 163/163/163 164/164/164
f 165/165/165 166/166/166 167/167/167
f 165/165/165 167/167/167 168/168/168
f 169/169/169 170/170/170 171/171/171
f 169/169/169 171/171/171 172/172/172
f 173/173/173 174/174/174 175/175/175
f 173/173/173 175/175/175 176/176/176
f 177/177/177 178/178/178 179/179/179
f 177/177/177 179/179/179 180/180/180
f 181/181/181 182/182/182 183/183/183
f 181/181/181 183/183/183 184/184/184
