# 3ds Max Wavefront OBJ Exporter v0.97b - (c)2007 guruware
# File Created: 07.09.2018 14:09:33

mtllib Special_PowerLine_Straight.mtl

#
# object Special_PowerLine_Straight_Frame
#

v  -5.0000 -4.0000 4.0000
v  -5.0000 -5.0000 3.0000
v  -5.0000 -5.0000 5.0000
v  -5.0000 -4.0000 3.0000
v  -5.0000 -5.0000 -3.0000
v  -5.0000 -4.0000 -3.0000
v  -5.0000 -5.0000 -5.0000
v  -5.0000 -4.0000 -4.0000
v  -5.0000 -3.0000 5.0000
v  -5.0000 -3.0000 4.0000
v  -5.0000 -3.0000 -4.0000
v  -5.0000 -3.0000 -5.0000
v  -5.0000 -2.0000 5.0000
v  -5.0000 -2.0000 -5.0000
v  -5.0000 -1.0000 5.0000
v  -5.0000 -1.0000 -5.0000
v  -5.0000 2.0000 5.0000
v  -5.0000 1.0000 -5.0000
v  -5.0000 1.0000 5.0000
v  -5.0000 2.0000 -5.0000
v  -5.0000 3.0000 5.0000
v  -5.0000 3.0000 4.0000
v  -5.0000 3.0000 -4.0000
v  -5.0000 3.0000 -5.0000
v  -5.0000 4.0000 4.0000
v  -5.0000 4.0000 3.0000
v  -5.0000 4.0000 -3.0000
v  -5.0000 4.0000 -4.0000
v  -5.0000 5.0000 5.0000
v  -5.0000 5.0000 3.0000
v  -5.0000 5.0000 -3.0000
v  -5.0000 5.0000 -5.0000
v  5.0000 -5.0000 5.0000
v  5.0000 -5.0000 3.0000
v  5.0000 -4.0000 4.0000
v  5.0000 -5.0000 -3.0000
v  5.0000 -4.0000 3.0000
v  5.0000 -5.0000 -5.0000
v  5.0000 -4.0000 -3.0000
v  5.0000 -4.0000 -4.0000
v  5.0000 -3.0000 5.0000
v  5.0000 -3.0000 4.0000
v  5.0000 -3.0000 -4.0000
v  5.0000 -3.0000 -5.0000
v  5.0000 -2.0000 5.0000
v  5.0000 -2.0000 -5.0000
v  5.0000 -1.0000 5.0000
v  5.0000 -1.0000 -5.0000
v  5.0000 1.0000 5.0000
v  5.0000 1.0000 -5.0000
v  5.0000 2.0000 5.0000
v  5.0000 2.0000 -5.0000
v  5.0000 3.0000 5.0000
v  5.0000 3.0000 4.0000
v  5.0000 3.0000 -4.0000
v  5.0000 3.0000 -5.0000
v  5.0000 4.0000 4.0000
v  5.0000 4.0000 3.0000
v  5.0000 4.0000 -3.0000
v  5.0000 4.0000 -4.0000
v  5.0000 5.0000 5.0000
v  5.0000 5.0000 3.0000
v  5.0000 5.0000 -3.0000
v  5.0000 5.0000 -5.0000
v  -4.0000 -4.0000 5.0000
v  -4.0000 -3.0000 5.0000
v  -4.0000 3.0000 5.0000
v  -4.0000 4.0000 5.0000
v  -3.0000 -5.0000 5.0000
v  -3.0000 -4.0000 5.0000
v  -3.0000 4.0000 5.0000
v  -3.0000 5.0000 5.0000
v  -2.0000 -1.0000 5.0000
v  -2.0000 1.0000 5.0000
v  -1.0000 -1.0000 5.0000
v  -1.0000 1.0000 5.0000
v  1.0000 -1.0000 5.0000
v  1.0000 1.0000 5.0000
v  2.0000 -1.0000 5.0000
v  2.0000 1.0000 5.0000
v  3.0000 -5.0000 5.0000
v  3.0000 -4.0000 5.0000
v  3.0000 4.0000 5.0000
v  3.0000 5.0000 5.0000
v  4.0000 -4.0000 5.0000
v  4.0000 -3.0000 5.0000
v  4.0000 3.0000 5.0000
v  4.0000 4.0000 5.0000
v  -4.0000 -4.0000 -5.0000
v  -4.0000 -3.0000 -5.0000
v  -4.0000 3.0000 -5.0000
v  -4.0000 4.0000 -5.0000
v  -3.0000 -5.0000 -5.0000
v  -3.0000 -4.0000 -5.0000
v  -3.0000 4.0000 -5.0000
v  -3.0000 5.0000 -5.0000
v  -2.0000 -1.0000 -5.0000
v  -2.0000 1.0000 -5.0000
v  -1.0000 -1.0000 -5.0000
v  -1.0000 1.0000 -5.0000
v  1.0000 -1.0000 -5.0000
v  1.0000 1.0000 -5.0000
v  2.0000 -1.0000 -5.0000
v  2.0000 1.0000 -5.0000
v  3.0000 -5.0000 -5.0000
v  3.0000 -4.0000 -5.0000
v  3.0000 4.0000 -5.0000
v  3.0000 5.0000 -5.0000
v  4.0000 -4.0000 -5.0000
v  4.0000 -3.0000 -5.0000
v  4.0000 3.0000 -5.0000
v  4.0000 4.0000 -5.0000
v  -4.0000 -5.0000 4.0000
v  -3.0000 -5.0000 4.0000
v  3.0000 -5.0000 4.0000
v  4.0000 -5.0000 4.0000
v  -4.0000 -5.0000 3.0000
v  4.0000 -5.0000 3.0000
v  -4.0000 -5.0000 -3.0000
v  4.0000 -5.0000 -3.0000
v  -4.0000 -5.0000 -4.0000
v  -3.0000 -5.0000 -4.0000
v  3.0000 -5.0000 -4.0000
v  4.0000 -5.0000 -4.0000
v  -4.0000 5.0000 4.0000
v  -3.0000 5.0000 4.0000
v  3.0000 5.0000 4.0000
v  4.0000 5.0000 4.0000
v  -4.0000 5.0000 3.0000
v  4.0000 5.0000 3.0000
v  -4.0000 5.0000 -3.0000
v  4.0000 5.0000 -3.0000
v  -4.0000 5.0000 -4.0000
v  -3.0000 5.0000 -4.0000
v  3.0000 5.0000 -4.0000
v  4.0000 5.0000 -4.0000
# 136 vertices

vn -1.0000 0.0000 -0.0000
vn 1.0000 0.0000 -0.0000
vn 0.0000 0.0000 1.0000
vn 0.0000 0.0000 -1.0000
vn 0.0000 -1.0000 -0.0000
vn 0.0000 1.0000 -0.0000
# 6 vertex normals

vt 0.3730 0.5000 0.0000
vt 0.3691 0.5000 0.0000
vt 0.4043 0.5000 0.0000
vt 0.3496 0.5000 0.0000
# 4 texture coords

g Special_PowerLine_Straight_Frame
usemtl _pipe_1palette
s 1
f 1/1/1 2/1/1 3/1/1 
f 4/2/1 5/2/1 2/2/1 
f 4/1/1 2/1/1 1/1/1 
f 6/1/1 7/1/1 5/1/1 
f 6/2/1 5/2/1 4/2/1 
f 8/1/1 7/1/1 6/1/1 
f 9/1/1 1/1/1 3/1/1 
f 10/2/1 4/2/1 1/2/1 
f 10/1/1 1/1/1 9/1/1 
f 10/2/1 6/2/1 4/2/1 
f 10/2/1 8/2/1 6/2/1 
f 11/1/1 7/1/1 8/1/1 
f 11/2/1 8/2/1 10/2/1 
f 12/1/1 7/1/1 11/1/1 
f 13/2/1 10/2/1 9/2/1 
f 13/2/1 11/2/1 10/2/1 
f 13/2/1 12/2/1 11/2/1 
f 14/2/1 12/2/1 13/2/1 
f 15/3/1 14/3/1 13/3/1 
f 16/3/1 14/3/1 15/3/1 
f 17/3/1 18/3/1 19/3/1 
f 20/3/1 18/3/1 17/3/1 
f 21/2/1 20/2/1 17/2/1 
f 22/2/1 20/2/1 21/2/1 
f 23/2/1 20/2/1 22/2/1 
f 24/2/1 20/2/1 23/2/1 
f 25/1/1 22/1/1 21/1/1 
f 25/2/1 23/2/1 22/2/1 
f 26/2/1 23/2/1 25/2/1 
f 27/2/1 23/2/1 26/2/1 
f 28/1/1 24/1/1 23/1/1 
f 28/2/1 23/2/1 27/2/1 
f 29/1/1 25/1/1 21/1/1 
f 29/1/1 26/1/1 25/1/1 
f 30/2/1 27/2/1 26/2/1 
f 30/1/1 26/1/1 29/1/1 
f 31/1/1 28/1/1 27/1/1 
f 31/2/1 27/2/1 30/2/1 
f 32/1/1 24/1/1 28/1/1 
f 32/1/1 28/1/1 31/1/1 
f 33/1/2 34/1/2 35/1/2 
f 34/2/2 36/2/2 37/2/2 
f 35/1/2 34/1/2 37/1/2 
f 36/1/2 38/1/2 39/1/2 
f 37/2/2 36/2/2 39/2/2 
f 39/1/2 38/1/2 40/1/2 
f 33/1/2 35/1/2 41/1/2 
f 35/2/2 37/2/2 42/2/2 
f 41/1/2 35/1/2 42/1/2 
f 37/2/2 39/2/2 42/2/2 
f 39/2/2 40/2/2 42/2/2 
f 40/1/2 38/1/2 43/1/2 
f 42/2/2 40/2/2 43/2/2 
f 43/1/2 38/1/2 44/1/2 
f 41/2/2 42/2/2 45/2/2 
f 42/2/2 43/2/2 45/2/2 
f 43/2/2 44/2/2 45/2/2 
f 45/2/2 44/2/2 46/2/2 
f 45/3/2 46/3/2 47/3/2 
f 47/3/2 46/3/2 48/3/2 
f 49/3/2 50/3/2 51/3/2 
f 51/3/2 50/3/2 52/3/2 
f 51/2/2 52/2/2 53/2/2 
f 53/2/2 52/2/2 54/2/2 
f 54/2/2 52/2/2 55/2/2 
f 55/2/2 52/2/2 56/2/2 
f 53/1/2 54/1/2 57/1/2 
f 54/2/2 55/2/2 57/2/2 
f 57/2/2 55/2/2 58/2/2 
f 58/2/2 55/2/2 59/2/2 
f 55/1/2 56/1/2 60/1/2 
f 59/2/2 55/2/2 60/2/2 
f 53/1/2 57/1/2 61/1/2 
f 57/1/2 58/1/2 61/1/2 
f 58/2/2 59/2/2 62/2/2 
f 61/1/2 58/1/2 62/1/2 
f 59/1/2 60/1/2 63/1/2 
f 62/2/2 59/2/2 63/2/2 
f 60/1/2 56/1/2 64/1/2 
f 63/1/2 60/1/2 64/1/2 
f 65/1/3 9/1/3 3/1/3 
f 66/2/3 13/2/3 9/2/3 
f 66/1/3 9/1/3 65/1/3 
f 67/1/3 29/1/3 21/1/3 
f 67/2/3 21/2/3 17/2/3 
f 68/1/3 29/1/3 67/1/3 
f 69/1/3 65/1/3 3/1/3 
f 70/2/3 66/2/3 65/2/3 
f 70/1/3 65/1/3 69/1/3 
f 71/1/3 29/1/3 68/1/3 
f 71/2/3 68/2/3 67/2/3 
f 72/1/3 29/1/3 71/1/3 
f 73/3/3 15/3/3 13/3/3 
f 74/3/3 17/3/3 19/3/3 
f 75/3/3 73/3/3 13/3/3 
f 75/3/3 74/3/3 73/3/3 
f 76/3/3 17/3/3 74/3/3 
f 76/3/3 74/3/3 75/3/3 
f 77/3/3 75/3/3 13/3/3 
f 77/4/3 76/4/3 75/4/3 
f 78/3/3 17/3/3 76/3/3 
f 78/4/3 76/4/3 77/4/3 
f 79/3/3 77/3/3 13/3/3 
f 79/3/3 78/3/3 77/3/3 
f 80/3/3 17/3/3 78/3/3 
f 80/3/3 78/3/3 79/3/3 
f 81/2/3 70/2/3 69/2/3 
f 82/2/3 66/2/3 70/2/3 
f 82/2/3 70/2/3 81/2/3 
f 83/2/3 72/2/3 71/2/3 
f 83/2/3 71/2/3 67/2/3 
f 84/2/3 72/2/3 83/2/3 
f 85/2/3 66/2/3 82/2/3 
f 85/1/3 82/1/3 81/1/3 
f 86/2/3 13/2/3 66/2/3 
f 86/2/3 66/2/3 85/2/3 
f 87/2/3 67/2/3 17/2/3 
f 87/2/3 83/2/3 67/2/3 
f 88/1/3 84/1/3 83/1/3 
f 88/2/3 83/2/3 87/2/3 
f 33/1/3 85/1/3 81/1/3 
f 33/1/3 86/1/3 85/1/3 
f 41/2/3 13/2/3 86/2/3 
f 41/1/3 86/1/3 33/1/3 
f 45/3/3 79/3/3 13/3/3 
f 45/2/3 13/2/3 41/2/3 
f 47/3/3 79/3/3 45/3/3 
f 49/3/3 17/3/3 80/3/3 
f 51/2/3 87/2/3 17/2/3 
f 51/3/3 17/3/3 49/3/3 
f 53/1/3 88/1/3 87/1/3 
f 53/2/3 87/2/3 51/2/3 
f 61/1/3 84/1/3 88/1/3 
f 61/1/3 88/1/3 53/1/3 
f 7/1/4 12/1/4 89/1/4 
f 12/2/4 14/2/4 90/2/4 
f 89/1/4 12/1/4 90/1/4 
f 24/1/4 32/1/4 91/1/4 
f 20/2/4 24/2/4 91/2/4 
f 91/1/4 32/1/4 92/1/4 
f 7/1/4 89/1/4 93/1/4 
f 89/2/4 90/2/4 94/2/4 
f 93/1/4 89/1/4 94/1/4 
f 92/1/4 32/1/4 95/1/4 
f 91/2/4 92/2/4 95/2/4 
f 95/1/4 32/1/4 96/1/4 
f 14/3/4 16/3/4 97/3/4 
f 18/3/4 20/3/4 98/3/4 
f 14/3/4 97/3/4 99/3/4 
f 97/3/4 98/3/4 99/3/4 
f 98/3/4 20/3/4 100/3/4 
f 99/3/4 98/3/4 100/3/4 
f 14/3/4 99/3/4 101/3/4 
f 99/4/4 100/4/4 101/4/4 
f 100/3/4 20/3/4 102/3/4 
f 101/4/4 100/4/4 102/4/4 
f 14/3/4 101/3/4 103/3/4 
f 101/3/4 102/3/4 103/3/4 
f 102/3/4 20/3/4 104/3/4 
f 103/3/4 102/3/4 104/3/4 
f 93/2/4 94/2/4 105/2/4 
f 94/2/4 90/2/4 106/2/4 
f 105/2/4 94/2/4 106/2/4 
f 95/2/4 96/2/4 107/2/4 
f 91/2/4 95/2/4 107/2/4 
f 107/2/4 96/2/4 108/2/4 
f 106/2/4 90/2/4 109/2/4 
f 105/1/4 106/1/4 109/1/4 
f 90/2/4 14/2/4 110/2/4 
f 109/2/4 90/2/4 110/2/4 
f 20/2/4 91/2/4 111/2/4 
f 91/2/4 107/2/4 111/2/4 
f 107/1/4 108/1/4 112/1/4 
f 111/2/4 107/2/4 112/2/4 
f 105/1/4 109/1/4 38/1/4 
f 109/1/4 110/1/4 38/1/4 
f 110/2/4 14/2/4 44/2/4 
f 38/1/4 110/1/4 44/1/4 
f 14/3/4 103/3/4 46/3/4 
f 44/2/4 14/2/4 46/2/4 
f 46/3/4 103/3/4 48/3/4 
f 104/3/4 20/3/4 50/3/4 
f 20/2/4 111/2/4 52/2/4 
f 50/3/4 20/3/4 52/3/4 
f 111/1/4 112/1/4 56/1/4 
f 52/2/4 111/2/4 56/2/4 
f 112/1/4 108/1/4 64/1/4 
f 56/1/4 112/1/4 64/1/4 
f 113/1/5 69/1/5 3/1/5 
f 114/2/5 81/2/5 69/2/5 
f 114/1/5 69/1/5 113/1/5 
f 115/1/5 33/1/5 81/1/5 
f 115/2/5 81/2/5 114/2/5 
f 116/1/5 33/1/5 115/1/5 
f 2/1/5 113/1/5 3/1/5 
f 117/2/5 114/2/5 113/2/5 
f 117/1/5 113/1/5 2/1/5 
f 117/2/5 115/2/5 114/2/5 
f 117/2/5 116/2/5 115/2/5 
f 118/1/5 33/1/5 116/1/5 
f 118/2/5 116/2/5 117/2/5 
f 34/1/5 33/1/5 118/1/5 
f 5/2/5 117/2/5 2/2/5 
f 5/2/5 118/2/5 117/2/5 
f 5/2/5 34/2/5 118/2/5 
f 119/2/5 34/2/5 5/2/5 
f 120/2/5 34/2/5 119/2/5 
f 36/2/5 34/2/5 120/2/5 
f 121/1/5 119/1/5 5/1/5 
f 121/2/5 120/2/5 119/2/5 
f 122/2/5 120/2/5 121/2/5 
f 123/2/5 120/2/5 122/2/5 
f 124/1/5 36/1/5 120/1/5 
f 124/2/5 120/2/5 123/2/5 
f 7/1/5 121/1/5 5/1/5 
f 7/1/5 122/1/5 121/1/5 
f 93/2/5 123/2/5 122/2/5 
f 93/1/5 122/1/5 7/1/5 
f 105/1/5 124/1/5 123/1/5 
f 105/2/5 123/2/5 93/2/5 
f 38/1/5 36/1/5 124/1/5 
f 38/1/5 124/1/5 105/1/5 
f 29/1/6 72/1/6 125/1/6 
f 72/2/6 84/2/6 126/2/6 
f 125/1/6 72/1/6 126/1/6 
f 84/1/6 61/1/6 127/1/6 
f 126/2/6 84/2/6 127/2/6 
f 127/1/6 61/1/6 128/1/6 
f 29/1/6 125/1/6 30/1/6 
f 125/2/6 126/2/6 129/2/6 
f 30/1/6 125/1/6 129/1/6 
f 126/2/6 127/2/6 129/2/6 
f 127/2/6 128/2/6 129/2/6 
f 128/1/6 61/1/6 130/1/6 
f 129/2/6 128/2/6 130/2/6 
f 130/1/6 61/1/6 62/1/6 
f 30/2/6 129/2/6 31/2/6 
f 129/2/6 130/2/6 31/2/6 
f 130/2/6 62/2/6 31/2/6 
f 31/2/6 62/2/6 131/2/6 
f 131/2/6 62/2/6 132/2/6 
f 132/2/6 62/2/6 63/2/6 
f 31/1/6 131/1/6 133/1/6 
f 131/2/6 132/2/6 133/2/6 
f 133/2/6 132/2/6 134/2/6 
f 134/2/6 132/2/6 135/2/6 
f 132/1/6 63/1/6 136/1/6 
f 135/2/6 132/2/6 136/2/6 
f 31/1/6 133/1/6 32/1/6 
f 133/1/6 134/1/6 32/1/6 
f 134/2/6 135/2/6 96/2/6 
f 32/1/6 134/1/6 96/1/6 
f 135/1/6 136/1/6 108/1/6 
f 96/2/6 135/2/6 108/2/6 
f 136/1/6 63/1/6 64/1/6 
f 108/1/6 136/1/6 64/1/6 
# 0 polygons - 256 triangles

#
# object Special_PowerLine_Straight_Line
#

v  -5.0000 1.0000 5.0000
v  -5.0000 -1.0000 -5.0000
v  -5.0000 -1.0000 5.0000
v  -5.0000 1.0000 -5.0000
v  5.0000 -1.0000 5.0000
v  5.0000 -1.0000 -5.0000
v  5.0000 1.0000 5.0000
v  5.0000 1.0000 -5.0000
v  -2.0000 -1.0000 5.0000
v  -2.0000 1.0000 5.0000
v  2.0000 1.0000 5.0000
v  2.0000 -1.0000 5.0000
v  -2.0000 -1.0000 -5.0000
v  -2.0000 1.0000 -5.0000
v  2.0000 -1.0000 -5.0000
v  2.0000 1.0000 -5.0000
# 16 vertices

vn -1.0000 0.0000 -0.0000
vn 1.0000 0.0000 -0.0000
vn 0.0000 0.0000 1.0000
vn 0.0000 0.0000 -1.0000
# 4 vertex normals

vt 0.4000 0.0234 0.0000
vt 0.6000 0.9776 0.0000
vt 0.6000 0.0234 0.0000
vt 0.4000 0.9776 0.0000
# 4 texture coords

g Special_PowerLine_Straight_Line
usemtl _pipe_1palette
s off
f 137/5/7 138/6/7 139/7/7 
f 140/8/7 138/6/7 137/5/7 
f 141/7/8 142/6/8 143/5/8 
f 143/5/8 142/6/8 144/8/8 
f 145/7/9 137/5/9 139/7/9 
f 146/5/9 137/5/9 145/7/9 
f 141/7/9 147/5/9 148/7/9 
f 143/5/9 147/5/9 141/7/9 
f 138/6/10 140/8/10 149/6/10 
f 149/6/10 140/8/10 150/8/10 
f 151/6/10 152/8/10 142/6/10 
f 142/6/10 152/8/10 144/8/10 
# 0 polygons - 12 triangles

