# MagicaVoxel @ Ephtracy

# group
g Special_PowerLine_CornerLine_Off

# material
mtllib Special_PowerLine_CornerLine_Off.mtl
usemtl palette

# normals
vn -1 0 0
vn 1 0 0
vn 0 0 1
vn 0 0 -1
vn 0 -1 0
vn 0 1 0

# texcoords
vt 0.365234 0.5
vt 0.369141 0.5
vt 0.373047 0.5
vt 0.400391 0.5
vt 0.404297 0.5

# verts
v -5 -5 5
v -5 -5 3
v -5 -5 2
v -5 -5 1
v -5 -5 -1
v -5 -5 -2
v -5 -5 -3
v -5 -5 -5
v -5 -4 4
v -5 -4 3
v -5 -4 -3
v -5 -4 -4
v -5 -3 5
v -5 -3 4
v -5 -3 -4
v -5 -3 -5
v -5 -2 5
v -5 -2 2
v -5 -1 5
v -5 -1 1
v -5 1 5
v -5 1 -1
v -5 2 5
v -5 2 -2
v -5 3 5
v -5 3 4
v -5 3 -4
v -5 3 -5
v -5 4 4
v -5 4 3
v -5 4 -3
v -5 4 -4
v -5 5 5
v -5 5 3
v -5 5 -3
v -5 5 -5
v 5 -5 5
v 5 -5 3
v 5 -5 2
v 5 -5 1
v 5 -5 -1
v 5 -5 -2
v 5 -5 -3
v 5 -5 -5
v 5 -4 4
v 5 -4 3
v 5 -4 -3
v 5 -4 -4
v 5 -3 5
v 5 -3 4
v 5 -3 -4
v 5 -3 -5
v 5 -2 5
v 5 -2 2
v 5 -1 5
v 5 -1 1
v 5 1 5
v 5 1 -1
v 5 2 5
v 5 2 -2
v 5 3 5
v 5 3 4
v 5 3 -4
v 5 3 -5
v 5 4 4
v 5 4 3
v 5 4 -3
v 5 4 -4
v 5 5 5
v 5 5 3
v 5 5 -3
v 5 5 -5
v -5 -5 5
v -5 -3 5
v -5 -2 5
v -5 -1 5
v -5 1 5
v -5 2 5
v -5 3 5
v -5 5 5
v -4 -4 5
v -4 -3 5
v -4 -1 5
v -4 1 5
v -4 3 5
v -4 4 5
v -3 -5 5
v -3 -4 5
v -3 -2 5
v -3 2 5
v -3 4 5
v -3 5 5
v -2 -2 5
v -2 2 5
v -1 -1 5
v -1 1 5
v 1 -1 5
v 1 1 5
v 2 -2 5
v 2 2 5
v 3 -5 5
v 3 -4 5
v 3 -2 5
v 3 2 5
v 3 4 5
v 3 5 5
v 4 -4 5
v 4 -3 5
v 4 -1 5
v 4 1 5
v 4 3 5
v 4 4 5
v 5 -5 5
v 5 -3 5
v 5 -2 5
v 5 -1 5
v 5 1 5
v 5 2 5
v 5 3 5
v 5 5 5
v -5 -5 -5
v -5 -3 -5
v -5 3 -5
v -5 5 -5
v -4 -4 -5
v -4 -3 -5
v -4 3 -5
v -4 4 -5
v -3 -5 -5
v -3 -4 -5
v -3 4 -5
v -3 5 -5
v -2 -2 -5
v -2 2 -5
v -1 -1 -5
v -1 1 -5
v 1 -1 -5
v 1 1 -5
v 2 -2 -5
v 2 2 -5
v 3 -5 -5
v 3 -4 -5
v 3 4 -5
v 3 5 -5
v 4 -4 -5
v 4 -3 -5
v 4 3 -5
v 4 4 -5
v 5 -5 -5
v 5 -3 -5
v 5 3 -5
v 5 5 -5
v -5 -5 5
v -3 -5 5
v 3 -5 5
v 5 -5 5
v -4 -5 4
v -3 -5 4
v 3 -5 4
v 4 -5 4
v -5 -5 3
v -4 -5 3
v 4 -5 3
v 5 -5 3
v -5 -5 2
v -3 -5 2
v -1 -5 2
v 1 -5 2
v 3 -5 2
v 5 -5 2
v -5 -5 1
v -4 -5 1
v -2 -5 1
v -1 -5 1
v 1 -5 1
v 2 -5 1
v 4 -5 1
v 5 -5 1
v -5 -5 -1
v -4 -5 -1
v -2 -5 -1
v -1 -5 -1
v 1 -5 -1
v 2 -5 -1
v 4 -5 -1
v 5 -5 -1
v -5 -5 -2
v -3 -5 -2
v -1 -5 -2
v 1 -5 -2
v 3 -5 -2
v 5 -5 -2
v -5 -5 -3
v -4 -5 -3
v 4 -5 -3
v 5 -5 -3
v -4 -5 -4
v -3 -5 -4
v 3 -5 -4
v 4 -5 -4
v -5 -5 -5
v -3 -5 -5
v 3 -5 -5
v 5 -5 -5
v -5 5 5
v -3 5 5
v 3 5 5
v 5 5 5
v -4 5 4
v -3 5 4
v 3 5 4
v 4 5 4
v -5 5 3
v -4 5 3
v 4 5 3
v 5 5 3
v -1 5 2
v 1 5 2
v -2 5 1
v -1 5 1
v 1 5 1
v 2 5 1
v -2 5 -1
v -1 5 -1
v 1 5 -1
v 2 5 -1
v -1 5 -2
v 1 5 -2
v -5 5 -3
v -4 5 -3
v 4 5 -3
v 5 5 -3
v -4 5 -4
v -3 5 -4
v 3 5 -4
v 4 5 -4
v -5 5 -5
v -3 5 -5
v 3 5 -5
v 5 5 -5

# faces
f 9/3/1 2/3/1 1/3/1
f 10/2/1 3/2/1 2/2/1
f 10/3/1 2/3/1 9/3/1
f 11/3/1 8/3/1 7/3/1
f 11/2/1 7/2/1 6/2/1
f 12/3/1 8/3/1 11/3/1
f 13/3/1 9/3/1 1/3/1
f 14/2/1 10/2/1 9/2/1
f 14/3/1 9/3/1 13/3/1
f 15/3/1 8/3/1 12/3/1
f 15/2/1 12/2/1 11/2/1
f 16/3/1 8/3/1 15/3/1
f 17/2/1 14/2/1 13/2/1
f 18/2/1 3/2/1 10/2/1
f 18/2/1 14/2/1 17/2/1
f 18/2/1 10/2/1 14/2/1
f 18/3/1 4/3/1 3/3/1
f 19/3/1 18/3/1 17/3/1
f 20/4/1 5/4/1 4/4/1
f 20/3/1 18/3/1 19/3/1
f 20/3/1 4/3/1 18/3/1
f 21/4/1 20/4/1 19/4/1
f 22/3/1 6/3/1 5/3/1
f 22/4/1 20/4/1 21/4/1
f 22/4/1 5/4/1 20/4/1
f 23/3/1 22/3/1 21/3/1
f 24/2/1 16/2/1 15/2/1
f 24/3/1 22/3/1 23/3/1
f 24/2/1 15/2/1 11/2/1
f 24/3/1 6/3/1 22/3/1
f 24/2/1 11/2/1 6/2/1
f 25/2/1 24/2/1 23/2/1
f 26/2/1 24/2/1 25/2/1
f 27/2/1 16/2/1 24/2/1
f 27/2/1 24/2/1 26/2/1
f 28/2/1 16/2/1 27/2/1
f 29/3/1 26/3/1 25/3/1
f 29/2/1 27/2/1 26/2/1
f 30/2/1 27/2/1 29/2/1
f 31/2/1 27/2/1 30/2/1
f 32/3/1 28/3/1 27/3/1
f 32/2/1 27/2/1 31/2/1
f 33/3/1 29/3/1 25/3/1
f 33/3/1 30/3/1 29/3/1
f 34/2/1 31/2/1 30/2/1
f 34/3/1 30/3/1 33/3/1
f 35/3/1 32/3/1 31/3/1
f 35/2/1 31/2/1 34/2/1
f 36/3/1 28/3/1 32/3/1
f 36/3/1 32/3/1 35/3/1
f 37/3/2 38/3/2 45/3/2
f 38/2/2 39/2/2 46/2/2
f 45/3/2 38/3/2 46/3/2
f 43/3/2 44/3/2 47/3/2
f 42/2/2 43/2/2 47/2/2
f 47/3/2 44/3/2 48/3/2
f 37/3/2 45/3/2 49/3/2
f 45/2/2 46/2/2 50/2/2
f 49/3/2 45/3/2 50/3/2
f 48/3/2 44/3/2 51/3/2
f 47/2/2 48/2/2 51/2/2
f 51/3/2 44/3/2 52/3/2
f 49/2/2 50/2/2 53/2/2
f 46/2/2 39/2/2 54/2/2
f 53/2/2 50/2/2 54/2/2
f 50/2/2 46/2/2 54/2/2
f 39/3/2 40/3/2 54/3/2
f 53/3/2 54/3/2 55/3/2
f 40/4/2 41/4/2 56/4/2
f 55/3/2 54/3/2 56/3/2
f 54/3/2 40/3/2 56/3/2
f 55/4/2 56/4/2 57/4/2
f 41/3/2 42/3/2 58/3/2
f 57/4/2 56/4/2 58/4/2
f 56/4/2 41/4/2 58/4/2
f 57/3/2 58/3/2 59/3/2
f 51/2/2 52/2/2 60/2/2
f 59/3/2 58/3/2 60/3/2
f 47/2/2 51/2/2 60/2/2
f 58/3/2 42/3/2 60/3/2
f 42/2/2 47/2/2 60/2/2
f 59/2/2 60/2/2 61/2/2
f 61/2/2 60/2/2 62/2/2
f 60/2/2 52/2/2 63/2/2
f 62/2/2 60/2/2 63/2/2
f 63/2/2 52/2/2 64/2/2
f 61/3/2 62/3/2 65/3/2
f 62/2/2 63/2/2 65/2/2
f 65/2/2 63/2/2 66/2/2
f 66/2/2 63/2/2 67/2/2
f 63/3/2 64/3/2 68/3/2
f 67/2/2 63/2/2 68/2/2
f 61/3/2 65/3/2 69/3/2
f 65/3/2 66/3/2 69/3/2
f 66/2/2 67/2/2 70/2/2
f 69/3/2 66/3/2 70/3/2
f 67/3/2 68/3/2 71/3/2
f 70/2/2 67/2/2 71/2/2
f 68/3/2 64/3/2 72/3/2
f 71/3/2 68/3/2 72/3/2
f 81/3/3 74/3/3 73/3/3
f 82/2/3 75/2/3 74/2/3
f 82/3/3 74/3/3 81/3/3
f 83/3/3 76/3/3 75/3/3
f 83/4/3 77/4/3 76/4/3
f 84/3/3 78/3/3 77/3/3
f 84/4/3 77/4/3 83/4/3
f 85/3/3 80/3/3 79/3/3
f 85/2/3 79/2/3 78/2/3
f 86/3/3 80/3/3 85/3/3
f 87/3/3 81/3/3 73/3/3
f 88/2/3 82/2/3 81/2/3
f 88/3/3 81/3/3 87/3/3
f 89/2/3 75/2/3 82/2/3
f 89/2/3 82/2/3 88/2/3
f 89/3/3 83/3/3 75/3/3
f 89/3/3 84/3/3 83/3/3
f 90/3/3 78/3/3 84/3/3
f 90/3/3 84/3/3 89/3/3
f 90/2/3 86/2/3 85/2/3
f 90/2/3 85/2/3 78/2/3
f 91/3/3 80/3/3 86/3/3
f 91/2/3 86/2/3 90/2/3
f 92/3/3 80/3/3 91/3/3
f 93/2/3 89/2/3 88/2/3
f 93/2/3 90/2/3 89/2/3
f 93/2/3 92/2/3 91/2/3
f 93/2/3 91/2/3 90/2/3
f 93/2/3 88/2/3 87/2/3
f 94/2/3 92/2/3 93/2/3
f 95/5/3 94/5/3 93/5/3
f 96/5/3 94/5/3 95/5/3
f 97/5/3 95/5/3 93/5/3
f 97/1/3 96/1/3 95/1/3
f 98/5/3 94/5/3 96/5/3
f 98/1/3 96/1/3 97/1/3
f 99/2/3 93/2/3 87/2/3
f 99/5/3 97/5/3 93/5/3
f 99/5/3 98/5/3 97/5/3
f 100/5/3 94/5/3 98/5/3
f 100/5/3 98/5/3 99/5/3
f 100/2/3 92/2/3 94/2/3
f 101/2/3 99/2/3 87/2/3
f 101/2/3 100/2/3 99/2/3
f 102/2/3 100/2/3 101/2/3
f 103/2/3 100/2/3 102/2/3
f 104/2/3 92/2/3 100/2/3
f 104/2/3 100/2/3 103/2/3
f 105/2/3 92/2/3 104/2/3
f 106/2/3 92/2/3 105/2/3
f 107/2/3 103/2/3 102/2/3
f 107/3/3 102/3/3 101/3/3
f 108/2/3 103/2/3 107/2/3
f 109/3/3 104/3/3 103/3/3
f 110/3/3 104/3/3 109/3/3
f 111/2/3 105/2/3 104/2/3
f 112/3/3 106/3/3 105/3/3
f 112/2/3 105/2/3 111/2/3
f 113/3/3 107/3/3 101/3/3
f 113/3/3 108/3/3 107/3/3
f 114/2/3 103/2/3 108/2/3
f 114/3/3 108/3/3 113/3/3
f 115/3/3 109/3/3 103/3/3
f 115/2/3 103/2/3 114/2/3
f 116/4/3 110/4/3 109/4/3
f 116/3/3 109/3/3 115/3/3
f 117/3/3 104/3/3 110/3/3
f 117/4/3 110/4/3 116/4/3
f 118/2/3 111/2/3 104/2/3
f 118/3/3 104/3/3 117/3/3
f 119/3/3 112/3/3 111/3/3
f 119/2/3 111/2/3 118/2/3
f 120/3/3 106/3/3 112/3/3
f 120/3/3 112/3/3 119/3/3
f 121/3/4 122/3/4 125/3/4
f 122/2/4 123/2/4 126/2/4
f 125/3/4 122/3/4 126/3/4
f 123/3/4 124/3/4 127/3/4
f 126/2/4 123/2/4 127/2/4
f 127/3/4 124/3/4 128/3/4
f 121/3/4 125/3/4 129/3/4
f 125/2/4 126/2/4 130/2/4
f 129/3/4 125/3/4 130/3/4
f 126/2/4 127/2/4 130/2/4
f 127/2/4 128/2/4 130/2/4
f 128/3/4 124/3/4 131/3/4
f 130/2/4 128/2/4 131/2/4
f 131/3/4 124/3/4 132/3/4
f 129/2/4 130/2/4 133/2/4
f 130/2/4 131/2/4 133/2/4
f 131/2/4 132/2/4 133/2/4
f 133/2/4 132/2/4 134/2/4
f 133/5/4 134/5/4 135/5/4
f 135/5/4 134/5/4 136/5/4
f 133/5/4 135/5/4 137/5/4
f 135/1/4 136/1/4 137/1/4
f 136/5/4 134/5/4 138/5/4
f 137/1/4 136/1/4 138/1/4
f 129/2/4 133/2/4 139/2/4
f 133/5/4 137/5/4 139/5/4
f 137/5/4 138/5/4 139/5/4
f 138/5/4 134/5/4 140/5/4
f 139/5/4 138/5/4 140/5/4
f 134/2/4 132/2/4 140/2/4
f 129/2/4 139/2/4 141/2/4
f 139/2/4 140/2/4 141/2/4
f 141/2/4 140/2/4 142/2/4
f 140/2/4 132/2/4 143/2/4
f 142/2/4 140/2/4 143/2/4
f 143/2/4 132/2/4 144/2/4
f 141/3/4 142/3/4 145/3/4
f 142/2/4 143/2/4 145/2/4
f 145/2/4 143/2/4 146/2/4
f 146/2/4 143/2/4 147/2/4
f 143/3/4 144/3/4 148/3/4
f 147/2/4 143/2/4 148/2/4
f 141/3/4 145/3/4 149/3/4
f 145/3/4 146/3/4 149/3/4
f 146/2/4 147/2/4 150/2/4
f 149/3/4 146/3/4 150/3/4
f 147/3/4 148/3/4 151/3/4
f 150/2/4 147/2/4 151/2/4
f 148/3/4 144/3/4 152/3/4
f 151/3/4 148/3/4 152/3/4
f 157/3/5 154/3/5 153/3/5
f 158/2/5 155/2/5 154/2/5
f 158/3/5 154/3/5 157/3/5
f 159/3/5 156/3/5 155/3/5
f 159/2/5 155/2/5 158/2/5
f 160/3/5 156/3/5 159/3/5
f 161/3/5 157/3/5 153/3/5
f 162/2/5 158/2/5 157/2/5
f 162/3/5 157/3/5 161/3/5
f 162/2/5 159/2/5 158/2/5
f 162/2/5 160/2/5 159/2/5
f 163/3/5 156/3/5 160/3/5
f 163/2/5 160/2/5 162/2/5
f 164/3/5 156/3/5 163/3/5
f 165/2/5 162/2/5 161/2/5
f 165/2/5 163/2/5 162/2/5
f 165/2/5 164/2/5 163/2/5
f 166/2/5 164/2/5 165/2/5
f 167/2/5 164/2/5 166/2/5
f 168/2/5 164/2/5 167/2/5
f 169/2/5 164/2/5 168/2/5
f 170/2/5 164/2/5 169/2/5
f 171/3/5 166/3/5 165/3/5
f 172/3/5 166/3/5 171/3/5
f 173/2/5 167/2/5 166/2/5
f 174/4/5 168/4/5 167/4/5
f 174/2/5 167/2/5 173/2/5
f 175/2/5 169/2/5 168/2/5
f 175/4/5 168/4/5 174/4/5
f 176/2/5 169/2/5 175/2/5
f 177/3/5 170/3/5 169/3/5
f 178/3/5 170/3/5 177/3/5
f 179/4/5 172/4/5 171/4/5
f 180/3/5 166/3/5 172/3/5
f 180/4/5 172/4/5 179/4/5
f 181/2/5 173/2/5 166/2/5
f 181/4/5 174/4/5 173/4/5
f 181/4/5 175/4/5 174/4/5
f 181/4/5 176/4/5 175/4/5
f 182/4/5 176/4/5 181/4/5
f 183/4/5 176/4/5 182/4/5
f 184/2/5 169/2/5 176/2/5
f 184/4/5 176/4/5 183/4/5
f 185/4/5 178/4/5 177/4/5
f 185/3/5 177/3/5 169/3/5
f 186/4/5 178/4/5 185/4/5
f 187/3/5 180/3/5 179/3/5
f 188/3/5 166/3/5 180/3/5
f 188/3/5 180/3/5 187/3/5
f 188/2/5 181/2/5 166/2/5
f 188/2/5 182/2/5 181/2/5
f 189/4/5 183/4/5 182/4/5
f 189/2/5 182/2/5 188/2/5
f 190/2/5 184/2/5 183/2/5
f 190/4/5 183/4/5 189/4/5
f 191/2/5 169/2/5 184/2/5
f 191/2/5 184/2/5 190/2/5
f 191/3/5 186/3/5 185/3/5
f 191/3/5 185/3/5 169/3/5
f 192/3/5 186/3/5 191/3/5
f 193/2/5 188/2/5 187/2/5
f 193/2/5 190/2/5 189/2/5
f 193/2/5 192/2/5 191/2/5
f 193/2/5 191/2/5 190/2/5
f 193/2/5 189/2/5 188/2/5
f 194/2/5 192/2/5 193/2/5
f 195/2/5 192/2/5 194/2/5
f 196/2/5 192/2/5 195/2/5
f 197/3/5 194/3/5 193/3/5
f 197/2/5 195/2/5 194/2/5
f 198/2/5 195/2/5 197/2/5
f 199/2/5 195/2/5 198/2/5
f 200/3/5 196/3/5 195/3/5
f 200/2/5 195/2/5 199/2/5
f 201/3/5 197/3/5 193/3/5
f 201/3/5 198/3/5 197/3/5
f 202/2/5 199/2/5 198/2/5
f 202/3/5 198/3/5 201/3/5
f 203/3/5 200/3/5 199/3/5
f 203/2/5 199/2/5 202/2/5
f 204/3/5 196/3/5 200/3/5
f 204/3/5 200/3/5 203/3/5
f 205/3/6 206/3/6 209/3/6
f 206/2/6 207/2/6 210/2/6
f 209/3/6 206/3/6 210/3/6
f 207/3/6 208/3/6 211/3/6
f 210/2/6 207/2/6 211/2/6
f 211/3/6 208/3/6 212/3/6
f 205/3/6 209/3/6 213/3/6
f 209/2/6 210/2/6 214/2/6
f 213/3/6 209/3/6 214/3/6
f 210/2/6 211/2/6 214/2/6
f 211/2/6 212/2/6 214/2/6
f 212/3/6 208/3/6 215/3/6
f 214/2/6 212/2/6 215/2/6
f 215/3/6 208/3/6 216/3/6
f 213/2/6 214/2/6 217/2/6
f 214/2/6 215/2/6 217/2/6
f 215/2/6 216/2/6 217/2/6
f 217/2/6 216/2/6 218/2/6
f 213/2/6 217/2/6 219/2/6
f 217/4/6 218/4/6 220/4/6
f 219/2/6 217/2/6 220/2/6
f 218/2/6 216/2/6 221/2/6
f 220/4/6 218/4/6 221/4/6
f 221/2/6 216/2/6 222/2/6
f 219/4/6 220/4/6 223/4/6
f 213/2/6 219/2/6 223/2/6
f 221/4/6 222/4/6 223/4/6
f 220/4/6 221/4/6 223/4/6
f 223/4/6 222/4/6 224/4/6
f 224/4/6 222/4/6 225/4/6
f 222/2/6 216/2/6 226/2/6
f 225/4/6 222/4/6 226/4/6
f 224/4/6 225/4/6 227/4/6
f 223/2/6 224/2/6 227/2/6
f 225/2/6 226/2/6 228/2/6
f 227/4/6 225/4/6 228/4/6
f 213/2/6 223/2/6 229/2/6
f 223/2/6 227/2/6 229/2/6
f 227/2/6 228/2/6 229/2/6
f 229/2/6 228/2/6 230/2/6
f 226/2/6 216/2/6 231/2/6
f 230/2/6 228/2/6 231/2/6
f 228/2/6 226/2/6 231/2/6
f 231/2/6 216/2/6 232/2/6
f 229/3/6 230/3/6 233/3/6
f 230/2/6 231/2/6 233/2/6
f 233/2/6 231/2/6 234/2/6
f 234/2/6 231/2/6 235/2/6
f 231/3/6 232/3/6 236/3/6
f 235/2/6 231/2/6 236/2/6
f 229/3/6 233/3/6 237/3/6
f 233/3/6 234/3/6 237/3/6
f 234/2/6 235/2/6 238/2/6
f 237/3/6 234/3/6 238/3/6
f 235/3/6 236/3/6 239/3/6
f 238/2/6 235/2/6 239/2/6
f 236/3/6 232/3/6 240/3/6
f 239/3/6 236/3/6 240/3/6
