# MagicaVoxel @ Ephtracy

# group
g Special_PowerLine_Power

# material
mtllib Special_PowerLine_Power.mtl
usemtl palette

# normals
vn -1 0 0
vn 1 0 0
vn 0 0 1
vn 0 0 -1
vn 0 -1 0
vn 0 1 0

# texcoords
vt 0.349609 0.5
vt 0.365234 0.5
vt 0.369141 0.5
vt 0.373047 0.5

# verts
v -4 -5 5
v -4 -5 3
v -4 -5 -2
v -4 -5 -4
v -4 -4 4
v -4 -4 3
v -4 -4 -2
v -4 -4 -3
v -4 -3 5
v -4 -3 4
v -4 -3 -3
v -4 -3 -4
v -4 -2 4
v -4 -2 -3
v -4 0 4
v -4 0 -3
v -4 3 5
v -4 3 4
v -4 3 -3
v -4 3 -4
v -4 4 4
v -4 4 3
v -4 4 -2
v -4 4 -3
v -4 5 5
v -4 5 3
v -4 5 -2
v -4 5 -4
v -3 -4 4
v -3 -4 3
v -3 -4 -2
v -3 -4 -3
v -3 -3 4
v -3 -3 -3
v -3 -2 4
v -3 -2 -3
v -3 0 4
v -3 0 -3
v -3 3 4
v -3 3 -3
v -2 -2 -3
v -2 -2 -5
v -2 -1 -3
v -2 -1 -4
v -2 1 -3
v -2 1 -4
v -2 2 -3
v -2 2 -5
v -1 -4 -3
v -1 -4 -4
v -1 -2 -3
v -1 -2 -4
v -1 2 -3
v -1 2 -4
v -1 4 -3
v -1 4 -4
v 3 -4 -3
v 3 -4 -4
v 3 -3 5
v 3 -3 4
v 3 -3 -3
v 3 -3 -4
v 3 -2 5
v 3 -2 4
v 3 -1 -3
v 3 -1 -4
v 3 0 5
v 3 0 4
v 3 1 -3
v 3 1 -4
v 3 3 5
v 3 3 4
v 3 3 -3
v 3 3 -4
v 3 4 -3
v 3 4 -4
v -3 -4 -3
v -3 -4 -4
v -3 -3 5
v -3 -3 4
v -3 -3 -3
v -3 -3 -4
v -3 -2 5
v -3 -2 4
v -3 -1 -3
v -3 -1 -4
v -3 0 5
v -3 0 4
v -3 1 -3
v -3 1 -4
v -3 3 5
v -3 3 4
v -3 3 -3
v -3 3 -4
v -3 4 -3
v -3 4 -4
v 1 -4 -3
v 1 -4 -4
v 1 -2 -3
v 1 -2 -4
v 1 2 -3
v 1 2 -4
v 1 4 -3
v 1 4 -4
v 2 -2 -3
v 2 -2 -5
v 2 -1 -3
v 2 -1 -4
v 2 1 -3
v 2 1 -4
v 2 2 -3
v 2 2 -5
v 3 -3 4
v 3 -3 -3
v 3 -2 4
v 3 -2 -3
v 3 0 4
v 3 0 -3
v 3 3 4
v 3 3 -3
v 4 -5 5
v 4 -5 3
v 4 -5 -2
v 4 -5 -4
v 4 -4 4
v 4 -4 3
v 4 -4 -2
v 4 -4 -3
v 4 -3 5
v 4 -3 4
v 4 -3 -3
v 4 -3 -4
v 4 -2 4
v 4 -2 -3
v 4 0 4
v 4 0 -3
v 4 3 5
v 4 3 4
v 4 3 -3
v 4 3 -4
v 4 4 4
v 4 4 3
v 4 4 -2
v 4 4 -3
v 4 5 5
v 4 5 3
v 4 5 -2
v 4 5 -4
v -4 -5 5
v -4 -3 5
v -4 3 5
v -4 5 5
v -3 -4 5
v -3 -3 5
v -3 -2 5
v -3 0 5
v -3 3 5
v -3 4 5
v -2 -5 5
v -2 -4 5
v -2 4 5
v -2 5 5
v 2 -5 5
v 2 -4 5
v 2 4 5
v 2 5 5
v 3 -4 5
v 3 -3 5
v 3 -2 5
v 3 0 5
v 3 3 5
v 3 4 5
v 4 -5 5
v 4 -3 5
v 4 3 5
v 4 5 5
v -3 -3 4
v -3 -2 4
v -3 0 4
v -3 3 4
v 3 -3 4
v 3 -2 4
v 3 0 4
v 3 3 4
v -4 -4 -3
v -4 -3 -3
v -4 -2 -3
v -4 0 -3
v -4 3 -3
v -3 -4 -3
v -3 -3 -3
v -3 -2 -3
v -3 0 -3
v -3 3 -3
v 3 -3 -3
v 3 -2 -3
v 3 0 -3
v 3 3 -3
v 4 -3 -3
v 4 -2 -3
v 4 0 -3
v 4 3 -3
v -4 -4 4
v -4 -3 4
v -4 -2 4
v -4 0 4
v -4 3 4
v -3 -4 4
v -3 -3 4
v -3 -2 4
v -3 0 4
v -3 3 4
v 3 -3 4
v 3 -2 4
v 3 0 4
v 3 3 4
v 4 -3 4
v 4 -2 4
v 4 0 4
v 4 3 4
v -3 -4 -3
v -3 -3 -3
v -3 -1 -3
v -3 1 -3
v -3 3 -3
v -3 4 -3
v -2 -4 -3
v -2 -2 -3
v -2 -1 -3
v -2 1 -3
v -2 2 -3
v -2 4 -3
v -1 -4 -3
v -1 -2 -3
v -1 2 -3
v -1 4 -3
v 1 -4 -3
v 1 -2 -3
v 1 2 -3
v 1 4 -3
v 2 -4 -3
v 2 -2 -3
v 2 -1 -3
v 2 1 -3
v 2 2 -3
v 2 4 -3
v 3 -4 -3
v 3 -3 -3
v 3 -1 -3
v 3 1 -3
v 3 3 -3
v 3 4 -3
v -4 -5 -4
v -4 -3 -4
v -4 3 -4
v -4 5 -4
v -3 -4 -4
v -3 -3 -4
v -3 -1 -4
v -3 1 -4
v -3 3 -4
v -3 4 -4
v -2 -5 -4
v -2 -4 -4
v -2 -1 -4
v -2 1 -4
v -2 4 -4
v -2 5 -4
v -1 -4 -4
v -1 -2 -4
v -1 2 -4
v -1 4 -4
v 1 -4 -4
v 1 -2 -4
v 1 2 -4
v 1 4 -4
v 2 -5 -4
v 2 -4 -4
v 2 -1 -4
v 2 1 -4
v 2 4 -4
v 2 5 -4
v 3 -4 -4
v 3 -3 -4
v 3 -1 -4
v 3 1 -4
v 3 3 -4
v 3 4 -4
v 4 -5 -4
v 4 -3 -4
v 4 3 -4
v 4 5 -4
v -2 -2 -5
v -2 2 -5
v -1 -1 -5
v -1 1 -5
v 1 -1 -5
v 1 1 -5
v 2 -2 -5
v 2 2 -5
v -4 -5 5
v -2 -5 5
v 2 -5 5
v 4 -5 5
v -3 -5 4
v -2 -5 4
v 2 -5 4
v 3 -5 4
v -4 -5 3
v -3 -5 3
v 3 -5 3
v 4 -5 3
v -4 -5 -2
v -3 -5 -2
v 3 -5 -2
v 4 -5 -2
v -3 -5 -3
v -2 -5 -3
v 2 -5 -3
v 3 -5 -3
v -4 -5 -4
v -2 -5 -4
v 2 -5 -4
v 4 -5 -4
v -3 -2 5
v 3 -2 5
v -4 -2 4
v -3 -2 4
v 3 -2 4
v 4 -2 4
v -4 -2 -3
v -3 -2 -3
v -2 -2 -3
v -1 -2 -3
v 1 -2 -3
v 2 -2 -3
v 3 -2 -3
v 4 -2 -3
v -1 -2 -4
v 1 -2 -4
v -2 -2 -5
v 2 -2 -5
v -3 -1 -3
v -2 -1 -3
v 2 -1 -3
v 3 -1 -3
v -3 -1 -4
v -2 -1 -4
v 2 -1 -4
v 3 -1 -4
v -3 3 5
v 3 3 5
v -4 3 4
v -3 3 4
v 3 3 4
v 4 3 4
v -4 3 -3
v -3 3 -3
v 3 3 -3
v 4 3 -3
v -3 4 -3
v -2 4 -3
v -1 4 -3
v 1 4 -3
v 2 4 -3
v 3 4 -3
v -3 4 -4
v -2 4 -4
v -1 4 -4
v 1 4 -4
v 2 4 -4
v 3 4 -4
v -4 -4 4
v -3 -4 4
v -4 -4 3
v -3 -4 3
v -4 -4 -2
v -3 -4 -2
v -4 -4 -3
v -3 -4 -3
v -2 -4 -3
v -1 -4 -3
v 1 -4 -3
v 2 -4 -3
v 3 -4 -3
v -3 -4 -4
v -2 -4 -4
v -1 -4 -4
v 1 -4 -4
v 2 -4 -4
v 3 -4 -4
v -3 -3 5
v 3 -3 5
v -3 -3 4
v 3 -3 4
v 4 -3 4
v 3 -3 -3
v 4 -3 -3
v -3 0 5
v 3 0 5
v -4 0 4
v -3 0 4
v 3 0 4
v 4 0 4
v -4 0 -3
v -3 0 -3
v 3 0 -3
v 4 0 -3
v -3 1 -3
v -2 1 -3
v 2 1 -3
v 3 1 -3
v -3 1 -4
v -2 1 -4
v 2 1 -4
v 3 1 -4
v -2 2 -3
v -1 2 -3
v 1 2 -3
v 2 2 -3
v -1 2 -4
v 1 2 -4
v -2 2 -5
v 2 2 -5
v -4 5 5
v -2 5 5
v 2 5 5
v 4 5 5
v -3 5 4
v -2 5 4
v 2 5 4
v 3 5 4
v -4 5 3
v -3 5 3
v -2 5 3
v -1 5 3
v 3 5 3
v 4 5 3
v -1 5 1
v 2 5 1
v -1 5 -0
v 1 5 -0
v -1 5 -1
v 1 5 -1
v -4 5 -2
v -3 5 -2
v -2 5 -2
v 2 5 -2
v 3 5 -2
v 4 5 -2
v -3 5 -3
v -2 5 -3
v 2 5 -3
v 3 5 -3
v -4 5 -4
v -2 5 -4
v 2 5 -4
v 4 5 -4

# faces
f 5/4/1 2/4/1 1/4/1
f 6/3/1 3/3/1 2/3/1
f 6/4/1 2/4/1 5/4/1
f 7/4/1 4/4/1 3/4/1
f 7/3/1 3/3/1 6/3/1
f 8/4/1 4/4/1 7/4/1
f 9/4/1 5/4/1 1/4/1
f 10/4/1 5/4/1 9/4/1
f 11/4/1 4/4/1 8/4/1
f 12/4/1 4/4/1 11/4/1
f 13/3/1 10/3/1 9/3/1
f 14/3/1 12/3/1 11/3/1
f 15/3/1 13/3/1 9/3/1
f 15/3/1 14/3/1 13/3/1
f 16/3/1 12/3/1 14/3/1
f 16/3/1 14/3/1 15/3/1
f 17/3/1 15/3/1 9/3/1
f 18/3/1 15/3/1 17/3/1
f 19/3/1 12/3/1 16/3/1
f 20/3/1 12/3/1 19/3/1
f 21/4/1 18/4/1 17/4/1
f 21/3/1 19/3/1 18/3/1
f 22/3/1 19/3/1 21/3/1
f 23/3/1 19/3/1 22/3/1
f 24/4/1 20/4/1 19/4/1
f 24/3/1 19/3/1 23/3/1
f 25/4/1 21/4/1 17/4/1
f 25/4/1 22/4/1 21/4/1
f 26/3/1 23/3/1 22/3/1
f 26/4/1 22/4/1 25/4/1
f 27/4/1 24/4/1 23/4/1
f 27/3/1 23/3/1 26/3/1
f 28/4/1 20/4/1 24/4/1
f 28/4/1 24/4/1 27/4/1
f 33/2/1 30/2/1 29/2/1
f 33/2/1 32/2/1 31/2/1
f 33/2/1 31/2/1 30/2/1
f 34/2/1 32/2/1 33/2/1
f 35/2/1 34/2/1 33/2/1
f 36/2/1 34/2/1 35/2/1
f 39/2/1 38/2/1 37/2/1
f 40/2/1 38/2/1 39/2/1
f 43/3/1 42/3/1 41/3/1
f 44/3/1 42/3/1 43/3/1
f 46/3/1 42/3/1 44/3/1
f 47/3/1 46/3/1 45/3/1
f 48/3/1 42/3/1 46/3/1
f 48/3/1 46/3/1 47/3/1
f 51/3/1 50/3/1 49/3/1
f 52/3/1 50/3/1 51/3/1
f 55/3/1 54/3/1 53/3/1
f 56/3/1 54/3/1 55/3/1
f 61/4/1 58/4/1 57/4/1
f 62/4/1 58/4/1 61/4/1
f 63/3/1 60/3/1 59/3/1
f 64/3/1 60/3/1 63/3/1
f 65/3/1 62/3/1 61/3/1
f 66/3/1 62/3/1 65/3/1
f 71/3/1 68/3/1 67/3/1
f 72/3/1 68/3/1 71/3/1
f 73/3/1 70/3/1 69/3/1
f 74/3/1 70/3/1 73/3/1
f 75/4/1 74/4/1 73/4/1
f 76/4/1 74/4/1 75/4/1
f 77/4/2 78/4/2 81/4/2
f 81/4/2 78/4/2 82/4/2
f 79/3/2 80/3/2 83/3/2
f 83/3/2 80/3/2 84/3/2
f 81/3/2 82/3/2 85/3/2
f 85/3/2 82/3/2 86/3/2
f 87/3/2 88/3/2 91/3/2
f 91/3/2 88/3/2 92/3/2
f 89/3/2 90/3/2 93/3/2
f 93/3/2 90/3/2 94/3/2
f 93/4/2 94/4/2 95/4/2
f 95/4/2 94/4/2 96/4/2
f 97/3/2 98/3/2 99/3/2
f 99/3/2 98/3/2 100/3/2
f 101/3/2 102/3/2 103/3/2
f 103/3/2 102/3/2 104/3/2
f 105/3/2 106/3/2 107/3/2
f 107/3/2 106/3/2 108/3/2
f 108/3/2 106/3/2 110/3/2
f 109/3/2 110/3/2 111/3/2
f 110/3/2 106/3/2 112/3/2
f 111/3/2 110/3/2 112/3/2
f 113/2/2 114/2/2 115/2/2
f 115/2/2 114/2/2 116/2/2
f 117/2/2 118/2/2 119/2/2
f 119/2/2 118/2/2 120/2/2
f 121/4/2 122/4/2 125/4/2
f 122/3/2 123/3/2 126/3/2
f 125/4/2 122/4/2 126/4/2
f 123/4/2 124/4/2 127/4/2
f 126/3/2 123/3/2 127/3/2
f 127/4/2 124/4/2 128/4/2
f 121/4/2 125/4/2 129/4/2
f 125/3/2 126/3/2 130/3/2
f 129/4/2 125/4/2 130/4/2
f 126/3/2 127/3/2 130/3/2
f 127/3/2 128/3/2 130/3/2
f 128/4/2 124/4/2 131/4/2
f 130/3/2 128/3/2 131/3/2
f 131/4/2 124/4/2 132/4/2
f 129/3/2 130/3/2 133/3/2
f 131/3/2 132/3/2 134/3/2
f 129/3/2 133/3/2 135/3/2
f 133/3/2 134/3/2 135/3/2
f 134/3/2 132/3/2 136/3/2
f 135/3/2 134/3/2 136/3/2
f 129/3/2 135/3/2 137/3/2
f 137/3/2 135/3/2 138/3/2
f 136/3/2 132/3/2 139/3/2
f 139/3/2 132/3/2 140/3/2
f 137/4/2 138/4/2 141/4/2
f 138/3/2 139/3/2 141/3/2
f 141/3/2 139/3/2 142/3/2
f 142/3/2 139/3/2 143/3/2
f 139/4/2 140/4/2 144/4/2
f 143/3/2 139/3/2 144/3/2
f 137/4/2 141/4/2 145/4/2
f 141/4/2 142/4/2 145/4/2
f 142/3/2 143/3/2 146/3/2
f 145/4/2 142/4/2 146/4/2
f 143/4/2 144/4/2 147/4/2
f 146/3/2 143/3/2 147/3/2
f 144/4/2 140/4/2 148/4/2
f 147/4/2 144/4/2 148/4/2
f 153/4/3 150/4/3 149/4/3
f 154/3/3 151/3/3 150/3/3
f 154/4/3 150/4/3 153/4/3
f 155/3/3 151/3/3 154/3/3
f 156/3/3 151/3/3 155/3/3
f 157/4/3 152/4/3 151/4/3
f 157/3/3 151/3/3 156/3/3
f 158/4/3 152/4/3 157/4/3
f 159/4/3 153/4/3 149/4/3
f 160/3/3 154/3/3 153/3/3
f 160/4/3 153/4/3 159/4/3
f 161/4/3 152/4/3 158/4/3
f 161/3/3 158/3/3 157/3/3
f 162/4/3 152/4/3 161/4/3
f 163/3/3 160/3/3 159/3/3
f 164/3/3 154/3/3 160/3/3
f 164/3/3 160/3/3 163/3/3
f 165/3/3 161/3/3 157/3/3
f 165/3/3 162/3/3 161/3/3
f 166/3/3 162/3/3 165/3/3
f 167/3/3 154/3/3 164/3/3
f 167/4/3 164/4/3 163/4/3
f 168/3/3 154/3/3 167/3/3
f 169/3/3 156/3/3 155/3/3
f 170/3/3 156/3/3 169/3/3
f 171/3/3 165/3/3 157/3/3
f 172/4/3 166/4/3 165/4/3
f 172/3/3 165/3/3 171/3/3
f 173/4/3 168/4/3 167/4/3
f 173/4/3 167/4/3 163/4/3
f 174/3/3 171/3/3 170/3/3
f 174/4/3 168/4/3 173/4/3
f 174/3/3 170/3/3 169/3/3
f 174/3/3 169/3/3 168/3/3
f 175/4/3 172/4/3 171/4/3
f 175/3/3 171/3/3 174/3/3
f 176/4/3 166/4/3 172/4/3
f 176/4/3 172/4/3 175/4/3
f 181/2/3 178/2/3 177/2/3
f 182/2/3 178/2/3 181/2/3
f 183/2/3 180/2/3 179/2/3
f 184/2/3 180/2/3 183/2/3
f 190/4/3 186/4/3 185/4/3
f 191/3/3 187/3/3 186/3/3
f 191/4/3 186/4/3 190/4/3
f 192/3/3 187/3/3 191/3/3
f 193/3/3 189/3/3 188/3/3
f 194/3/3 189/3/3 193/3/3
f 199/3/3 196/3/3 195/3/3
f 200/3/3 196/3/3 199/3/3
f 201/3/3 198/3/3 197/3/3
f 202/3/3 198/3/3 201/3/3
f 203/4/4 204/4/4 208/4/4
f 204/3/4 205/3/4 209/3/4
f 208/4/4 204/4/4 209/4/4
f 209/3/4 205/3/4 210/3/4
f 206/3/4 207/3/4 211/3/4
f 211/3/4 207/3/4 212/3/4
f 213/3/4 214/3/4 217/3/4
f 217/3/4 214/3/4 218/3/4
f 215/3/4 216/3/4 219/3/4
f 219/3/4 216/3/4 220/3/4
f 221/2/4 222/2/4 227/2/4
f 222/2/4 223/2/4 227/2/4
f 227/2/4 223/2/4 228/2/4
f 228/2/4 223/2/4 229/2/4
f 225/2/4 226/2/4 230/2/4
f 224/2/4 225/2/4 230/2/4
f 230/2/4 226/2/4 231/2/4
f 231/2/4 226/2/4 232/2/4
f 227/2/4 228/2/4 233/2/4
f 233/2/4 228/2/4 234/2/4
f 231/2/4 232/2/4 235/2/4
f 235/2/4 232/2/4 236/2/4
f 237/2/4 238/2/4 241/2/4
f 241/2/4 238/2/4 242/2/4
f 239/2/4 240/2/4 245/2/4
f 245/2/4 240/2/4 246/2/4
f 242/2/4 243/2/4 247/2/4
f 241/2/4 242/2/4 247/2/4
f 247/2/4 243/2/4 248/2/4
f 248/2/4 243/2/4 249/2/4
f 245/2/4 246/2/4 250/2/4
f 244/2/4 245/2/4 250/2/4
f 250/2/4 246/2/4 251/2/4
f 251/2/4 246/2/4 252/2/4
f 253/4/4 254/4/4 257/4/4
f 254/3/4 255/3/4 258/3/4
f 257/4/4 254/4/4 258/4/4
f 258/3/4 255/3/4 259/3/4
f 259/3/4 255/3/4 260/3/4
f 255/4/4 256/4/4 261/4/4
f 260/3/4 255/3/4 261/3/4
f 261/4/4 256/4/4 262/4/4
f 253/4/4 257/4/4 263/4/4
f 263/4/4 257/4/4 264/4/4
f 259/3/4 260/3/4 265/3/4
f 265/3/4 260/3/4 266/3/4
f 262/4/4 256/4/4 267/4/4
f 267/4/4 256/4/4 268/4/4
f 263/3/4 264/3/4 269/3/4
f 267/3/4 268/3/4 272/3/4
f 269/3/4 270/3/4 273/3/4
f 263/3/4 269/3/4 273/3/4
f 273/3/4 270/3/4 274/3/4
f 271/3/4 272/3/4 275/3/4
f 272/3/4 268/3/4 276/3/4
f 275/3/4 272/3/4 276/3/4
f 263/3/4 273/3/4 277/3/4
f 277/3/4 273/3/4 278/3/4
f 276/3/4 268/3/4 281/3/4
f 281/3/4 268/3/4 282/3/4
f 277/4/4 278/4/4 283/4/4
f 279/3/4 280/3/4 285/3/4
f 285/3/4 280/3/4 286/3/4
f 281/4/4 282/4/4 288/4/4
f 283/4/4 284/4/4 289/4/4
f 277/4/4 283/4/4 289/4/4
f 286/3/4 287/3/4 290/3/4
f 289/4/4 284/4/4 290/4/4
f 284/3/4 285/3/4 290/3/4
f 285/3/4 286/3/4 290/3/4
f 287/4/4 288/4/4 291/4/4
f 290/3/4 287/3/4 291/3/4
f 288/4/4 282/4/4 292/4/4
f 291/4/4 288/4/4 292/4/4
f 293/3/4 294/3/4 295/3/4
f 295/3/4 294/3/4 296/3/4
f 293/3/4 295/3/4 297/3/4
f 295/2/4 296/2/4 297/2/4
f 296/3/4 294/3/4 298/3/4
f 297/2/4 296/2/4 298/2/4
f 293/3/4 297/3/4 299/3/4
f 297/3/4 298/3/4 299/3/4
f 298/3/4 294/3/4 300/3/4
f 299/3/4 298/3/4 300/3/4
f 305/4/5 302/4/5 301/4/5
f 306/3/5 303/3/5 302/3/5
f 306/4/5 302/4/5 305/4/5
f 307/4/5 304/4/5 303/4/5
f 307/3/5 303/3/5 306/3/5
f 308/4/5 304/4/5 307/4/5
f 309/4/5 305/4/5 301/4/5
f 310/3/5 306/3/5 305/3/5
f 310/4/5 305/4/5 309/4/5
f 310/3/5 307/3/5 306/3/5
f 310/3/5 308/3/5 307/3/5
f 311/4/5 304/4/5 308/4/5
f 311/3/5 308/3/5 310/3/5
f 312/4/5 304/4/5 311/4/5
f 313/3/5 310/3/5 309/3/5
f 313/3/5 311/3/5 310/3/5
f 313/3/5 312/3/5 311/3/5
f 314/3/5 312/3/5 313/3/5
f 315/3/5 312/3/5 314/3/5
f 316/3/5 312/3/5 315/3/5
f 317/4/5 314/4/5 313/4/5
f 317/3/5 315/3/5 314/3/5
f 318/3/5 315/3/5 317/3/5
f 319/3/5 315/3/5 318/3/5
f 320/4/5 316/4/5 315/4/5
f 320/3/5 315/3/5 319/3/5
f 321/4/5 317/4/5 313/4/5
f 321/4/5 318/4/5 317/4/5
f 322/3/5 319/3/5 318/3/5
f 322/4/5 318/4/5 321/4/5
f 323/4/5 320/4/5 319/4/5
f 323/3/5 319/3/5 322/3/5
f 324/4/5 316/4/5 320/4/5
f 324/4/5 320/4/5 323/4/5
f 328/3/5 326/3/5 325/3/5
f 329/3/5 326/3/5 328/3/5
f 331/3/5 328/3/5 327/3/5
f 332/3/5 328/3/5 331/3/5
f 337/3/5 330/3/5 329/3/5
f 338/3/5 330/3/5 337/3/5
f 339/3/5 334/3/5 333/3/5
f 340/3/5 336/3/5 335/3/5
f 341/3/5 339/3/5 333/3/5
f 341/3/5 340/3/5 339/3/5
f 342/3/5 336/3/5 340/3/5
f 342/3/5 340/3/5 341/3/5
f 347/3/5 344/3/5 343/3/5
f 348/3/5 344/3/5 347/3/5
f 349/3/5 346/3/5 345/3/5
f 350/3/5 346/3/5 349/3/5
f 354/3/5 352/3/5 351/3/5
f 355/3/5 352/3/5 354/3/5
f 357/3/5 354/3/5 353/3/5
f 358/3/5 354/3/5 357/3/5
f 359/3/5 356/3/5 355/3/5
f 360/3/5 356/3/5 359/3/5
f 367/4/5 362/4/5 361/4/5
f 368/3/5 363/3/5 362/3/5
f 368/4/5 362/4/5 367/4/5
f 369/3/5 363/3/5 368/3/5
f 370/3/5 365/3/5 364/3/5
f 371/4/5 366/4/5 365/4/5
f 371/3/5 365/3/5 370/3/5
f 372/4/5 366/4/5 371/4/5
f 373/4/6 374/4/6 375/4/6
f 375/4/6 374/4/6 376/4/6
f 375/3/6 376/3/6 377/3/6
f 377/3/6 376/3/6 378/3/6
f 377/4/6 378/4/6 379/4/6
f 379/4/6 378/4/6 380/4/6
f 380/4/6 381/4/6 386/4/6
f 381/3/6 382/3/6 387/3/6
f 386/4/6 381/4/6 387/4/6
f 387/3/6 382/3/6 388/3/6
f 383/3/6 384/3/6 389/3/6
f 384/4/6 385/4/6 390/4/6
f 389/3/6 384/3/6 390/3/6
f 390/4/6 385/4/6 391/4/6
f 392/3/6 393/3/6 394/3/6
f 394/3/6 393/3/6 395/3/6
f 395/3/6 396/3/6 397/3/6
f 397/3/6 396/3/6 398/3/6
f 399/3/6 400/3/6 402/3/6
f 402/3/6 400/3/6 403/3/6
f 401/3/6 402/3/6 405/3/6
f 405/3/6 402/3/6 406/3/6
f 403/3/6 404/3/6 407/3/6
f 407/3/6 404/3/6 408/3/6
f 409/3/6 410/3/6 413/3/6
f 413/3/6 410/3/6 414/3/6
f 411/3/6 412/3/6 415/3/6
f 415/3/6 412/3/6 416/3/6
f 417/3/6 418/3/6 421/3/6
f 419/3/6 420/3/6 422/3/6
f 417/3/6 421/3/6 423/3/6
f 421/3/6 422/3/6 423/3/6
f 422/3/6 420/3/6 424/3/6
f 423/3/6 422/3/6 424/3/6
f 425/4/6 426/4/6 429/4/6
f 426/3/6 427/3/6 430/3/6
f 429/4/6 426/4/6 430/4/6
f 427/4/6 428/4/6 431/4/6
f 430/3/6 427/3/6 431/3/6
f 431/4/6 428/4/6 432/4/6
f 425/4/6 429/4/6 433/4/6
f 429/3/6 430/3/6 434/3/6
f 433/4/6 429/4/6 434/4/6
f 430/3/6 431/3/6 434/3/6
f 431/3/6 432/3/6 434/3/6
f 434/3/6 432/3/6 435/3/6
f 435/3/6 432/3/6 436/3/6
f 432/4/6 428/4/6 437/4/6
f 436/3/6 432/3/6 437/3/6
f 437/4/6 428/4/6 438/4/6
f 435/2/6 436/2/6 439/2/6
f 436/3/6 437/3/6 439/3/6
f 437/3/6 438/3/6 439/3/6
f 439/3/6 438/3/6 440/3/6
f 435/2/6 439/2/6 441/2/6
f 439/2/6 440/2/6 441/2/6
f 441/2/6 440/2/6 442/2/6
f 435/2/6 441/2/6 443/2/6
f 441/3/6 442/3/6 443/3/6
f 442/2/6 440/2/6 444/2/6
f 443/3/6 442/3/6 444/3/6
f 433/3/6 434/3/6 445/3/6
f 434/3/6 435/3/6 445/3/6
f 445/3/6 435/3/6 446/3/6
f 443/2/6 444/2/6 447/2/6
f 446/3/6 435/3/6 447/3/6
f 435/2/6 443/2/6 447/2/6
f 444/2/6 440/2/6 448/2/6
f 447/2/6 444/2/6 448/2/6
f 440/3/6 438/3/6 448/3/6
f 448/3/6 438/3/6 449/3/6
f 449/3/6 438/3/6 450/3/6
f 446/3/6 447/3/6 451/3/6
f 445/4/6 446/4/6 451/4/6
f 447/3/6 448/3/6 451/3/6
f 448/3/6 449/3/6 451/3/6
f 451/3/6 449/3/6 452/3/6
f 452/3/6 449/3/6 453/3/6
f 449/4/6 450/4/6 454/4/6
f 453/3/6 449/3/6 454/3/6
f 445/4/6 451/4/6 455/4/6
f 451/4/6 452/4/6 455/4/6
f 452/3/6 453/3/6 456/3/6
f 455/4/6 452/4/6 456/4/6
f 453/4/6 454/4/6 457/4/6
f 456/3/6 453/3/6 457/3/6
f 454/4/6 450/4/6 458/4/6
f 457/4/6 454/4/6 458/4/6
