# MagicaVoxel @ Ephtracy

# group
g Special_PowerLine_CrossLine_Off

# material
mtllib Special_PowerLine_CrossLine_Off.mtl
usemtl palette

# normals
vn -1 0 0
vn 1 0 0
vn 0 0 1
vn 0 0 -1
vn 0 -1 0
vn 0 1 0

# texcoords
vt 0.349609 0.5
vt 0.365234 0.5
vt 0.369141 0.5
vt 0.373047 0.5
vt 0.400391 0.5
vt 0.404297 0.5

# verts
v -5 -5 5
v -5 -5 3
v -5 -5 2
v -5 -5 1
v -5 -5 -1
v -5 -5 -2
v -5 -5 -3
v -5 -5 -5
v -5 -4 4
v -5 -4 3
v -5 -4 -3
v -5 -4 -4
v -5 -3 5
v -5 -3 4
v -5 -3 -4
v -5 -3 -5
v -5 -2 5
v -5 -2 2
v -5 -2 -2
v -5 -2 -5
v -5 -1 5
v -5 -1 1
v -5 -1 -1
v -5 -1 -5
v -5 1 5
v -5 1 1
v -5 1 -1
v -5 1 -5
v -5 2 5
v -5 2 2
v -5 2 -2
v -5 2 -5
v -5 3 5
v -5 3 4
v -5 3 -4
v -5 3 -5
v -5 4 4
v -5 4 3
v -5 4 -3
v -5 4 -4
v -5 5 5
v -5 5 3
v -5 5 2
v -5 5 1
v -5 5 -1
v -5 5 -2
v -5 5 -3
v -5 5 -5
v 5 -5 5
v 5 -5 3
v 5 -5 2
v 5 -5 1
v 5 -5 -1
v 5 -5 -2
v 5 -5 -3
v 5 -5 -5
v 5 -4 4
v 5 -4 3
v 5 -4 -3
v 5 -4 -4
v 5 -3 5
v 5 -3 4
v 5 -3 -4
v 5 -3 -5
v 5 -2 5
v 5 -2 2
v 5 -2 -2
v 5 -2 -5
v 5 -1 5
v 5 -1 1
v 5 -1 -1
v 5 -1 -5
v 5 1 5
v 5 1 1
v 5 1 -1
v 5 1 -5
v 5 2 5
v 5 2 2
v 5 2 -2
v 5 2 -5
v 5 3 5
v 5 3 4
v 5 3 -4
v 5 3 -5
v 5 4 4
v 5 4 3
v 5 4 -3
v 5 4 -4
v 5 5 5
v 5 5 3
v 5 5 2
v 5 5 1
v 5 5 -1
v 5 5 -2
v 5 5 -3
v 5 5 -5
v -5 -5 5
v -5 -3 5
v -5 -2 5
v -5 -1 5
v -5 1 5
v -5 2 5
v -5 3 5
v -5 5 5
v -4 -4 5
v -4 -3 5
v -4 -1 5
v -4 1 5
v -4 3 5
v -4 4 5
v -3 -5 5
v -3 -4 5
v -3 -2 5
v -3 2 5
v -3 4 5
v -3 5 5
v -2 -2 5
v -2 2 5
v -1 -1 5
v -1 1 5
v 1 -1 5
v 1 1 5
v 2 -2 5
v 2 2 5
v 3 -5 5
v 3 -4 5
v 3 -2 5
v 3 2 5
v 3 4 5
v 3 5 5
v 4 -4 5
v 4 -3 5
v 4 -1 5
v 4 1 5
v 4 3 5
v 4 4 5
v 5 -5 5
v 5 -3 5
v 5 -2 5
v 5 -1 5
v 5 1 5
v 5 2 5
v 5 3 5
v 5 5 5
v -5 -5 -5
v -5 -3 -5
v -5 -2 -5
v -5 -1 -5
v -5 1 -5
v -5 2 -5
v -5 3 -5
v -5 5 -5
v -4 -4 -5
v -4 -3 -5
v -4 -1 -5
v -4 1 -5
v -4 3 -5
v -4 4 -5
v -3 -5 -5
v -3 -4 -5
v -3 -2 -5
v -3 2 -5
v -3 4 -5
v -3 5 -5
v -2 -2 -5
v -2 2 -5
v -1 -1 -5
v -1 1 -5
v 1 -1 -5
v 1 1 -5
v 2 -2 -5
v 2 2 -5
v 3 -5 -5
v 3 -4 -5
v 3 -2 -5
v 3 2 -5
v 3 4 -5
v 3 5 -5
v 4 -4 -5
v 4 -3 -5
v 4 -1 -5
v 4 1 -5
v 4 3 -5
v 4 4 -5
v 5 -5 -5
v 5 -3 -5
v 5 -2 -5
v 5 -1 -5
v 5 1 -5
v 5 2 -5
v 5 3 -5
v 5 5 -5
v -5 -5 5
v -3 -5 5
v 3 -5 5
v 5 -5 5
v -4 -5 4
v -3 -5 4
v 3 -5 4
v 4 -5 4
v -5 -5 3
v -4 -5 3
v 4 -5 3
v 5 -5 3
v -5 -5 2
v -3 -5 2
v -1 -5 2
v 1 -5 2
v 3 -5 2
v 5 -5 2
v -5 -5 1
v -4 -5 1
v -2 -5 1
v -1 -5 1
v 1 -5 1
v 2 -5 1
v 4 -5 1
v 5 -5 1
v -5 -5 -1
v -4 -5 -1
v -2 -5 -1
v -1 -5 -1
v 1 -5 -1
v 2 -5 -1
v 4 -5 -1
v 5 -5 -1
v -5 -5 -2
v -3 -5 -2
v -1 -5 -2
v 1 -5 -2
v 3 -5 -2
v 5 -5 -2
v -5 -5 -3
v -4 -5 -3
v 4 -5 -3
v 5 -5 -3
v -4 -5 -4
v -3 -5 -4
v 3 -5 -4
v 4 -5 -4
v -5 -5 -5
v -3 -5 -5
v 3 -5 -5
v 5 -5 -5
v -5 5 5
v -3 5 5
v 3 5 5
v 5 5 5
v -4 5 4
v -3 5 4
v 3 5 4
v 4 5 4
v -5 5 3
v -4 5 3
v 4 5 3
v 5 5 3
v -5 5 2
v -3 5 2
v -1 5 2
v 1 5 2
v 3 5 2
v 5 5 2
v -5 5 1
v -4 5 1
v -2 5 1
v -1 5 1
v 1 5 1
v 2 5 1
v 4 5 1
v 5 5 1
v -5 5 -1
v -4 5 -1
v -2 5 -1
v -1 5 -1
v 1 5 -1
v 2 5 -1
v 4 5 -1
v 5 5 -1
v -5 5 -2
v -3 5 -2
v -1 5 -2
v 1 5 -2
v 3 5 -2
v 5 5 -2
v -5 5 -3
v -4 5 -3
v 4 5 -3
v 5 5 -3
v -4 5 -4
v -3 5 -4
v 3 5 -4
v 4 5 -4
v -5 5 -5
v -3 5 -5
v 3 5 -5
v 5 5 -5

# faces
f 9/4/1 2/4/1 1/4/1
f 10/3/1 3/3/1 2/3/1
f 10/4/1 2/4/1 9/4/1
f 11/4/1 8/4/1 7/4/1
f 11/3/1 7/3/1 6/3/1
f 12/4/1 8/4/1 11/4/1
f 13/4/1 9/4/1 1/4/1
f 14/3/1 10/3/1 9/3/1
f 14/4/1 9/4/1 13/4/1
f 15/4/1 8/4/1 12/4/1
f 15/3/1 12/3/1 11/3/1
f 16/4/1 8/4/1 15/4/1
f 17/3/1 14/3/1 13/3/1
f 18/3/1 3/3/1 10/3/1
f 18/3/1 14/3/1 17/3/1
f 18/3/1 10/3/1 14/3/1
f 18/4/1 4/4/1 3/4/1
f 19/3/1 16/3/1 15/3/1
f 19/3/1 15/3/1 11/3/1
f 19/4/1 6/4/1 5/4/1
f 19/3/1 11/3/1 6/3/1
f 20/3/1 16/3/1 19/3/1
f 21/4/1 18/4/1 17/4/1
f 22/4/1 4/4/1 18/4/1
f 22/4/1 18/4/1 21/4/1
f 22/5/1 5/5/1 4/5/1
f 23/4/1 20/4/1 19/4/1
f 23/5/1 5/5/1 22/5/1
f 23/4/1 19/4/1 5/4/1
f 24/4/1 20/4/1 23/4/1
f 25/5/1 22/5/1 21/5/1
f 25/5/1 23/5/1 22/5/1
f 25/5/1 24/5/1 23/5/1
f 26/5/1 24/5/1 25/5/1
f 27/5/1 24/5/1 26/5/1
f 28/5/1 24/5/1 27/5/1
f 29/4/1 26/4/1 25/4/1
f 30/4/1 26/4/1 29/4/1
f 31/4/1 28/4/1 27/4/1
f 32/4/1 28/4/1 31/4/1
f 33/3/1 30/3/1 29/3/1
f 34/3/1 30/3/1 33/3/1
f 35/3/1 32/3/1 31/3/1
f 36/3/1 32/3/1 35/3/1
f 37/3/1 30/3/1 34/3/1
f 37/4/1 34/4/1 33/4/1
f 38/3/1 30/3/1 37/3/1
f 39/3/1 35/3/1 31/3/1
f 40/4/1 36/4/1 35/4/1
f 40/3/1 35/3/1 39/3/1
f 41/4/1 37/4/1 33/4/1
f 41/4/1 38/4/1 37/4/1
f 42/3/1 30/3/1 38/3/1
f 42/4/1 38/4/1 41/4/1
f 43/4/1 26/4/1 30/4/1
f 43/3/1 30/3/1 42/3/1
f 44/5/1 27/5/1 26/5/1
f 44/4/1 26/4/1 43/4/1
f 45/4/1 31/4/1 27/4/1
f 45/5/1 27/5/1 44/5/1
f 46/3/1 39/3/1 31/3/1
f 46/4/1 31/4/1 45/4/1
f 47/4/1 40/4/1 39/4/1
f 47/3/1 39/3/1 46/3/1
f 48/4/1 36/4/1 40/4/1
f 48/4/1 40/4/1 47/4/1
f 49/4/2 50/4/2 57/4/2
f 50/3/2 51/3/2 58/3/2
f 57/4/2 50/4/2 58/4/2
f 55/4/2 56/4/2 59/4/2
f 54/3/2 55/3/2 59/3/2
f 59/4/2 56/4/2 60/4/2
f 49/4/2 57/4/2 61/4/2
f 57/3/2 58/3/2 62/3/2
f 61/4/2 57/4/2 62/4/2
f 60/4/2 56/4/2 63/4/2
f 59/3/2 60/3/2 63/3/2
f 63/4/2 56/4/2 64/4/2
f 61/3/2 62/3/2 65/3/2
f 58/3/2 51/3/2 66/3/2
f 65/3/2 62/3/2 66/3/2
f 62/3/2 58/3/2 66/3/2
f 51/4/2 52/4/2 66/4/2
f 63/3/2 64/3/2 67/3/2
f 59/3/2 63/3/2 67/3/2
f 53/4/2 54/4/2 67/4/2
f 54/3/2 59/3/2 67/3/2
f 67/3/2 64/3/2 68/3/2
f 65/4/2 66/4/2 69/4/2
f 66/4/2 52/4/2 70/4/2
f 69/4/2 66/4/2 70/4/2
f 52/5/2 53/5/2 70/5/2
f 67/4/2 68/4/2 71/4/2
f 70/5/2 53/5/2 71/5/2
f 53/4/2 67/4/2 71/4/2
f 71/4/2 68/4/2 72/4/2
f 69/5/2 70/5/2 73/5/2
f 70/5/2 71/5/2 73/5/2
f 71/5/2 72/5/2 73/5/2
f 73/5/2 72/5/2 74/5/2
f 74/5/2 72/5/2 75/5/2
f 75/5/2 72/5/2 76/5/2
f 73/4/2 74/4/2 77/4/2
f 77/4/2 74/4/2 78/4/2
f 75/4/2 76/4/2 79/4/2
f 79/4/2 76/4/2 80/4/2
f 77/3/2 78/3/2 81/3/2
f 81/3/2 78/3/2 82/3/2
f 79/3/2 80/3/2 83/3/2
f 83/3/2 80/3/2 84/3/2
f 82/3/2 78/3/2 85/3/2
f 81/4/2 82/4/2 85/4/2
f 85/3/2 78/3/2 86/3/2
f 79/3/2 83/3/2 87/3/2
f 83/4/2 84/4/2 88/4/2
f 87/3/2 83/3/2 88/3/2
f 81/4/2 85/4/2 89/4/2
f 85/4/2 86/4/2 89/4/2
f 86/3/2 78/3/2 90/3/2
f 89/4/2 86/4/2 90/4/2
f 78/4/2 74/4/2 91/4/2
f 90/3/2 78/3/2 91/3/2
f 74/5/2 75/5/2 92/5/2
f 91/4/2 74/4/2 92/4/2
f 75/4/2 79/4/2 93/4/2
f 92/5/2 75/5/2 93/5/2
f 79/3/2 87/3/2 94/3/2
f 93/4/2 79/4/2 94/4/2
f 87/4/2 88/4/2 95/4/2
f 94/3/2 87/3/2 95/3/2
f 88/4/2 84/4/2 96/4/2
f 95/4/2 88/4/2 96/4/2
f 105/4/3 98/4/3 97/4/3
f 106/3/3 99/3/3 98/3/3
f 106/4/3 98/4/3 105/4/3
f 107/4/3 100/4/3 99/4/3
f 107/5/3 101/5/3 100/5/3
f 108/4/3 102/4/3 101/4/3
f 108/5/3 101/5/3 107/5/3
f 109/4/3 104/4/3 103/4/3
f 109/3/3 103/3/3 102/3/3
f 110/4/3 104/4/3 109/4/3
f 111/4/3 105/4/3 97/4/3
f 112/3/3 106/3/3 105/3/3
f 112/4/3 105/4/3 111/4/3
f 113/3/3 99/3/3 106/3/3
f 113/3/3 106/3/3 112/3/3
f 113/4/3 107/4/3 99/4/3
f 113/4/3 108/4/3 107/4/3
f 114/4/3 102/4/3 108/4/3
f 114/4/3 108/4/3 113/4/3
f 114/3/3 110/3/3 109/3/3
f 114/3/3 109/3/3 102/3/3
f 115/4/3 104/4/3 110/4/3
f 115/3/3 110/3/3 114/3/3
f 116/4/3 104/4/3 115/4/3
f 117/3/3 113/3/3 112/3/3
f 117/3/3 114/3/3 113/3/3
f 117/3/3 116/3/3 115/3/3
f 117/3/3 115/3/3 114/3/3
f 117/3/3 112/3/3 111/3/3
f 118/3/3 116/3/3 117/3/3
f 119/6/3 118/6/3 117/6/3
f 120/6/3 118/6/3 119/6/3
f 121/6/3 119/6/3 117/6/3
f 121/2/3 120/2/3 119/2/3
f 122/6/3 118/6/3 120/6/3
f 122/2/3 120/2/3 121/2/3
f 123/3/3 117/3/3 111/3/3
f 123/6/3 121/6/3 117/6/3
f 123/6/3 122/6/3 121/6/3
f 124/6/3 118/6/3 122/6/3
f 124/6/3 122/6/3 123/6/3
f 124/3/3 116/3/3 118/3/3
f 125/3/3 123/3/3 111/3/3
f 125/3/3 124/3/3 123/3/3
f 126/3/3 124/3/3 125/3/3
f 127/3/3 124/3/3 126/3/3
f 128/3/3 116/3/3 124/3/3
f 128/3/3 124/3/3 127/3/3
f 129/3/3 116/3/3 128/3/3
f 130/3/3 116/3/3 129/3/3
f 131/3/3 127/3/3 126/3/3
f 131/4/3 126/4/3 125/4/3
f 132/3/3 127/3/3 131/3/3
f 133/4/3 128/4/3 127/4/3
f 134/4/3 128/4/3 133/4/3
f 135/3/3 129/3/3 128/3/3
f 136/4/3 130/4/3 129/4/3
f 136/3/3 129/3/3 135/3/3
f 137/4/3 131/4/3 125/4/3
f 137/4/3 132/4/3 131/4/3
f 138/3/3 127/3/3 132/3/3
f 138/4/3 132/4/3 137/4/3
f 139/4/3 133/4/3 127/4/3
f 139/3/3 127/3/3 138/3/3
f 140/5/3 134/5/3 133/5/3
f 140/4/3 133/4/3 139/4/3
f 141/4/3 128/4/3 134/4/3
f 141/5/3 134/5/3 140/5/3
f 142/3/3 135/3/3 128/3/3
f 142/4/3 128/4/3 141/4/3
f 143/4/3 136/4/3 135/4/3
f 143/3/3 135/3/3 142/3/3
f 144/4/3 130/4/3 136/4/3
f 144/4/3 136/4/3 143/4/3
f 145/4/4 146/4/4 153/4/4
f 146/3/4 147/3/4 154/3/4
f 153/4/4 146/4/4 154/4/4
f 147/4/4 148/4/4 155/4/4
f 148/5/4 149/5/4 155/5/4
f 149/4/4 150/4/4 156/4/4
f 155/5/4 149/5/4 156/5/4
f 151/4/4 152/4/4 157/4/4
f 150/3/4 151/3/4 157/3/4
f 157/4/4 152/4/4 158/4/4
f 145/4/4 153/4/4 159/4/4
f 153/3/4 154/3/4 160/3/4
f 159/4/4 153/4/4 160/4/4
f 154/3/4 147/3/4 161/3/4
f 160/3/4 154/3/4 161/3/4
f 147/4/4 155/4/4 161/4/4
f 155/4/4 156/4/4 161/4/4
f 156/4/4 150/4/4 162/4/4
f 161/4/4 156/4/4 162/4/4
f 157/3/4 158/3/4 162/3/4
f 150/3/4 157/3/4 162/3/4
f 158/4/4 152/4/4 163/4/4
f 162/3/4 158/3/4 163/3/4
f 163/4/4 152/4/4 164/4/4
f 160/3/4 161/3/4 165/3/4
f 161/3/4 162/3/4 165/3/4
f 163/3/4 164/3/4 165/3/4
f 162/3/4 163/3/4 165/3/4
f 159/3/4 160/3/4 165/3/4
f 165/3/4 164/3/4 166/3/4
f 165/6/4 166/6/4 167/6/4
f 167/6/4 166/6/4 168/6/4
f 165/6/4 167/6/4 169/6/4
f 167/2/4 168/2/4 169/2/4
f 168/6/4 166/6/4 170/6/4
f 169/2/4 168/2/4 170/2/4
f 159/3/4 165/3/4 171/3/4
f 165/6/4 169/6/4 171/6/4
f 169/6/4 170/6/4 171/6/4
f 170/6/4 166/6/4 172/6/4
f 171/6/4 170/6/4 172/6/4
f 166/3/4 164/3/4 172/3/4
f 159/3/4 171/3/4 173/3/4
f 171/3/4 172/3/4 173/3/4
f 173/3/4 172/3/4 174/3/4
f 174/3/4 172/3/4 175/3/4
f 172/3/4 164/3/4 176/3/4
f 175/3/4 172/3/4 176/3/4
f 176/3/4 164/3/4 177/3/4
f 177/3/4 164/3/4 178/3/4
f 174/3/4 175/3/4 179/3/4
f 173/4/4 174/4/4 179/4/4
f 179/3/4 175/3/4 180/3/4
f 175/4/4 176/4/4 181/4/4
f 181/4/4 176/4/4 182/4/4
f 176/3/4 177/3/4 183/3/4
f 177/4/4 178/4/4 184/4/4
f 183/3/4 177/3/4 184/3/4
f 173/4/4 179/4/4 185/4/4
f 179/4/4 180/4/4 185/4/4
f 180/3/4 175/3/4 186/3/4
f 185/4/4 180/4/4 186/4/4
f 175/4/4 181/4/4 187/4/4
f 186/3/4 175/3/4 187/3/4
f 181/5/4 182/5/4 188/5/4
f 187/4/4 181/4/4 188/4/4
f 182/4/4 176/4/4 189/4/4
f 188/5/4 182/5/4 189/5/4
f 176/3/4 183/3/4 190/3/4
f 189/4/4 176/4/4 190/4/4
f 183/4/4 184/4/4 191/4/4
f 190/3/4 183/3/4 191/3/4
f 184/4/4 178/4/4 192/4/4
f 191/4/4 184/4/4 192/4/4
f 197/4/5 194/4/5 193/4/5
f 198/3/5 195/3/5 194/3/5
f 198/4/5 194/4/5 197/4/5
f 199/4/5 196/4/5 195/4/5
f 199/3/5 195/3/5 198/3/5
f 200/4/5 196/4/5 199/4/5
f 201/4/5 197/4/5 193/4/5
f 202/3/5 198/3/5 197/3/5
f 202/4/5 197/4/5 201/4/5
f 202/3/5 199/3/5 198/3/5
f 202/3/5 200/3/5 199/3/5
f 203/4/5 196/4/5 200/4/5
f 203/3/5 200/3/5 202/3/5
f 204/4/5 196/4/5 203/4/5
f 205/3/5 202/3/5 201/3/5
f 205/3/5 203/3/5 202/3/5
f 205/3/5 204/3/5 203/3/5
f 206/3/5 204/3/5 205/3/5
f 207/3/5 204/3/5 206/3/5
f 208/3/5 204/3/5 207/3/5
f 209/3/5 204/3/5 208/3/5
f 210/3/5 204/3/5 209/3/5
f 211/4/5 206/4/5 205/4/5
f 212/4/5 206/4/5 211/4/5
f 213/3/5 207/3/5 206/3/5
f 214/5/5 208/5/5 207/5/5
f 214/3/5 207/3/5 213/3/5
f 215/3/5 209/3/5 208/3/5
f 215/5/5 208/5/5 214/5/5
f 216/3/5 209/3/5 215/3/5
f 217/4/5 210/4/5 209/4/5
f 218/4/5 210/4/5 217/4/5
f 219/5/5 212/5/5 211/5/5
f 220/4/5 206/4/5 212/4/5
f 220/5/5 212/5/5 219/5/5
f 221/3/5 213/3/5 206/3/5
f 221/5/5 214/5/5 213/5/5
f 221/5/5 215/5/5 214/5/5
f 221/5/5 216/5/5 215/5/5
f 222/5/5 216/5/5 221/5/5
f 223/5/5 216/5/5 222/5/5
f 224/3/5 209/3/5 216/3/5
f 224/5/5 216/5/5 223/5/5
f 225/5/5 218/5/5 217/5/5
f 225/4/5 217/4/5 209/4/5
f 226/5/5 218/5/5 225/5/5
f 227/4/5 220/4/5 219/4/5
f 228/4/5 206/4/5 220/4/5
f 228/4/5 220/4/5 227/4/5
f 228/3/5 221/3/5 206/3/5
f 228/3/5 222/3/5 221/3/5
f 229/5/5 223/5/5 222/5/5
f 229/3/5 222/3/5 228/3/5
f 230/3/5 224/3/5 223/3/5
f 230/5/5 223/5/5 229/5/5
f 231/3/5 209/3/5 224/3/5
f 231/3/5 224/3/5 230/3/5
f 231/4/5 226/4/5 225/4/5
f 231/4/5 225/4/5 209/4/5
f 232/4/5 226/4/5 231/4/5
f 233/3/5 228/3/5 227/3/5
f 233/3/5 230/3/5 229/3/5
f 233/3/5 232/3/5 231/3/5
f 233/3/5 231/3/5 230/3/5
f 233/3/5 229/3/5 228/3/5
f 234/3/5 232/3/5 233/3/5
f 235/3/5 232/3/5 234/3/5
f 236/3/5 232/3/5 235/3/5
f 237/4/5 234/4/5 233/4/5
f 237/3/5 235/3/5 234/3/5
f 238/3/5 235/3/5 237/3/5
f 239/3/5 235/3/5 238/3/5
f 240/4/5 236/4/5 235/4/5
f 240/3/5 235/3/5 239/3/5
f 241/4/5 237/4/5 233/4/5
f 241/4/5 238/4/5 237/4/5
f 242/3/5 239/3/5 238/3/5
f 242/4/5 238/4/5 241/4/5
f 243/4/5 240/4/5 239/4/5
f 243/3/5 239/3/5 242/3/5
f 244/4/5 236/4/5 240/4/5
f 244/4/5 240/4/5 243/4/5
f 245/4/6 246/4/6 249/4/6
f 246/3/6 247/3/6 250/3/6
f 249/4/6 246/4/6 250/4/6
f 247/4/6 248/4/6 251/4/6
f 250/3/6 247/3/6 251/3/6
f 251/4/6 248/4/6 252/4/6
f 245/4/6 249/4/6 253/4/6
f 249/3/6 250/3/6 254/3/6
f 253/4/6 249/4/6 254/4/6
f 250/3/6 251/3/6 254/3/6
f 251/3/6 252/3/6 254/3/6
f 252/4/6 248/4/6 255/4/6
f 254/3/6 252/3/6 255/3/6
f 255/4/6 248/4/6 256/4/6
f 253/3/6 254/3/6 257/3/6
f 254/3/6 255/3/6 257/3/6
f 255/3/6 256/3/6 257/3/6
f 257/3/6 256/3/6 258/3/6
f 258/3/6 256/3/6 259/3/6
f 259/3/6 256/3/6 260/3/6
f 260/3/6 256/3/6 261/3/6
f 261/3/6 256/3/6 262/3/6
f 257/4/6 258/4/6 263/4/6
f 263/4/6 258/4/6 264/4/6
f 258/3/6 259/3/6 265/3/6
f 259/5/6 260/5/6 266/5/6
f 265/3/6 259/3/6 266/3/6
f 260/3/6 261/3/6 267/3/6
f 266/5/6 260/5/6 267/5/6
f 267/3/6 261/3/6 268/3/6
f 261/4/6 262/4/6 269/4/6
f 269/4/6 262/4/6 270/4/6
f 263/5/6 264/5/6 271/5/6
f 264/4/6 258/4/6 272/4/6
f 271/5/6 264/5/6 272/5/6
f 258/3/6 265/3/6 273/3/6
f 265/5/6 266/5/6 273/5/6
f 266/5/6 267/5/6 273/5/6
f 267/5/6 268/5/6 273/5/6
f 273/5/6 268/5/6 274/5/6
f 274/5/6 268/5/6 275/5/6
f 268/3/6 261/3/6 276/3/6
f 275/5/6 268/5/6 276/5/6
f 269/5/6 270/5/6 277/5/6
f 261/4/6 269/4/6 277/4/6
f 277/5/6 270/5/6 278/5/6
f 271/4/6 272/4/6 279/4/6
f 272/4/6 258/4/6 280/4/6
f 279/4/6 272/4/6 280/4/6
f 258/3/6 273/3/6 280/3/6
f 273/3/6 274/3/6 280/3/6
f 274/5/6 275/5/6 281/5/6
f 280/3/6 274/3/6 281/3/6
f 275/3/6 276/3/6 282/3/6
f 281/5/6 275/5/6 282/5/6
f 276/3/6 261/3/6 283/3/6
f 282/3/6 276/3/6 283/3/6
f 277/4/6 278/4/6 283/4/6
f 261/4/6 277/4/6 283/4/6
f 283/4/6 278/4/6 284/4/6
f 279/3/6 280/3/6 285/3/6
f 281/3/6 282/3/6 285/3/6
f 283/3/6 284/3/6 285/3/6
f 282/3/6 283/3/6 285/3/6
f 280/3/6 281/3/6 285/3/6
f 285/3/6 284/3/6 286/3/6
f 286/3/6 284/3/6 287/3/6
f 287/3/6 284/3/6 288/3/6
f 285/4/6 286/4/6 289/4/6
f 286/3/6 287/3/6 289/3/6
f 289/3/6 287/3/6 290/3/6
f 290/3/6 287/3/6 291/3/6
f 287/4/6 288/4/6 292/4/6
f 291/3/6 287/3/6 292/3/6
f 285/4/6 289/4/6 293/4/6
f 289/4/6 290/4/6 293/4/6
f 290/3/6 291/3/6 294/3/6
f 293/4/6 290/4/6 294/4/6
f 291/4/6 292/4/6 295/4/6
f 294/3/6 291/3/6 295/3/6
f 292/4/6 288/4/6 296/4/6
f 295/4/6 292/4/6 296/4/6
