# MagicaVoxel @ Ephtracy

# group
g Special_PowerLine_TLine_Off

# material
mtllib Special_PowerLine_TLine_Off.mtl
usemtl palette

# normals
vn -1 0 0
vn 1 0 0
vn 0 0 1
vn 0 0 -1
vn 0 -1 0
vn 0 1 0

# texcoords
vt 0.353516 0.5
vt 0.365234 0.5
vt 0.369141 0.5
vt 0.373047 0.5
vt 0.400391 0.5
vt 0.404297 0.5

# verts
v -5 -5 5
v -5 -5 3
v -5 -5 2
v -5 -5 1
v -5 -5 -1
v -5 -5 -2
v -5 -5 -3
v -5 -5 -5
v -5 -4 4
v -5 -4 3
v -5 -4 -3
v -5 -4 -4
v -5 -3 5
v -5 -3 4
v -5 -3 -4
v -5 -3 -5
v -5 -2 -2
v -5 -2 -5
v -5 -1 -1
v -5 -1 -5
v -5 1 -1
v -5 1 -5
v -5 2 -2
v -5 2 -5
v -5 3 5
v -5 3 4
v -5 3 -4
v -5 3 -5
v -5 4 4
v -5 4 3
v -5 4 -3
v -5 4 -4
v -5 5 5
v -5 5 3
v -5 5 2
v -5 5 1
v -5 5 -1
v -5 5 -2
v -5 5 -3
v -5 5 -5
v 5 -5 5
v 5 -5 3
v 5 -5 2
v 5 -5 1
v 5 -5 -1
v 5 -5 -2
v 5 -5 -3
v 5 -5 -5
v 5 -4 4
v 5 -4 3
v 5 -4 -3
v 5 -4 -4
v 5 -3 5
v 5 -3 4
v 5 -3 -4
v 5 -3 -5
v 5 -2 -2
v 5 -2 -5
v 5 -1 -1
v 5 -1 -5
v 5 1 -1
v 5 1 -5
v 5 2 -2
v 5 2 -5
v 5 3 5
v 5 3 4
v 5 3 -4
v 5 3 -5
v 5 4 4
v 5 4 3
v 5 4 -3
v 5 4 -4
v 5 5 5
v 5 5 3
v 5 5 2
v 5 5 1
v 5 5 -1
v 5 5 -2
v 5 5 -3
v 5 5 -5
v -5 -5 5
v -5 -3 5
v -5 3 5
v -5 5 5
v -4 -4 5
v -4 -3 5
v -4 3 5
v -4 4 5
v -3 -5 5
v -3 -4 5
v -3 4 5
v -3 5 5
v -2 -2 5
v -2 2 5
v -1 -1 5
v -1 1 5
v 1 -1 5
v 1 1 5
v 2 -2 5
v 2 2 5
v 3 -5 5
v 3 -4 5
v 3 4 5
v 3 5 5
v 4 -4 5
v 4 -3 5
v 4 3 5
v 4 4 5
v 5 -5 5
v 5 -3 5
v 5 3 5
v 5 5 5
v -5 -5 -5
v -5 -3 -5
v -5 -2 -5
v -5 -1 -5
v -5 1 -5
v -5 2 -5
v -5 3 -5
v -5 5 -5
v -4 -4 -5
v -4 -3 -5
v -4 -1 -5
v -4 1 -5
v -4 3 -5
v -4 4 -5
v -3 -5 -5
v -3 -4 -5
v -3 -2 -5
v -3 2 -5
v -3 4 -5
v -3 5 -5
v -2 -2 -5
v -2 2 -5
v -1 -1 -5
v -1 1 -5
v 1 -1 -5
v 1 1 -5
v 2 -2 -5
v 2 2 -5
v 3 -5 -5
v 3 -4 -5
v 3 -2 -5
v 3 2 -5
v 3 4 -5
v 3 5 -5
v 4 -4 -5
v 4 -3 -5
v 4 -1 -5
v 4 1 -5
v 4 3 -5
v 4 4 -5
v 5 -5 -5
v 5 -3 -5
v 5 -2 -5
v 5 -1 -5
v 5 1 -5
v 5 2 -5
v 5 3 -5
v 5 5 -5
v -5 -5 5
v -3 -5 5
v 3 -5 5
v 5 -5 5
v -4 -5 4
v -3 -5 4
v 3 -5 4
v 4 -5 4
v -5 -5 3
v -4 -5 3
v 4 -5 3
v 5 -5 3
v -5 -5 2
v -4 -5 2
v -1 -5 2
v 1 -5 2
v 3 -5 2
v 5 -5 2
v -5 -5 1
v -4 -5 1
v -2 -5 1
v -1 -5 1
v 1 -5 1
v 2 -5 1
v 4 -5 1
v 5 -5 1
v -5 -5 -1
v -4 -5 -1
v -2 -5 -1
v -1 -5 -1
v 1 -5 -1
v 2 -5 -1
v 4 -5 -1
v 5 -5 -1
v -5 -5 -2
v -4 -5 -2
v -1 -5 -2
v 1 -5 -2
v 3 -5 -2
v 5 -5 -2
v -5 -5 -3
v -4 -5 -3
v 4 -5 -3
v 5 -5 -3
v -4 -5 -4
v -3 -5 -4
v 3 -5 -4
v 4 -5 -4
v -5 -5 -5
v -3 -5 -5
v 3 -5 -5
v 5 -5 -5
v -5 5 5
v -3 5 5
v 3 5 5
v 5 5 5
v -4 5 4
v -3 5 4
v 3 5 4
v 4 5 4
v -5 5 3
v -4 5 3
v 4 5 3
v 5 5 3
v -5 5 2
v -3 5 2
v -1 5 2
v 1 5 2
v 3 5 2
v 5 5 2
v -5 5 1
v -4 5 1
v -2 5 1
v -1 5 1
v 1 5 1
v 2 5 1
v 4 5 1
v 5 5 1
v -5 5 -1
v -4 5 -1
v -2 5 -1
v -1 5 -1
v 1 5 -1
v 2 5 -1
v 4 5 -1
v 5 5 -1
v -5 5 -2
v -3 5 -2
v -1 5 -2
v 1 5 -2
v 3 5 -2
v 5 5 -2
v -5 5 -3
v -4 5 -3
v 4 5 -3
v 5 5 -3
v -4 5 -4
v -3 5 -4
v 3 5 -4
v 4 5 -4
v -5 5 -5
v -3 5 -5
v 3 5 -5
v 5 5 -5

# faces
f 9/4/1 2/4/1 1/4/1
f 10/3/1 3/3/1 2/3/1
f 10/4/1 2/4/1 9/4/1
f 11/4/1 8/4/1 7/4/1
f 11/3/1 7/3/1 6/3/1
f 12/4/1 8/4/1 11/4/1
f 13/4/1 9/4/1 1/4/1
f 14/3/1 10/3/1 9/3/1
f 14/4/1 9/4/1 13/4/1
f 15/4/1 8/4/1 12/4/1
f 15/3/1 12/3/1 11/3/1
f 16/4/1 8/4/1 15/4/1
f 17/4/1 6/4/1 5/4/1
f 17/3/1 11/3/1 6/3/1
f 17/3/1 16/3/1 15/3/1
f 17/3/1 15/3/1 11/3/1
f 18/3/1 16/3/1 17/3/1
f 19/5/1 5/5/1 4/5/1
f 19/4/1 17/4/1 5/4/1
f 19/4/1 18/4/1 17/4/1
f 20/4/1 18/4/1 19/4/1
f 21/5/1 19/5/1 4/5/1
f 21/5/1 20/5/1 19/5/1
f 22/5/1 20/5/1 21/5/1
f 23/4/1 22/4/1 21/4/1
f 24/4/1 22/4/1 23/4/1
f 25/3/1 14/3/1 13/3/1
f 26/3/1 10/3/1 14/3/1
f 26/3/1 14/3/1 25/3/1
f 27/3/1 24/3/1 23/3/1
f 28/3/1 24/3/1 27/3/1
f 29/3/1 10/3/1 26/3/1
f 29/4/1 26/4/1 25/4/1
f 30/3/1 3/3/1 10/3/1
f 30/3/1 10/3/1 29/3/1
f 31/3/1 27/3/1 23/3/1
f 32/4/1 28/4/1 27/4/1
f 32/3/1 27/3/1 31/3/1
f 33/4/1 29/4/1 25/4/1
f 33/4/1 30/4/1 29/4/1
f 34/3/1 3/3/1 30/3/1
f 34/4/1 30/4/1 33/4/1
f 35/4/1 4/4/1 3/4/1
f 35/3/1 3/3/1 34/3/1
f 36/5/1 21/5/1 4/5/1
f 36/4/1 4/4/1 35/4/1
f 37/4/1 23/4/1 21/4/1
f 37/5/1 21/5/1 36/5/1
f 38/3/1 31/3/1 23/3/1
f 38/4/1 23/4/1 37/4/1
f 39/4/1 32/4/1 31/4/1
f 39/3/1 31/3/1 38/3/1
f 40/4/1 28/4/1 32/4/1
f 40/4/1 32/4/1 39/4/1
f 41/4/2 42/4/2 49/4/2
f 42/3/2 43/3/2 50/3/2
f 49/4/2 42/4/2 50/4/2
f 47/4/2 48/4/2 51/4/2
f 46/3/2 47/3/2 51/3/2
f 51/4/2 48/4/2 52/4/2
f 41/4/2 49/4/2 53/4/2
f 49/3/2 50/3/2 54/3/2
f 53/4/2 49/4/2 54/4/2
f 52/4/2 48/4/2 55/4/2
f 51/3/2 52/3/2 55/3/2
f 55/4/2 48/4/2 56/4/2
f 45/4/2 46/4/2 57/4/2
f 46/3/2 51/3/2 57/3/2
f 55/3/2 56/3/2 57/3/2
f 51/3/2 55/3/2 57/3/2
f 57/3/2 56/3/2 58/3/2
f 44/5/2 45/5/2 59/5/2
f 45/4/2 57/4/2 59/4/2
f 57/4/2 58/4/2 59/4/2
f 59/4/2 58/4/2 60/4/2
f 44/5/2 59/5/2 61/5/2
f 59/5/2 60/5/2 61/5/2
f 61/5/2 60/5/2 62/5/2
f 61/4/2 62/4/2 63/4/2
f 63/4/2 62/4/2 64/4/2
f 53/3/2 54/3/2 65/3/2
f 54/3/2 50/3/2 66/3/2
f 65/3/2 54/3/2 66/3/2
f 63/3/2 64/3/2 67/3/2
f 67/3/2 64/3/2 68/3/2
f 66/3/2 50/3/2 69/3/2
f 65/4/2 66/4/2 69/4/2
f 50/3/2 43/3/2 70/3/2
f 69/3/2 50/3/2 70/3/2
f 63/3/2 67/3/2 71/3/2
f 67/4/2 68/4/2 72/4/2
f 71/3/2 67/3/2 72/3/2
f 65/4/2 69/4/2 73/4/2
f 69/4/2 70/4/2 73/4/2
f 70/3/2 43/3/2 74/3/2
f 73/4/2 70/4/2 74/4/2
f 43/4/2 44/4/2 75/4/2
f 74/3/2 43/3/2 75/3/2
f 44/5/2 61/5/2 76/5/2
f 75/4/2 44/4/2 76/4/2
f 61/4/2 63/4/2 77/4/2
f 76/5/2 61/5/2 77/5/2
f 63/3/2 71/3/2 78/3/2
f 77/4/2 63/4/2 78/4/2
f 71/4/2 72/4/2 79/4/2
f 78/3/2 71/3/2 79/3/2
f 72/4/2 68/4/2 80/4/2
f 79/4/2 72/4/2 80/4/2
f 85/4/3 82/4/3 81/4/3
f 86/3/3 83/3/3 82/3/3
f 86/4/3 82/4/3 85/4/3
f 87/4/3 84/4/3 83/4/3
f 87/3/3 83/3/3 86/3/3
f 88/4/3 84/4/3 87/4/3
f 89/4/3 85/4/3 81/4/3
f 90/3/3 86/3/3 85/3/3
f 90/4/3 85/4/3 89/4/3
f 90/3/3 87/3/3 86/3/3
f 90/3/3 88/3/3 87/3/3
f 91/4/3 84/4/3 88/4/3
f 91/3/3 88/3/3 90/3/3
f 92/4/3 84/4/3 91/4/3
f 93/3/3 90/3/3 89/3/3
f 93/3/3 91/3/3 90/3/3
f 93/3/3 92/3/3 91/3/3
f 94/3/3 92/3/3 93/3/3
f 95/6/3 94/6/3 93/6/3
f 96/6/3 94/6/3 95/6/3
f 97/6/3 95/6/3 93/6/3
f 97/2/3 96/2/3 95/2/3
f 98/6/3 94/6/3 96/6/3
f 98/2/3 96/2/3 97/2/3
f 99/3/3 93/3/3 89/3/3
f 99/6/3 97/6/3 93/6/3
f 99/6/3 98/6/3 97/6/3
f 100/6/3 94/6/3 98/6/3
f 100/6/3 98/6/3 99/6/3
f 100/3/3 92/3/3 94/3/3
f 101/3/3 99/3/3 89/3/3
f 101/3/3 100/3/3 99/3/3
f 102/3/3 100/3/3 101/3/3
f 103/3/3 92/3/3 100/3/3
f 103/3/3 100/3/3 102/3/3
f 104/3/3 92/3/3 103/3/3
f 105/4/3 102/4/3 101/4/3
f 105/3/3 103/3/3 102/3/3
f 106/3/3 103/3/3 105/3/3
f 107/3/3 103/3/3 106/3/3
f 108/4/3 104/4/3 103/4/3
f 108/3/3 103/3/3 107/3/3
f 109/4/3 105/4/3 101/4/3
f 109/4/3 106/4/3 105/4/3
f 110/3/3 107/3/3 106/3/3
f 110/4/3 106/4/3 109/4/3
f 111/4/3 108/4/3 107/4/3
f 111/3/3 107/3/3 110/3/3
f 112/4/3 104/4/3 108/4/3
f 112/4/3 108/4/3 111/4/3
f 113/4/4 114/4/4 121/4/4
f 114/3/4 115/3/4 122/3/4
f 121/4/4 114/4/4 122/4/4
f 115/4/4 116/4/4 123/4/4
f 116/5/4 117/5/4 123/5/4
f 117/4/4 118/4/4 124/4/4
f 123/5/4 117/5/4 124/5/4
f 119/4/4 120/4/4 125/4/4
f 118/3/4 119/3/4 125/3/4
f 125/4/4 120/4/4 126/4/4
f 113/4/4 121/4/4 127/4/4
f 121/3/4 122/3/4 128/3/4
f 127/4/4 121/4/4 128/4/4
f 122/3/4 115/3/4 129/3/4
f 128/3/4 122/3/4 129/3/4
f 115/4/4 123/4/4 129/4/4
f 123/4/4 124/4/4 129/4/4
f 124/4/4 118/4/4 130/4/4
f 129/4/4 124/4/4 130/4/4
f 125/3/4 126/3/4 130/3/4
f 118/3/4 125/3/4 130/3/4
f 126/4/4 120/4/4 131/4/4
f 130/3/4 126/3/4 131/3/4
f 131/4/4 120/4/4 132/4/4
f 128/3/4 129/3/4 133/3/4
f 129/3/4 130/3/4 133/3/4
f 131/3/4 132/3/4 133/3/4
f 130/3/4 131/3/4 133/3/4
f 127/3/4 128/3/4 133/3/4
f 133/3/4 132/3/4 134/3/4
f 133/6/4 134/6/4 135/6/4
f 135/6/4 134/6/4 136/6/4
f 133/6/4 135/6/4 137/6/4
f 135/2/4 136/2/4 137/2/4
f 136/6/4 134/6/4 138/6/4
f 137/2/4 136/2/4 138/2/4
f 127/3/4 133/3/4 139/3/4
f 133/6/4 137/6/4 139/6/4
f 137/6/4 138/6/4 139/6/4
f 138/6/4 134/6/4 140/6/4
f 139/6/4 138/6/4 140/6/4
f 134/3/4 132/3/4 140/3/4
f 127/3/4 139/3/4 141/3/4
f 139/3/4 140/3/4 141/3/4
f 141/3/4 140/3/4 142/3/4
f 142/3/4 140/3/4 143/3/4
f 140/3/4 132/3/4 144/3/4
f 143/3/4 140/3/4 144/3/4
f 144/3/4 132/3/4 145/3/4
f 145/3/4 132/3/4 146/3/4
f 142/3/4 143/3/4 147/3/4
f 141/4/4 142/4/4 147/4/4
f 147/3/4 143/3/4 148/3/4
f 143/4/4 144/4/4 149/4/4
f 149/4/4 144/4/4 150/4/4
f 144/3/4 145/3/4 151/3/4
f 145/4/4 146/4/4 152/4/4
f 151/3/4 145/3/4 152/3/4
f 141/4/4 147/4/4 153/4/4
f 147/4/4 148/4/4 153/4/4
f 148/3/4 143/3/4 154/3/4
f 153/4/4 148/4/4 154/4/4
f 143/4/4 149/4/4 155/4/4
f 154/3/4 143/3/4 155/3/4
f 149/5/4 150/5/4 156/5/4
f 155/4/4 149/4/4 156/4/4
f 150/4/4 144/4/4 157/4/4
f 156/5/4 150/5/4 157/5/4
f 144/3/4 151/3/4 158/3/4
f 157/4/4 144/4/4 158/4/4
f 151/4/4 152/4/4 159/4/4
f 158/3/4 151/3/4 159/3/4
f 152/4/4 146/4/4 160/4/4
f 159/4/4 152/4/4 160/4/4
f 165/4/5 162/4/5 161/4/5
f 166/3/5 163/3/5 162/3/5
f 166/4/5 162/4/5 165/4/5
f 167/4/5 164/4/5 163/4/5
f 167/3/5 163/3/5 166/3/5
f 168/4/5 164/4/5 167/4/5
f 169/4/5 165/4/5 161/4/5
f 170/3/5 166/3/5 165/3/5
f 170/4/5 165/4/5 169/4/5
f 170/3/5 167/3/5 166/3/5
f 170/3/5 168/3/5 167/3/5
f 171/4/5 164/4/5 168/4/5
f 171/3/5 168/3/5 170/3/5
f 172/4/5 164/4/5 171/4/5
f 173/3/5 170/3/5 169/3/5
f 173/3/5 171/3/5 170/3/5
f 173/3/5 172/3/5 171/3/5
f 174/3/5 172/3/5 173/3/5
f 175/3/5 172/3/5 174/3/5
f 176/3/5 172/3/5 175/3/5
f 177/3/5 172/3/5 176/3/5
f 178/3/5 172/3/5 177/3/5
f 179/4/5 174/4/5 173/4/5
f 180/3/5 175/3/5 174/3/5
f 180/4/5 174/4/5 179/4/5
f 181/3/5 175/3/5 180/3/5
f 182/5/5 176/5/5 175/5/5
f 182/3/5 175/3/5 181/3/5
f 183/3/5 177/3/5 176/3/5
f 183/5/5 176/5/5 182/5/5
f 184/3/5 177/3/5 183/3/5
f 185/4/5 178/4/5 177/4/5
f 186/4/5 178/4/5 185/4/5
f 187/5/5 180/5/5 179/5/5
f 188/3/5 181/3/5 180/3/5
f 188/5/5 180/5/5 187/5/5
f 189/5/5 182/5/5 181/5/5
f 189/3/5 181/3/5 188/3/5
f 189/5/5 183/5/5 182/5/5
f 189/5/5 184/5/5 183/5/5
f 190/5/5 184/5/5 189/5/5
f 191/5/5 184/5/5 190/5/5
f 192/3/5 177/3/5 184/3/5
f 192/5/5 184/5/5 191/5/5
f 193/5/5 186/5/5 185/5/5
f 193/4/5 185/4/5 177/4/5
f 194/5/5 186/5/5 193/5/5
f 195/4/5 188/4/5 187/4/5
f 196/3/5 189/3/5 188/3/5
f 196/4/5 188/4/5 195/4/5
f 196/3/5 190/3/5 189/3/5
f 197/5/5 191/5/5 190/5/5
f 197/3/5 190/3/5 196/3/5
f 198/3/5 192/3/5 191/3/5
f 198/5/5 191/5/5 197/5/5
f 199/3/5 177/3/5 192/3/5
f 199/3/5 192/3/5 198/3/5
f 199/4/5 194/4/5 193/4/5
f 199/4/5 193/4/5 177/4/5
f 200/4/5 194/4/5 199/4/5
f 201/3/5 196/3/5 195/3/5
f 201/3/5 198/3/5 197/3/5
f 201/3/5 200/3/5 199/3/5
f 201/3/5 199/3/5 198/3/5
f 201/3/5 197/3/5 196/3/5
f 202/3/5 200/3/5 201/3/5
f 203/3/5 200/3/5 202/3/5
f 204/3/5 200/3/5 203/3/5
f 205/4/5 202/4/5 201/4/5
f 205/3/5 203/3/5 202/3/5
f 206/3/5 203/3/5 205/3/5
f 207/3/5 203/3/5 206/3/5
f 208/4/5 204/4/5 203/4/5
f 208/3/5 203/3/5 207/3/5
f 209/4/5 205/4/5 201/4/5
f 209/4/5 206/4/5 205/4/5
f 210/3/5 207/3/5 206/3/5
f 210/4/5 206/4/5 209/4/5
f 211/4/5 208/4/5 207/4/5
f 211/3/5 207/3/5 210/3/5
f 212/4/5 204/4/5 208/4/5
f 212/4/5 208/4/5 211/4/5
f 213/4/6 214/4/6 217/4/6
f 214/3/6 215/3/6 218/3/6
f 217/4/6 214/4/6 218/4/6
f 215/4/6 216/4/6 219/4/6
f 218/3/6 215/3/6 219/3/6
f 219/4/6 216/4/6 220/4/6
f 213/4/6 217/4/6 221/4/6
f 217/3/6 218/3/6 222/3/6
f 221/4/6 217/4/6 222/4/6
f 218/3/6 219/3/6 222/3/6
f 219/3/6 220/3/6 222/3/6
f 220/4/6 216/4/6 223/4/6
f 222/3/6 220/3/6 223/3/6
f 223/4/6 216/4/6 224/4/6
f 221/3/6 222/3/6 225/3/6
f 222/3/6 223/3/6 225/3/6
f 223/3/6 224/3/6 225/3/6
f 225/3/6 224/3/6 226/3/6
f 226/3/6 224/3/6 227/3/6
f 227/3/6 224/3/6 228/3/6
f 228/3/6 224/3/6 229/3/6
f 229/3/6 224/3/6 230/3/6
f 225/4/6 226/4/6 231/4/6
f 231/4/6 226/4/6 232/4/6
f 226/3/6 227/3/6 233/3/6
f 227/5/6 228/5/6 234/5/6
f 233/3/6 227/3/6 234/3/6
f 228/3/6 229/3/6 235/3/6
f 234/5/6 228/5/6 235/5/6
f 235/3/6 229/3/6 236/3/6
f 229/4/6 230/4/6 237/4/6
f 237/4/6 230/4/6 238/4/6
f 231/5/6 232/5/6 239/5/6
f 232/4/6 226/4/6 240/4/6
f 239/5/6 232/5/6 240/5/6
f 226/3/6 233/3/6 241/3/6
f 233/5/6 234/5/6 241/5/6
f 234/5/6 235/5/6 241/5/6
f 235/5/6 236/5/6 241/5/6
f 241/5/6 236/5/6 242/5/6
f 242/5/6 236/5/6 243/5/6
f 236/3/6 229/3/6 244/3/6
f 243/5/6 236/5/6 244/5/6
f 237/5/6 238/5/6 245/5/6
f 229/4/6 237/4/6 245/4/6
f 245/5/6 238/5/6 246/5/6
f 239/4/6 240/4/6 247/4/6
f 240/4/6 226/4/6 248/4/6
f 247/4/6 240/4/6 248/4/6
f 226/3/6 241/3/6 248/3/6
f 241/3/6 242/3/6 248/3/6
f 242/5/6 243/5/6 249/5/6
f 248/3/6 242/3/6 249/3/6
f 243/3/6 244/3/6 250/3/6
f 249/5/6 243/5/6 250/5/6
f 244/3/6 229/3/6 251/3/6
f 250/3/6 244/3/6 251/3/6
f 245/4/6 246/4/6 251/4/6
f 229/4/6 245/4/6 251/4/6
f 251/4/6 246/4/6 252/4/6
f 247/3/6 248/3/6 253/3/6
f 249/3/6 250/3/6 253/3/6
f 251/3/6 252/3/6 253/3/6
f 250/3/6 251/3/6 253/3/6
f 248/3/6 249/3/6 253/3/6
f 253/3/6 252/3/6 254/3/6
f 254/3/6 252/3/6 255/3/6
f 255/3/6 252/3/6 256/3/6
f 253/4/6 254/4/6 257/4/6
f 254/3/6 255/3/6 257/3/6
f 257/3/6 255/3/6 258/3/6
f 258/3/6 255/3/6 259/3/6
f 255/4/6 256/4/6 260/4/6
f 259/3/6 255/3/6 260/3/6
f 253/4/6 257/4/6 261/4/6
f 257/4/6 258/4/6 261/4/6
f 258/3/6 259/3/6 262/3/6
f 261/4/6 258/4/6 262/4/6
f 259/4/6 260/4/6 263/4/6
f 262/3/6 259/3/6 263/3/6
f 260/4/6 256/4/6 264/4/6
f 263/4/6 260/4/6 264/4/6
