# MagicaVoxel @ Ephtracy

# group
g Special_PowerLine_Switch_On

# material
mtllib Special_PowerLine_Switch_On.mtl
usemtl palette

# normals
vn -1 0 0
vn 1 0 0
vn 0 0 1
vn 0 0 -1
vn 0 -1 0
vn 0 1 0

# texcoords
vt 0.349609 0.5
vt 0.365234 0.5
vt 0.369141 0.5
vt 0.373047 0.5

# verts
v -4 -5 4
v -4 -5 2
v -4 -5 -3
v -4 -5 -5
v -4 -4 3
v -4 -4 2
v -4 -4 -3
v -4 -4 -4
v -4 -3 4
v -4 -3 3
v -4 -3 2
v -4 -3 -3
v -4 -3 -4
v -4 -3 -5
v -4 3 4
v -4 3 3
v -4 3 2
v -4 3 -3
v -4 3 -4
v -4 3 -5
v -4 4 3
v -4 4 2
v -4 4 -3
v -4 4 -4
v -4 5 4
v -4 5 2
v -4 5 -3
v -4 5 -5
v -3 -3 2
v -3 -3 -3
v -3 3 2
v -3 3 -3
v -2 -2 5
v -2 -2 4
v -2 -1 4
v -2 -1 3
v -2 2 5
v -2 2 3
v 3 -3 -4
v 3 -3 -5
v 3 -1 4
v 3 -1 3
v 3 3 4
v 3 3 3
v 3 3 -4
v 3 3 -5
v -3 -3 -4
v -3 -3 -5
v -3 -1 4
v -3 -1 3
v -3 3 4
v -3 3 3
v -3 3 -4
v -3 3 -5
v 2 -2 5
v 2 -2 4
v 2 -1 4
v 2 -1 3
v 2 2 5
v 2 2 3
v 3 -3 2
v 3 -3 -3
v 3 3 2
v 3 3 -3
v 4 -5 4
v 4 -5 2
v 4 -5 -3
v 4 -5 -5
v 4 -4 3
v 4 -4 2
v 4 -4 -3
v 4 -4 -4
v 4 -3 4
v 4 -3 3
v 4 -3 2
v 4 -3 -3
v 4 -3 -4
v 4 -3 -5
v 4 3 4
v 4 3 3
v 4 3 2
v 4 3 -3
v 4 3 -4
v 4 3 -5
v 4 4 3
v 4 4 2
v 4 4 -3
v 4 4 -4
v 4 5 4
v 4 5 2
v 4 5 -3
v 4 5 -5
v -2 -2 5
v -2 2 5
v -1 -1 5
v -1 1 5
v 1 -1 5
v 1 1 5
v 2 -2 5
v 2 2 5
v -4 -5 4
v -4 -3 4
v -4 3 4
v -4 5 4
v -3 -4 4
v -3 -3 4
v -3 -1 4
v -3 3 4
v -3 4 4
v -2 -5 4
v -2 -4 4
v -2 -2 4
v -2 -1 4
v -2 4 4
v -2 5 4
v 2 -5 4
v 2 -4 4
v 2 -2 4
v 2 -1 4
v 2 4 4
v 2 5 4
v 3 -4 4
v 3 -3 4
v 3 -1 4
v 3 3 4
v 3 4 4
v 4 -5 4
v 4 -3 4
v 4 3 4
v 4 5 4
v -3 -1 3
v -3 3 3
v -2 -1 3
v -2 2 3
v 2 -1 3
v 2 2 3
v 3 -1 3
v 3 3 3
v -4 -3 -3
v -4 3 -3
v -3 -3 -3
v -3 3 -3
v 3 -3 -3
v 3 3 -3
v 4 -3 -3
v 4 3 -3
v -4 -3 2
v -4 3 2
v -3 -3 2
v -3 3 2
v 3 -3 2
v 3 3 2
v 4 -3 2
v 4 3 2
v -3 -3 -4
v -3 3 -4
v 3 -3 -4
v 3 3 -4
v -4 -5 -5
v -4 -3 -5
v -4 3 -5
v -4 5 -5
v -3 -4 -5
v -3 -3 -5
v -3 3 -5
v -3 4 -5
v -2 -5 -5
v -2 -4 -5
v -2 4 -5
v -2 5 -5
v 2 -5 -5
v 2 -4 -5
v 2 4 -5
v 2 5 -5
v 3 -4 -5
v 3 -3 -5
v 3 3 -5
v 3 4 -5
v 4 -5 -5
v 4 -3 -5
v 4 3 -5
v 4 5 -5
v -4 -5 4
v -2 -5 4
v 2 -5 4
v 4 -5 4
v -3 -5 3
v -2 -5 3
v 2 -5 3
v 3 -5 3
v -4 -5 2
v -3 -5 2
v 3 -5 2
v 4 -5 2
v -4 -5 -3
v -3 -5 -3
v 3 -5 -3
v 4 -5 -3
v -3 -5 -4
v -2 -5 -4
v 2 -5 -4
v 3 -5 -4
v -4 -5 -5
v -2 -5 -5
v 2 -5 -5
v 4 -5 -5
v -2 -2 5
v 2 -2 5
v -2 -2 4
v 2 -2 4
v -3 3 4
v 3 3 4
v -3 3 3
v 3 3 3
v -4 3 2
v -3 3 2
v 3 3 2
v 4 3 2
v -4 3 -3
v -3 3 -3
v 3 3 -3
v 4 3 -3
v -3 3 -4
v 3 3 -4
v -3 3 -5
v 3 3 -5
v -4 -3 2
v -3 -3 2
v 3 -3 2
v 4 -3 2
v -4 -3 -3
v -3 -3 -3
v 3 -3 -3
v 4 -3 -3
v -3 -3 -4
v 3 -3 -4
v -3 -3 -5
v 3 -3 -5
v -3 -1 4
v -2 -1 4
v 2 -1 4
v 3 -1 4
v -3 -1 3
v -2 -1 3
v 2 -1 3
v 3 -1 3
v -2 2 5
v 2 2 5
v -2 2 3
v 2 2 3
v -4 5 4
v -2 5 4
v 2 5 4
v 4 5 4
v -3 5 3
v -2 5 3
v 2 5 3
v 3 5 3
v -4 5 2
v -3 5 2
v -2 5 2
v 2 5 2
v 3 5 2
v 4 5 2
v -2 5 1
v 1 5 1
v -2 5 -0
v 1 5 -0
v -1 5 -1
v 2 5 -1
v -1 5 -2
v 2 5 -2
v -4 5 -3
v -3 5 -3
v -2 5 -3
v 2 5 -3
v 3 5 -3
v 4 5 -3
v -3 5 -4
v -2 5 -4
v 2 5 -4
v 3 5 -4
v -4 5 -5
v -2 5 -5
v 2 5 -5
v 4 5 -5

# faces
f 5/4/1 2/4/1 1/4/1
f 6/3/1 3/3/1 2/3/1
f 6/4/1 2/4/1 5/4/1
f 7/4/1 4/4/1 3/4/1
f 7/3/1 3/3/1 6/3/1
f 8/4/1 4/4/1 7/4/1
f 9/4/1 5/4/1 1/4/1
f 10/3/1 6/3/1 5/3/1
f 10/4/1 5/4/1 9/4/1
f 10/3/1 7/3/1 6/3/1
f 10/3/1 8/3/1 7/3/1
f 11/3/1 8/3/1 10/3/1
f 12/3/1 8/3/1 11/3/1
f 13/4/1 4/4/1 8/4/1
f 13/3/1 8/3/1 12/3/1
f 14/4/1 4/4/1 13/4/1
f 15/3/1 10/3/1 9/3/1
f 15/3/1 11/3/1 10/3/1
f 16/3/1 11/3/1 15/3/1
f 17/3/1 11/3/1 16/3/1
f 18/3/1 14/3/1 13/3/1
f 18/3/1 13/3/1 12/3/1
f 19/3/1 14/3/1 18/3/1
f 20/3/1 14/3/1 19/3/1
f 21/3/1 17/3/1 16/3/1
f 21/4/1 16/4/1 15/4/1
f 21/3/1 18/3/1 17/3/1
f 21/3/1 19/3/1 18/3/1
f 22/3/1 19/3/1 21/3/1
f 23/3/1 19/3/1 22/3/1
f 24/4/1 20/4/1 19/4/1
f 24/3/1 19/3/1 23/3/1
f 25/4/1 21/4/1 15/4/1
f 25/4/1 22/4/1 21/4/1
f 26/3/1 23/3/1 22/3/1
f 26/4/1 22/4/1 25/4/1
f 27/4/1 24/4/1 23/4/1
f 27/3/1 23/3/1 26/3/1
f 28/4/1 20/4/1 24/4/1
f 28/4/1 24/4/1 27/4/1
f 31/2/1 30/2/1 29/2/1
f 32/2/1 30/2/1 31/2/1
f 35/3/1 34/3/1 33/3/1
f 37/3/1 35/3/1 33/3/1
f 37/3/1 36/3/1 35/3/1
f 38/3/1 36/3/1 37/3/1
f 43/3/1 42/3/1 41/3/1
f 44/3/1 42/3/1 43/3/1
f 45/3/1 40/3/1 39/3/1
f 46/3/1 40/3/1 45/3/1
f 49/3/2 50/3/2 51/3/2
f 51/3/2 50/3/2 52/3/2
f 47/3/2 48/3/2 53/3/2
f 53/3/2 48/3/2 54/3/2
f 55/3/2 56/3/2 57/3/2
f 55/3/2 57/3/2 59/3/2
f 57/3/2 58/3/2 59/3/2
f 59/3/2 58/3/2 60/3/2
f 61/2/2 62/2/2 63/2/2
f 63/2/2 62/2/2 64/2/2
f 65/4/2 66/4/2 69/4/2
f 66/3/2 67/3/2 70/3/2
f 69/4/2 66/4/2 70/4/2
f 67/4/2 68/4/2 71/4/2
f 70/3/2 67/3/2 71/3/2
f 71/4/2 68/4/2 72/4/2
f 65/4/2 69/4/2 73/4/2
f 69/3/2 70/3/2 74/3/2
f 73/4/2 69/4/2 74/4/2
f 70/3/2 71/3/2 74/3/2
f 71/3/2 72/3/2 74/3/2
f 74/3/2 72/3/2 75/3/2
f 75/3/2 72/3/2 76/3/2
f 72/4/2 68/4/2 77/4/2
f 76/3/2 72/3/2 77/3/2
f 77/4/2 68/4/2 78/4/2
f 73/3/2 74/3/2 79/3/2
f 74/3/2 75/3/2 79/3/2
f 79/3/2 75/3/2 80/3/2
f 80/3/2 75/3/2 81/3/2
f 77/3/2 78/3/2 82/3/2
f 76/3/2 77/3/2 82/3/2
f 82/3/2 78/3/2 83/3/2
f 83/3/2 78/3/2 84/3/2
f 80/3/2 81/3/2 85/3/2
f 79/4/2 80/4/2 85/4/2
f 81/3/2 82/3/2 85/3/2
f 82/3/2 83/3/2 85/3/2
f 85/3/2 83/3/2 86/3/2
f 86/3/2 83/3/2 87/3/2
f 83/4/2 84/4/2 88/4/2
f 87/3/2 83/3/2 88/3/2
f 79/4/2 85/4/2 89/4/2
f 85/4/2 86/4/2 89/4/2
f 86/3/2 87/3/2 90/3/2
f 89/4/2 86/4/2 90/4/2
f 87/4/2 88/4/2 91/4/2
f 90/3/2 87/3/2 91/3/2
f 88/4/2 84/4/2 92/4/2
f 91/4/2 88/4/2 92/4/2
f 95/3/3 94/3/3 93/3/3
f 96/3/3 94/3/3 95/3/3
f 97/3/3 95/3/3 93/3/3
f 97/2/3 96/2/3 95/2/3
f 98/3/3 94/3/3 96/3/3
f 98/2/3 96/2/3 97/2/3
f 99/3/3 97/3/3 93/3/3
f 99/3/3 98/3/3 97/3/3
f 100/3/3 94/3/3 98/3/3
f 100/3/3 98/3/3 99/3/3
f 105/4/3 102/4/3 101/4/3
f 106/3/3 103/3/3 102/3/3
f 106/4/3 102/4/3 105/4/3
f 107/3/3 103/3/3 106/3/3
f 108/4/3 104/4/3 103/4/3
f 108/3/3 103/3/3 107/3/3
f 109/4/3 104/4/3 108/4/3
f 110/4/3 105/4/3 101/4/3
f 111/3/3 107/3/3 106/3/3
f 111/4/3 105/4/3 110/4/3
f 111/3/3 106/3/3 105/3/3
f 112/3/3 107/3/3 111/3/3
f 113/3/3 107/3/3 112/3/3
f 114/4/3 104/4/3 109/4/3
f 114/3/3 109/3/3 108/3/3
f 115/4/3 104/4/3 114/4/3
f 116/3/3 112/3/3 111/3/3
f 116/3/3 111/3/3 110/3/3
f 117/3/3 112/3/3 116/3/3
f 118/3/3 112/3/3 117/3/3
f 120/3/3 115/3/3 114/3/3
f 120/3/3 114/3/3 108/3/3
f 121/3/3 115/3/3 120/3/3
f 122/3/3 119/3/3 118/3/3
f 122/3/3 118/3/3 117/3/3
f 122/4/3 117/4/3 116/4/3
f 123/3/3 119/3/3 122/3/3
f 124/3/3 119/3/3 123/3/3
f 125/3/3 120/3/3 108/3/3
f 126/4/3 121/4/3 120/4/3
f 126/3/3 120/3/3 125/3/3
f 127/4/3 122/4/3 116/4/3
f 127/4/3 123/4/3 122/4/3
f 128/3/3 125/3/3 124/3/3
f 128/4/3 123/4/3 127/4/3
f 128/3/3 124/3/3 123/3/3
f 129/4/3 126/4/3 125/4/3
f 129/3/3 125/3/3 128/3/3
f 130/4/3 121/4/3 126/4/3
f 130/4/3 126/4/3 129/4/3
f 133/2/3 132/2/3 131/2/3
f 134/2/3 132/2/3 133/2/3
f 136/2/3 132/2/3 134/2/3
f 137/2/3 136/2/3 135/2/3
f 138/2/3 132/2/3 136/2/3
f 138/2/3 136/2/3 137/2/3
f 141/3/3 140/3/3 139/3/3
f 142/3/3 140/3/3 141/3/3
f 145/3/3 144/3/3 143/3/3
f 146/3/3 144/3/3 145/3/3
f 147/3/4 148/3/4 149/3/4
f 149/3/4 148/3/4 150/3/4
f 151/3/4 152/3/4 153/3/4
f 153/3/4 152/3/4 154/3/4
f 155/2/4 156/2/4 157/2/4
f 157/2/4 156/2/4 158/2/4
f 159/4/4 160/4/4 163/4/4
f 160/3/4 161/3/4 164/3/4
f 163/4/4 160/4/4 164/4/4
f 161/4/4 162/4/4 165/4/4
f 164/3/4 161/3/4 165/3/4
f 165/4/4 162/4/4 166/4/4
f 159/4/4 163/4/4 167/4/4
f 163/3/4 164/3/4 168/3/4
f 167/4/4 163/4/4 168/4/4
f 166/4/4 162/4/4 169/4/4
f 165/3/4 166/3/4 169/3/4
f 169/4/4 162/4/4 170/4/4
f 167/3/4 168/3/4 171/3/4
f 168/3/4 164/3/4 172/3/4
f 171/3/4 168/3/4 172/3/4
f 165/3/4 169/3/4 173/3/4
f 169/3/4 170/3/4 173/3/4
f 173/3/4 170/3/4 174/3/4
f 172/3/4 164/3/4 175/3/4
f 171/4/4 172/4/4 175/4/4
f 175/3/4 164/3/4 176/3/4
f 165/3/4 173/3/4 177/3/4
f 173/4/4 174/4/4 178/4/4
f 177/3/4 173/3/4 178/3/4
f 175/4/4 176/4/4 179/4/4
f 171/4/4 175/4/4 179/4/4
f 176/3/4 177/3/4 180/3/4
f 179/4/4 176/4/4 180/4/4
f 177/4/4 178/4/4 181/4/4
f 180/3/4 177/3/4 181/3/4
f 178/4/4 174/4/4 182/4/4
f 181/4/4 178/4/4 182/4/4
f 187/4/5 184/4/5 183/4/5
f 188/3/5 185/3/5 184/3/5
f 188/4/5 184/4/5 187/4/5
f 189/4/5 186/4/5 185/4/5
f 189/3/5 185/3/5 188/3/5
f 190/4/5 186/4/5 189/4/5
f 191/4/5 187/4/5 183/4/5
f 192/3/5 188/3/5 187/3/5
f 192/4/5 187/4/5 191/4/5
f 192/3/5 189/3/5 188/3/5
f 192/3/5 190/3/5 189/3/5
f 193/4/5 186/4/5 190/4/5
f 193/3/5 190/3/5 192/3/5
f 194/4/5 186/4/5 193/4/5
f 195/3/5 192/3/5 191/3/5
f 195/3/5 193/3/5 192/3/5
f 195/3/5 194/3/5 193/3/5
f 196/3/5 194/3/5 195/3/5
f 197/3/5 194/3/5 196/3/5
f 198/3/5 194/3/5 197/3/5
f 199/4/5 196/4/5 195/4/5
f 199/3/5 197/3/5 196/3/5
f 200/3/5 197/3/5 199/3/5
f 201/3/5 197/3/5 200/3/5
f 202/4/5 198/4/5 197/4/5
f 202/3/5 197/3/5 201/3/5
f 203/4/5 199/4/5 195/4/5
f 203/4/5 200/4/5 199/4/5
f 204/3/5 201/3/5 200/3/5
f 204/4/5 200/4/5 203/4/5
f 205/4/5 202/4/5 201/4/5
f 205/3/5 201/3/5 204/3/5
f 206/4/5 198/4/5 202/4/5
f 206/4/5 202/4/5 205/4/5
f 209/3/5 208/3/5 207/3/5
f 210/3/5 208/3/5 209/3/5
f 213/3/5 212/3/5 211/3/5
f 214/3/5 212/3/5 213/3/5
f 219/3/5 216/3/5 215/3/5
f 220/3/5 216/3/5 219/3/5
f 221/3/5 218/3/5 217/3/5
f 222/3/5 218/3/5 221/3/5
f 225/3/5 224/3/5 223/3/5
f 226/3/5 224/3/5 225/3/5
f 227/3/6 228/3/6 231/3/6
f 231/3/6 228/3/6 232/3/6
f 229/3/6 230/3/6 233/3/6
f 233/3/6 230/3/6 234/3/6
f 235/3/6 236/3/6 237/3/6
f 237/3/6 236/3/6 238/3/6
f 239/3/6 240/3/6 243/3/6
f 243/3/6 240/3/6 244/3/6
f 241/3/6 242/3/6 245/3/6
f 245/3/6 242/3/6 246/3/6
f 247/3/6 248/3/6 249/3/6
f 249/3/6 248/3/6 250/3/6
f 251/4/6 252/4/6 255/4/6
f 252/3/6 253/3/6 256/3/6
f 255/4/6 252/4/6 256/4/6
f 253/4/6 254/4/6 257/4/6
f 256/3/6 253/3/6 257/3/6
f 257/4/6 254/4/6 258/4/6
f 251/4/6 255/4/6 259/4/6
f 255/3/6 256/3/6 260/3/6
f 259/4/6 255/4/6 260/4/6
f 256/3/6 257/3/6 260/3/6
f 257/3/6 258/3/6 260/3/6
f 260/3/6 258/3/6 261/3/6
f 261/3/6 258/3/6 262/3/6
f 258/4/6 254/4/6 263/4/6
f 262/3/6 258/3/6 263/3/6
f 263/4/6 254/4/6 264/4/6
f 261/2/6 262/2/6 265/2/6
f 259/3/6 260/3/6 265/3/6
f 260/3/6 261/3/6 265/3/6
f 265/2/6 262/2/6 266/2/6
f 259/3/6 265/3/6 267/3/6
f 265/3/6 266/3/6 267/3/6
f 266/2/6 262/2/6 268/2/6
f 267/3/6 266/3/6 268/3/6
f 267/2/6 268/2/6 269/2/6
f 263/3/6 264/3/6 270/3/6
f 269/2/6 268/2/6 270/2/6
f 262/3/6 263/3/6 270/3/6
f 268/2/6 262/2/6 270/2/6
f 267/2/6 269/2/6 271/2/6
f 269/3/6 270/3/6 271/3/6
f 270/3/6 264/3/6 272/3/6
f 271/3/6 270/3/6 272/3/6
f 259/3/6 267/3/6 273/3/6
f 273/3/6 267/3/6 274/3/6
f 267/2/6 271/2/6 275/2/6
f 274/3/6 267/3/6 275/3/6
f 271/2/6 272/2/6 275/2/6
f 272/3/6 264/3/6 276/3/6
f 275/2/6 272/2/6 276/2/6
f 276/3/6 264/3/6 277/3/6
f 277/3/6 264/3/6 278/3/6
f 273/4/6 274/4/6 279/4/6
f 274/3/6 275/3/6 279/3/6
f 275/3/6 276/3/6 279/3/6
f 276/3/6 277/3/6 279/3/6
f 279/3/6 277/3/6 280/3/6
f 280/3/6 277/3/6 281/3/6
f 277/4/6 278/4/6 282/4/6
f 281/3/6 277/3/6 282/3/6
f 273/4/6 279/4/6 283/4/6
f 279/4/6 280/4/6 283/4/6
f 280/3/6 281/3/6 284/3/6
f 283/4/6 280/4/6 284/4/6
f 281/4/6 282/4/6 285/4/6
f 284/3/6 281/3/6 285/3/6
f 282/4/6 278/4/6 286/4/6
f 285/4/6 282/4/6 286/4/6
