# MagicaVoxel @ Ephtracy

# group
g Activate_BombCreater_Door

# material
mtllib Activate_BombCreater_Door.mtl
usemtl palette

# normals
vn -1 0 0
vn 1 0 0
vn 0 0 1
vn 0 0 -1
vn 0 -1 0
vn 0 1 0

# texcoords
vt 0.220703 0.5
vt 0.228516 0.5
vt 0.232422 0.5

# verts
v -2 -0.5 4
v -2 -0.5 1
v -2 -0.5 -1
v -2 -0.5 -4
v -2 0.5 4
v -2 0.5 1
v -2 0.5 -1
v -2 0.5 -4
v 2 -0.5 4
v 2 -0.5 -4
v 2 0.5 4
v 2 0.5 -4
v -2 -0.5 4
v -2 0.5 4
v 2 -0.5 4
v 2 0.5 4
v -2 -0.5 -4
v -2 0.5 -4
v 2 -0.5 -4
v 2 0.5 -4
v -2 -0.5 4
v 2 -0.5 4
v -1 -0.5 3
v 0 -0.5 3
v 0 -0.5 2
v 1 -0.5 2
v -2 -0.5 1
v -1 -0.5 1
v 0 -0.5 1
v -2 -0.5 -1
v -1 -0.5 -1
v 0 -0.5 -1
v 0 -0.5 -2
v 1 -0.5 -2
v -1 -0.5 -3
v 0 -0.5 -3
v -2 -0.5 -4
v 2 -0.5 -4
v -2 0.5 4
v 2 0.5 4
v -1 0.5 3
v 0 0.5 3
v 0 0.5 2
v 1 0.5 2
v -2 0.5 1
v -1 0.5 1
v 0 0.5 1
v -2 0.5 -1
v -1 0.5 -1
v 0 0.5 -1
v 0 0.5 -2
v 1 0.5 -2
v -1 0.5 -3
v 0 0.5 -3
v -2 0.5 -4
v 2 0.5 -4

# faces
f 5/1/1 2/1/1 1/1/1
f 6/2/1 3/2/1 2/2/1
f 6/1/1 2/1/1 5/1/1
f 7/1/1 4/1/1 3/1/1
f 7/2/1 3/2/1 6/2/1
f 8/1/1 4/1/1 7/1/1
f 9/1/2 10/1/2 11/1/2
f 11/1/2 10/1/2 12/1/2
f 15/1/3 14/1/3 13/1/3
f 16/1/3 14/1/3 15/1/3
f 17/1/4 18/1/4 19/1/4
f 19/1/4 18/1/4 20/1/4
f 23/1/5 22/1/5 21/1/5
f 24/1/5 22/1/5 23/1/5
f 25/3/5 24/3/5 23/3/5
f 25/1/5 22/1/5 24/1/5
f 26/1/5 22/1/5 25/1/5
f 27/1/5 23/1/5 21/1/5
f 28/3/5 25/3/5 23/3/5
f 28/1/5 23/1/5 27/1/5
f 28/3/5 26/3/5 25/3/5
f 29/3/5 26/3/5 28/3/5
f 30/2/5 28/2/5 27/2/5
f 31/1/5 29/1/5 28/1/5
f 31/2/5 28/2/5 30/2/5
f 32/3/5 26/3/5 29/3/5
f 32/1/5 29/1/5 31/1/5
f 33/3/5 32/3/5 31/3/5
f 33/3/5 26/3/5 32/3/5
f 34/1/5 22/1/5 26/1/5
f 34/3/5 26/3/5 33/3/5
f 35/3/5 33/3/5 31/3/5
f 35/1/5 31/1/5 30/1/5
f 36/1/5 34/1/5 33/1/5
f 36/3/5 33/3/5 35/3/5
f 37/1/5 35/1/5 30/1/5
f 37/1/5 36/1/5 35/1/5
f 38/1/5 22/1/5 34/1/5
f 38/1/5 36/1/5 37/1/5
f 38/1/5 34/1/5 36/1/5
f 39/1/6 40/1/6 41/1/6
f 41/1/6 40/1/6 42/1/6
f 41/3/6 42/3/6 43/3/6
f 42/1/6 40/1/6 43/1/6
f 43/1/6 40/1/6 44/1/6
f 39/1/6 41/1/6 45/1/6
f 41/3/6 43/3/6 46/3/6
f 45/1/6 41/1/6 46/1/6
f 43/3/6 44/3/6 46/3/6
f 46/3/6 44/3/6 47/3/6
f 45/2/6 46/2/6 48/2/6
f 46/1/6 47/1/6 49/1/6
f 48/2/6 46/2/6 49/2/6
f 47/3/6 44/3/6 50/3/6
f 49/1/6 47/1/6 50/1/6
f 49/3/6 50/3/6 51/3/6
f 50/3/6 44/3/6 51/3/6
f 44/1/6 40/1/6 52/1/6
f 51/3/6 44/3/6 52/3/6
f 49/3/6 51/3/6 53/3/6
f 48/1/6 49/1/6 53/1/6
f 51/1/6 52/1/6 54/1/6
f 53/3/6 51/3/6 54/3/6
f 48/1/6 53/1/6 55/1/6
f 53/1/6 54/1/6 55/1/6
f 52/1/6 40/1/6 56/1/6
f 55/1/6 54/1/6 56/1/6
f 54/1/6 52/1/6 56/1/6
